<svg width="32" height="30" viewBox="0 0 32 30" fill="none" xmlns="http://www.w3.org/2000/svg">
<g clip-path="url(#clip0_37_1796)">
<path d="M0.00080655 21.8917C0.0525495 19.4827 0.806416 17.367 2.48389 15.6463C7.38223 10.6216 12.2826 5.59905 17.1854 0.579048C17.8482 -0.0996646 18.5284 -0.181573 19.0011 0.331839C19.4638 0.83427 19.3577 1.51476 18.685 2.20535C13.853 7.1657 9.02305 12.1286 4.18063 17.078C2.60305 18.6905 1.90452 20.6307 2.27247 22.8697C2.97157 27.123 7.91892 29.1798 11.4269 26.7188C11.8495 26.4223 12.2387 26.0633 12.6018 25.6901C17.9032 20.2412 23.1937 14.7813 28.4967 9.3342C29.4822 8.32177 30.0321 7.18173 29.7293 5.71435C29.427 4.25038 28.619 3.21911 27.2311 2.76372C25.8491 2.31025 24.5705 2.60227 23.5394 3.66204C18.1738 9.17706 12.8218 14.7063 7.47637 20.2421C6.73213 21.0128 6.64288 22.0371 7.19322 22.5866C7.80436 23.1969 8.7445 23.0831 9.52352 22.284C14.1641 17.5239 18.8013 12.7603 23.4398 7.99784C23.633 7.79945 23.8106 7.57955 24.0258 7.41039C24.5181 7.0234 25.0506 6.97666 25.5082 7.4368C25.9661 7.89724 25.9335 8.44715 25.5709 8.96472C25.4306 9.16489 25.237 9.32559 25.0652 9.50187C20.4483 14.2416 15.8294 18.9792 11.2167 23.7232C10.7613 24.1915 10.2785 24.6116 9.68924 24.8812C8.37497 25.4825 7.08772 25.5208 5.94162 24.5106C4.73414 23.4462 4.44093 22.0692 4.84337 20.5171C5.0354 19.7765 5.43569 19.1601 5.96073 18.6182C11.2502 13.1572 16.5264 7.68223 21.8274 2.23324C23.8774 0.126029 26.7194 -0.266597 29.0736 1.15166C31.3144 2.50167 32.4676 5.34324 31.821 7.92721C31.5489 9.01413 30.9923 9.93323 30.2289 10.72C24.8061 16.3086 19.4094 21.9249 13.9463 27.4713C9.46546 32.0203 2.00613 30.1496 0.308246 24.1112C0.104867 23.3868 -0.0127041 22.6507 0.00080655 21.8917Z" fill="currentColor"/>
</g>
<defs>
<clipPath id="clip0_37_1796">
<rect width="32" height="30" fill="white"/>
</clipPath>
</defs>
</svg>
