<svg width="34" height="34" viewBox="0 0 34 34" fill="none" xmlns="http://www.w3.org/2000/svg">
<g clip-path="url(#clip0_562_238)">
<path d="M17.0142 0C26.3986 0.00944182 34.1007 7.63843 34 17.203C33.9024 26.4481 26.3436 34.1259 16.7403 33.9969C7.51798 33.8741 -0.110146 26.3301 1.88134e-05 16.7797C0.10861 7.54402 7.6124 0.0110155 17.0142 0ZM16.967 30.442C17.8436 30.4294 18.6871 30.3602 19.5228 30.1997C22.129 29.6961 24.3968 28.5332 26.3042 26.692C28.7924 24.2891 30.1443 21.3417 30.4102 17.9001C30.4905 16.8631 30.4354 15.8261 30.2607 14.7985C29.9176 12.7874 29.1669 10.9415 27.9976 9.26715C27.9032 9.13339 27.8607 9.14755 27.7568 9.25299C21.5892 15.4248 15.4184 21.595 9.24442 27.7621C9.13268 27.8738 9.14055 27.9163 9.26488 28.0029C11.5894 29.6143 14.1672 30.4216 16.9654 30.4452L16.967 30.442ZM3.55834 16.7246C3.56306 17.7443 3.615 18.4839 3.73933 19.2157C4.08084 21.2142 4.82524 23.0491 5.98669 24.714C6.07639 24.8414 6.11574 24.8823 6.25108 24.747C8.98002 22.0089 11.7137 19.2771 14.4473 16.5436C17.8845 13.1068 21.3201 9.67 24.7603 6.23632C24.8674 6.12932 24.8611 6.09312 24.7399 6.00815C22.6814 4.57142 20.3994 3.76886 17.9002 3.59104C16.6522 3.50292 15.4105 3.58789 14.1877 3.85698C11.2211 4.50847 8.73451 5.98139 6.76728 8.29307C4.63481 10.7967 3.59454 13.7174 3.55834 16.7246Z" fill="#F50000"/>
</g>
<defs>
<clipPath id="clip0_562_238">
<rect width="34" height="34" fill="white"/>
</clipPath>
</defs>
</svg>
