<svg width="512" height="512" viewBox="0 0 512 512" fill="none" xmlns="http://www.w3.org/2000/svg">
<rect width="512" height="512" rx="256" fill="currentColor"/>
<g filter="url(#filter0_d_3159_65)">
<path d="M255.731 391C229.704 391 203.676 391 177.649 391C158.083 391 145.518 378.775 146.057 358.999C146.416 344.976 146.416 330.593 150.185 317.289C158.263 288.344 184.829 269.107 212.472 269.647C215.703 269.647 218.934 270.366 221.985 271.624C244.602 281.512 266.681 280.614 289.836 272.344C298.452 269.287 309.94 270.366 319.274 273.063C345.661 280.793 365.047 308.12 366.124 335.987C366.483 344.436 366.303 352.706 366.124 361.156C365.765 378.595 353.379 390.82 335.788 391C309.043 391.18 282.477 391 255.731 391Z" fill="white"/>
<path d="M258.783 251.129C236.524 251.309 220.908 243.039 208.522 228.477C186.264 202.228 185.726 161.777 206.907 134.81C232.396 102.449 277.451 101.73 304.017 133.192C337.763 173.283 318.915 237.466 269.553 249.691C265.065 250.77 260.578 250.949 258.783 251.129Z" fill="white"/>
<path d="M331.48 270.366C339.378 261.017 348.533 257.601 359.123 257.242C369.355 257.062 379.407 257.062 389.639 257.242C413.153 257.242 428.052 269.467 431.283 292.839C432.719 302.727 432.18 313.154 430.744 323.042C429.129 333.649 421.949 338.683 411.179 338.863C400.947 339.043 390.895 339.223 380.664 338.683C378.33 338.503 374.381 335.987 374.022 334.009C368.458 307.401 355.534 285.827 331.48 270.366Z" fill="white"/>
<path d="M180.52 269.107C160.775 282.411 147.492 299.491 141.03 321.604C136.363 338.324 136.184 338.144 118.952 338.144C113.028 338.144 106.925 338.324 101.002 337.964C88.2572 337.065 80.7182 330.413 80.1797 317.829C79.6412 307.581 80.0002 296.974 81.7952 286.906C84.8467 268.928 99.7452 257.062 117.875 256.882C130.619 256.702 143.543 256.702 156.467 256.882C165.801 257.062 173.52 260.837 180.52 269.107Z" fill="white"/>
<path d="M188.419 206.903C188.419 229.376 171.905 247.174 151.262 247.354C130.62 247.354 113.567 228.656 113.747 206.184C113.926 184.25 131.158 165.733 151.083 165.553C171.905 165.553 188.419 184.07 188.419 206.903Z" fill="white"/>
<path d="M323.582 206.543C323.582 184.07 339.917 165.912 360.38 165.733C380.663 165.373 398.254 184.43 398.254 206.723C398.254 228.836 381.381 247.174 361.098 247.354C340.276 247.534 323.582 229.376 323.582 206.543Z" fill="white"/>
</g>
<defs>
<filter id="filter0_d_3159_65" x="55.9502" y="90.0594" width="400.177" height="329.02" filterUnits="userSpaceOnUse" color-interpolation-filters="sRGB">
<feFlood flood-opacity="0" result="BackgroundImageFix"/>
<feColorMatrix in="SourceAlpha" type="matrix" values="0 0 0 0 0 0 0 0 0 0 0 0 0 0 0 0 0 0 127 0" result="hardAlpha"/>
<feOffset dy="4"/>
<feGaussianBlur stdDeviation="12"/>
<feComposite in2="hardAlpha" operator="out"/>
<feColorMatrix type="matrix" values="0 0 0 0 0 0 0 0 0 0 0 0 0 0 0 0 0 0 0.25 0"/>
<feBlend mode="normal" in2="BackgroundImageFix" result="effect1_dropShadow_3159_65"/>
<feBlend mode="normal" in="SourceGraphic" in2="effect1_dropShadow_3159_65" result="shape"/>
</filter>
</defs>
</svg>
