<svg width="180" height="180" viewBox="0 0 180 180" fill="none" xmlns="http://www.w3.org/2000/svg">
<rect width="180" height="180" rx="90" fill="currentColor"/>
<g clip-path="url(#clip0_3189_50)">
<path d="M91.5988 37C113.616 38.1518 130.839 48.2961 140.028 69.2937C148.95 89.671 145.665 108.941 131.416 126.173C130.573 127.192 129.685 128.211 128.709 129.097C126.533 131.002 123.471 130.869 121.473 128.92C119.475 127.015 119.209 124.18 120.985 121.876C123.027 119.263 125.335 116.87 127.155 114.08C136.965 98.8852 136.166 78.8622 125.157 64.7309C113.882 50.201 94.7948 44.3536 77.4829 50.0681C47.2979 59.9467 37.8429 97.5562 59.727 120.547C62.3904 123.338 62.7011 126.217 60.6148 128.61C58.4841 131.046 54.9773 131.046 52.4027 128.432C45.5667 121.522 40.9058 113.282 38.5975 103.847C30.9625 72.4389 51.6481 42.1386 83.7862 37.5759C86.1389 37.2658 88.4915 37.2215 91.5988 37Z" fill="white"/>
<path d="M87.0276 61.3199C102.919 61.3642 113.839 68.4077 118.189 79.5267C122.717 91.1772 120.631 101.853 112.285 111.2C110.332 113.371 107.669 113.858 105.494 112.662C103.319 111.466 102.253 109.074 102.83 106.637C103.097 105.441 103.851 104.555 104.65 103.669C111.087 96.493 111.398 86.2601 105.405 78.9508C99.5011 71.6858 89.2915 69.9582 80.9462 74.831C71.1361 80.5898 69.0054 94.7211 76.7292 103.315C77.617 104.29 78.5492 105.264 78.8599 106.593C79.437 109.03 78.3716 111.466 76.2409 112.662C74.1102 113.858 71.5356 113.371 69.5825 111.422C58.9733 100.879 58.3963 83.1149 68.2952 71.7301C74.2878 64.8195 81.834 61.3642 87.0276 61.3199Z" fill="white"/>
<path d="M90.8894 145C84.9856 145 79.0817 145 73.1779 145C70.7365 145 70.6033 144.779 71.6243 142.741C77.6613 130.692 83.6983 118.642 89.7796 106.593C90.046 106.062 90.1348 105.131 90.9782 105.22C91.5996 105.264 91.7328 106.062 91.9991 106.549C98.0361 118.598 104.118 130.647 110.154 142.697C111.22 144.779 111.042 145 108.645 145C102.697 145 96.7932 145 90.8894 145Z" fill="white"/>
</g>
<defs>
<clipPath id="clip0_3189_50">
<rect width="108" height="108" fill="white" transform="translate(37 37)"/>
</clipPath>
</defs>
</svg>
