<svg width="36" height="36" viewBox="0 0 36 36" fill="none" xmlns="http://www.w3.org/2000/svg">
<g clip-path="url(#clip0_37_2109)">
<path d="M32.3913 22.5754C30.7138 22.621 29.0336 22.6122 27.3552 22.5829C26.2084 22.563 25.6884 22.0274 25.6529 20.8714C25.6227 19.8698 25.6269 18.8658 25.6474 17.8635C25.6747 16.5268 26.1363 16.0555 27.4621 16.0369C29.0207 16.0151 30.5825 15.9785 32.1381 16.0509C33.0986 16.0956 33.5195 15.8565 33.4321 14.8082C33.3424 13.7328 33.4184 12.6437 33.4119 11.5608C33.3944 8.60408 31.738 6.93016 28.8133 6.9256C24.776 6.91907 20.7387 6.92397 16.701 6.92266C12.5838 6.92136 8.46649 6.9057 4.34923 6.92756C1.86788 6.9406 0.0457146 8.67421 0.0281625 11.1225C-0.0108421 16.5777 -0.00856685 22.0336 0.0281625 27.4888C0.0440894 29.8242 1.80482 31.6687 4.10967 31.6808C5.84863 31.6896 7.58791 31.6971 9.3272 31.7023C9.14843 31.0689 9.05612 30.4064 9.05612 29.7296C9.05612 27.8042 9.80338 25.994 11.1601 24.6325C12.5168 23.2711 14.3208 22.5212 16.2395 22.5212C18.1582 22.5212 19.9621 23.2711 21.3189 24.6325C22.6756 25.994 23.4228 27.8042 23.4228 29.7296C23.4228 30.4081 23.3302 31.0718 23.1504 31.7069C25.1982 31.7017 27.2456 31.6938 29.293 31.6831C31.6457 31.671 33.3255 29.8852 33.3957 27.5293C33.4353 26.2063 33.3645 24.8794 33.4314 23.5591C33.4737 22.7287 33.1369 22.5548 32.3913 22.5754Z" fill="currentColor"/>
<path d="M4.95675 6.19439C5.54865 6.11057 6.13567 5.98988 6.72399 5.88062C12.9582 4.72172 19.1909 3.55435 25.4267 2.40622C27.2024 2.0794 28.2581 2.93756 28.3794 4.75206C28.4008 5.07105 28.3829 5.39299 28.3894 5.71329C28.3956 6.00913 28.4684 6.22864 28.8055 6.34672C30.1658 6.82293 30.7216 6.46088 30.6667 5.05018C30.6449 4.49471 30.5805 3.92586 30.43 3.3929C29.8222 1.24179 27.8102 -0.294159 25.9182 0.0479962C18.6588 1.36051 11.4032 2.69815 4.15618 4.07753C1.74179 4.53711 0.182907 6.3079 0.104248 8.67135C1.32444 6.81249 3.11573 6.45501 4.95675 6.19439Z" fill="currentColor"/>
<path d="M34.6489 16.568C33.4541 16.6016 32.2573 16.5758 31.0614 16.5758V16.5709C29.8653 16.5709 28.6692 16.5859 27.4737 16.566C26.5587 16.551 26.1677 17.0038 26.1751 17.8874C26.1833 18.8075 26.193 19.7283 26.1712 20.6478C26.1491 21.594 26.5688 22.0565 27.5267 22.051C29.9183 22.0376 32.3106 22.035 34.7025 22.0431C35.6097 22.0464 36.0056 21.6002 35.9946 20.7133C35.9829 19.7935 35.979 18.8731 35.9991 17.9532C36.0199 17.0132 35.6334 16.5399 34.6489 16.568ZM33.7092 19.3088C33.6884 19.788 33.4138 20.1269 32.9177 20.1702C32.3476 20.1663 32.0479 19.8274 32.0161 19.3587C31.9777 18.8003 32.3249 18.4604 32.9002 18.4696C33.4222 18.4777 33.7313 18.8003 33.7092 19.3088Z" fill="currentColor"/>
<path d="M16.2395 23.4594C14.5704 23.4594 13.0015 24.1117 11.8213 25.296C10.641 26.4804 9.99097 28.0548 9.99097 29.7297C9.99097 30.4114 10.0986 31.0765 10.3063 31.7053C10.6079 32.6215 11.1215 33.4611 11.8213 34.1634C13.0015 35.3477 14.5704 36 16.2395 36C17.9086 36 19.4775 35.3477 20.6578 34.1634C21.3566 33.4621 21.8695 32.6242 22.1715 31.7092C22.3798 31.0794 22.4881 30.413 22.4881 29.7297C22.4881 28.0548 21.838 26.4804 20.6578 25.296C19.4775 24.1117 17.9086 23.4594 16.2395 23.4594ZM16.81 32.4451C16.81 32.7615 16.5545 33.0175 16.2395 33.0175C15.9246 33.0175 15.6691 32.7615 15.6691 32.4451V30.3021H13.5336C13.2183 30.3021 12.9631 30.0458 12.9631 29.7297C12.9631 29.4136 13.2183 29.1573 13.5336 29.1573H15.6691V27.0143C15.6691 26.6979 15.9246 26.4419 16.2395 26.4419C16.5545 26.4419 16.81 26.6979 16.81 27.0143V29.1573H18.9455C19.2607 29.1573 19.5159 29.4136 19.5159 29.7297C19.5159 30.0458 19.2607 30.3021 18.9455 30.3021H16.81V32.4451Z" fill="currentColor"/>
</g>
<defs>
<clipPath id="clip0_37_2109">
<rect width="36" height="36" fill="white"/>
</clipPath>
</defs>
</svg>
