<?xml version="1.0" standalone="no"?>
<!DOCTYPE svg PUBLIC "-//W3C//DTD SVG 20010904//EN"
 "http://www.w3.org/TR/2001/REC-SVG-20010904/DTD/svg10.dtd">
<svg version="1.0" xmlns="http://www.w3.org/2000/svg"
 width="37.000000pt" height="23.000000pt" viewBox="0 0 37.000000 23.000000"
 preserveAspectRatio="xMidYMid meet">

<g transform="translate(0.000000,23.000000) scale(0.100000,-0.100000)"
fill="currentColor" stroke="none">
<path d="M4 217 c-2 -7 -3 -56 -2 -108 l3 -94 180 0 180 0 0 105 0 105 -178 3
c-141 2 -178 0 -183 -11z m290 -22 c3 -8 17 -20 31 -27 35 -16 36 -81 3 -99
-13 -7 -27 -18 -31 -25 -11 -20 -213 -20 -224 0 -4 7 -18 18 -30 25 -34 18
-33 83 2 99 14 7 28 19 31 27 9 22 209 22 218 0z"/>
<path d="M137 162 c-23 -25 -21 -68 3 -92 41 -41 110 -13 110 44 0 19 -8 40
-18 49 -25 22 -75 21 -95 -1z m69 -27 c-2 -7 0 -17 5 -22 13 -13 -17 -44 -35
-37 -21 8 -27 56 -9 76 13 14 19 15 30 6 8 -6 12 -17 9 -23z"/>
</g>
</svg>
