<?xml version="1.0" encoding="utf-8"?>
<!-- Generator: Adobe Illustrator 24.3.0, SVG Export Plug-In . SVG Version: 6.00 Build 0)  -->
<svg version="1.1" id="Layer_1" xmlns="http://www.w3.org/2000/svg" xmlns:xlink="http://www.w3.org/1999/xlink" x="0px" y="0px"
	 viewBox="0 0 1277.6 664.3" style="enable-background:new 0 0 1277.6 664.3;" xml:space="preserve">
<style type="text/css">
	.st0{fill-rule:evenodd;clip-rule:evenodd;fill:currentColor;}
</style>
<g>
	<path class="st0" d="M0,0h1277.6v664.3H0V0z M639,136.8c108.1,0,195.5,87.4,195.5,195.5c0,108.1-87.4,195.5-195.5,195.5
		c-108.1,0-195.5-87.4-195.5-195.5S530.9,136.8,639,136.8z M663.1,382.9c0-7.7-1.9-13.8-5.7-18c-3.8-4.3-10.4-8.4-20-12.3
		c-9.6-3.8-18.4-7.7-26.4-11.9c-8-3.8-15-8.8-21.1-13.8c-5.7-5.4-10.4-11.5-13.4-18.4c-3-6.9-4.6-15.3-4.6-25.3
		c0-16.5,5.4-29.9,16.5-40.7c11.1-10.7,26.1-16.8,44.5-18.8v-22.3h23.4v22.7c17.7,2.7,31.8,10,42.2,21.8s15.3,27.2,15.3,45.6h-49.5
		c0-10-1.9-18-5.7-23.4s-9.6-8-16.5-8c-6.6,0-11.5,1.9-15,6.1c-3.4,4.3-5.4,9.6-5.4,16.8c0,7.3,1.9,13,6.1,17.3s10.7,8.4,19.5,12.3
		c9.1,3.8,17.7,7.7,25.7,11.9c8,4.3,15,8.8,20.7,14.1c5.7,5.3,10.4,11.5,13.8,18.4c3.4,6.9,5,15.3,5,25.3c0,16.5-5.4,30.3-15.7,40.7
		c-10.7,10.4-25,16.5-43.4,18.4v20.7h-23.4v-20.7c-21.1-2.3-37.5-9.6-49.1-21.8c-11.5-12.3-17.3-28.8-17.3-48.7h49.5
		c0,11.1,2.3,19.5,7.3,25.3c5,5.7,11.9,8.8,21.1,8.8c6.6,0,11.9-1.9,15.7-5.7c3.8-3.8,5.7-9.1,5.7-16.1
		C663.1,383.3,663.1,382.9,663.1,382.9z M213.6,101.2H1063c0,54.1,44.1,98.2,98.2,98.2v262.5c-54.1,0-98.2,44.1-98.2,98.2H213.6
		c0-54.1-44.1-98.2-98.2-98.2V199.3C169.5,199.3,213.6,155.2,213.6,101.2z"/>
</g>
</svg>
