<?xml version="1.0" encoding="utf-8"?>
<!-- Generator: Adobe Illustrator 24.3.0, SVG Export Plug-In . SVG Version: 6.00 Build 0)  -->
<svg version="1.1" id="Layer_1" xmlns="http://www.w3.org/2000/svg" xmlns:xlink="http://www.w3.org/1999/xlink" x="0px" y="0px"
	 viewBox="0 0 312 162" style="enable-background:new 0 0 312 162;" xml:space="preserve">
<style type="text/css">
	.st0{opacity:0.9;clip-path:url(#SVGID_2_);}
	.st1{clip-path:url(#SVGID_4_);}
	.st2{opacity:0.4;clip-path:url(#SVGID_2_);fill:none;stroke:#F8F8F8;stroke-miterlimit:10;}
	.st3{opacity:0.2;clip-path:url(#SVGID_2_);fill:none;stroke:#F8F8F8;stroke-width:1.281;stroke-miterlimit:10;}
	.st4{opacity:0.7;clip-path:url(#SVGID_2_);fill:none;stroke:#F8F8F8;stroke-width:0.7037;stroke-miterlimit:10;}
	.st5{clip-path:url(#SVGID_2_);}
	.st6{fill:#FFFFFF;}
	.st7{fill:#001CC0;}
	.st8{fill:url(#SVGID_7_);}
	.st9{fill:url(#SVGID_8_);}
	.st10{fill:url(#SVGID_9_);}
	.st11{fill:url(#SVGID_10_);}
	.st12{fill:url(#SVGID_11_);}
	.st13{fill:url(#SVGID_12_);}
	.st14{fill:url(#SVGID_13_);}
	.st15{fill:url(#SVGID_14_);}
	.st16{fill:url(#SVGID_15_);}
	.st17{fill:url(#SVGID_16_);}
	.st18{fill:url(#SVGID_17_);}
	.st19{fill:url(#SVGID_18_);}
	.st20{fill:url(#SVGID_19_);}
	.st21{fill:url(#SVGID_20_);}
	.st22{fill:url(#SVGID_21_);}
	.st23{fill:url(#SVGID_22_);}
	.st24{fill:url(#SVGID_23_);}
	.st25{fill:url(#SVGID_24_);}
	.st26{fill:url(#SVGID_25_);}
	.st27{fill:url(#SVGID_26_);}
	.st28{fill:url(#SVGID_27_);}
	.st29{fill:url(#SVGID_28_);}
	.st30{fill:url(#SVGID_29_);}
	.st31{fill:url(#SVGID_30_);}
	.st32{fill:url(#SVGID_31_);}
	.st33{fill:url(#SVGID_32_);}
	.st34{fill:url(#SVGID_33_);}
	.st35{fill:url(#SVGID_34_);}
	.st36{fill:url(#SVGID_35_);}
	.st37{fill:url(#SVGID_36_);}
	.st38{fill:url(#SVGID_37_);}
	.st39{fill:url(#SVGID_38_);}
	.st40{fill:url(#SVGID_39_);}
	.st41{fill:url(#SVGID_40_);}
	.st42{fill:url(#SVGID_41_);}
	.st43{fill:url(#SVGID_42_);}
	.st44{fill:url(#SVGID_43_);}
	.st45{fill:url(#SVGID_44_);}
	.st46{fill:url(#SVGID_45_);}
	.st47{fill:url(#SVGID_46_);}
	.st48{fill:url(#SVGID_47_);}
	.st49{fill:url(#SVGID_48_);}
	.st50{fill:url(#SVGID_49_);}
	.st51{fill:url(#SVGID_50_);}
	.st52{fill:url(#SVGID_51_);}
	.st53{fill:url(#SVGID_52_);}
	.st54{fill:url(#SVGID_53_);}
	.st55{fill:url(#SVGID_54_);}
	.st56{fill:url(#SVGID_55_);}
	.st57{fill:url(#SVGID_56_);}
	.st58{fill:url(#SVGID_57_);}
	.st59{fill:url(#SVGID_58_);}
	.st60{fill:url(#SVGID_59_);}
	.st61{fill:url(#SVGID_60_);}
	.st62{fill:url(#SVGID_61_);}
	.st63{fill:url(#SVGID_62_);}
	.st64{fill:url(#SVGID_63_);}
	.st65{fill:url(#SVGID_64_);}
	.st66{fill:url(#SVGID_65_);}
	.st67{fill:url(#SVGID_66_);}
	.st68{fill:url(#SVGID_67_);}
	.st69{fill:url(#SVGID_68_);}
	.st70{fill:url(#SVGID_69_);}
	.st71{fill:url(#SVGID_70_);}
	.st72{fill:url(#SVGID_71_);}
	.st73{fill:url(#SVGID_72_);}
	.st74{fill:url(#SVGID_73_);}
	.st75{fill:url(#SVGID_74_);}
	.st76{fill:url(#SVGID_75_);}
	.st77{fill:url(#SVGID_76_);}
	.st78{fill:url(#SVGID_77_);}
	.st79{fill:url(#SVGID_78_);}
	.st80{fill:url(#SVGID_79_);}
	.st81{fill:url(#SVGID_80_);}
	.st82{fill:url(#SVGID_81_);}
	.st83{fill:url(#SVGID_82_);}
	.st84{fill:url(#SVGID_83_);}
	.st85{fill:url(#SVGID_84_);}
	.st86{fill:url(#SVGID_85_);}
	.st87{fill:url(#SVGID_86_);}
	.st88{fill:url(#SVGID_87_);}
	.st89{fill:url(#SVGID_88_);}
	.st90{fill:url(#SVGID_89_);}
	.st91{fill:url(#SVGID_90_);}
	.st92{fill:url(#SVGID_91_);}
	.st93{fill:url(#SVGID_92_);}
	.st94{fill:url(#SVGID_93_);}
	.st95{fill:url(#SVGID_94_);}
	.st96{fill:url(#SVGID_95_);}
	.st97{fill:url(#SVGID_96_);}
	.st98{fill:url(#SVGID_97_);}
	.st99{fill:url(#SVGID_98_);}
	.st100{fill:url(#SVGID_99_);}
	.st101{fill:url(#SVGID_100_);}
	.st102{fill:url(#SVGID_101_);}
	.st103{fill:url(#SVGID_102_);}
	.st104{fill:url(#SVGID_103_);}
	.st105{fill:url(#SVGID_104_);}
	.st106{fill:url(#SVGID_105_);}
	.st107{fill:url(#SVGID_106_);}
	.st108{fill:url(#SVGID_107_);}
	.st109{fill:url(#SVGID_108_);}
	.st110{fill:url(#SVGID_109_);}
	.st111{fill:url(#SVGID_110_);}
	.st112{fill:url(#SVGID_111_);}
	.st113{fill:url(#SVGID_112_);}
	.st114{fill:url(#SVGID_113_);}
	.st115{fill:url(#SVGID_114_);}
	.st116{fill:url(#SVGID_115_);}
	.st117{fill:url(#SVGID_116_);}
	.st118{fill:url(#SVGID_117_);}
	.st119{fill:url(#SVGID_118_);}
	.st120{fill:url(#SVGID_119_);}
	.st121{fill:url(#SVGID_120_);}
	.st122{fill:url(#SVGID_121_);}
	.st123{fill:url(#SVGID_122_);}
	.st124{fill:url(#SVGID_123_);}
	.st125{fill:url(#SVGID_124_);}
	.st126{fill:url(#SVGID_125_);}
	.st127{fill:url(#SVGID_126_);}
	.st128{fill:url(#SVGID_127_);}
	.st129{fill:url(#SVGID_128_);}
	.st130{fill:url(#SVGID_129_);}
	.st131{fill:url(#SVGID_130_);}
	.st132{fill:url(#SVGID_131_);}
	.st133{fill:url(#SVGID_132_);}
	.st134{fill:url(#SVGID_133_);}
	.st135{fill:url(#SVGID_134_);}
	.st136{fill:url(#SVGID_135_);}
	.st137{fill:url(#SVGID_136_);}
	.st138{fill:url(#SVGID_137_);}
	.st139{fill:url(#SVGID_138_);}
	.st140{fill:url(#SVGID_139_);}
	.st141{fill:url(#SVGID_140_);}
	.st142{fill:url(#SVGID_141_);}
	.st143{fill:url(#SVGID_142_);}
	.st144{fill:url(#SVGID_143_);}
	.st145{fill:url(#SVGID_144_);}
	.st146{fill:url(#SVGID_145_);}
	.st147{fill:url(#SVGID_146_);}
	.st148{fill:url(#SVGID_147_);}
	.st149{fill:url(#SVGID_148_);}
	.st150{fill:url(#SVGID_149_);}
	.st151{fill:url(#SVGID_150_);}
	.st152{fill:url(#SVGID_151_);}
	.st153{fill:url(#SVGID_152_);}
	.st154{fill:url(#SVGID_153_);}
	.st155{fill:url(#SVGID_154_);}
	.st156{fill:url(#SVGID_155_);}
	.st157{fill:url(#SVGID_156_);}
	.st158{fill:url(#SVGID_157_);}
	.st159{fill:url(#SVGID_158_);}
	.st160{fill:url(#SVGID_159_);}
	.st161{fill:url(#SVGID_160_);}
	.st162{fill:url(#SVGID_161_);}
	.st163{fill:url(#SVGID_162_);}
	.st164{fill:url(#SVGID_163_);}
	.st165{fill:url(#SVGID_164_);}
	.st166{fill:url(#SVGID_165_);}
	.st167{fill:url(#SVGID_166_);}
	.st168{fill:url(#SVGID_167_);}
	.st169{fill:url(#SVGID_168_);}
	.st170{fill:url(#SVGID_169_);}
	.st171{fill:url(#SVGID_170_);}
	.st172{fill:url(#SVGID_171_);}
	.st173{fill:url(#SVGID_172_);}
	.st174{fill:url(#SVGID_173_);}
	.st175{fill:url(#SVGID_174_);}
	.st176{fill:url(#SVGID_175_);}
	.st177{fill:url(#SVGID_176_);}
	.st178{fill:url(#SVGID_177_);}
	.st179{fill:url(#SVGID_178_);}
	.st180{fill:url(#SVGID_179_);}
	.st181{fill:url(#SVGID_180_);}
	.st182{fill:url(#SVGID_181_);}
	.st183{fill:url(#SVGID_182_);}
	.st184{fill:url(#SVGID_183_);}
	.st185{fill:url(#SVGID_184_);}
	.st186{fill:url(#SVGID_185_);}
	.st187{fill:url(#SVGID_186_);}
	.st188{fill:url(#SVGID_187_);}
	.st189{fill:url(#SVGID_188_);}
	.st190{fill:url(#SVGID_189_);}
	.st191{fill:url(#SVGID_190_);}
	.st192{fill:url(#SVGID_191_);}
	.st193{fill:url(#SVGID_192_);}
	.st194{fill:url(#SVGID_193_);}
	.st195{fill:url(#SVGID_194_);}
	.st196{fill:url(#SVGID_195_);}
	.st197{fill:url(#SVGID_196_);}
	.st198{fill:url(#SVGID_197_);}
	.st199{fill:url(#SVGID_198_);}
	.st200{fill:url(#SVGID_199_);}
	.st201{fill:url(#SVGID_200_);}
	.st202{fill:url(#SVGID_201_);}
	.st203{fill:url(#SVGID_202_);}
	.st204{fill:url(#SVGID_203_);}
	.st205{fill:url(#SVGID_204_);}
	.st206{fill:url(#SVGID_205_);}
	.st207{fill:url(#SVGID_206_);}
	.st208{fill:url(#SVGID_207_);}
	.st209{fill:url(#SVGID_208_);}
	.st210{fill:url(#SVGID_209_);}
	.st211{fill:url(#SVGID_210_);}
	.st212{fill:url(#SVGID_211_);}
	.st213{fill:url(#SVGID_212_);}
	.st214{fill:url(#SVGID_213_);}
	.st215{fill:url(#SVGID_214_);}
	.st216{fill:url(#SVGID_215_);}
	.st217{fill:url(#SVGID_216_);}
	.st218{fill:url(#SVGID_217_);}
	.st219{fill:url(#SVGID_218_);}
	.st220{fill:url(#SVGID_219_);}
	.st221{fill:url(#SVGID_220_);}
	.st222{fill:url(#SVGID_221_);}
	.st223{fill:url(#SVGID_222_);}
	.st224{fill:url(#SVGID_223_);}
	.st225{fill:url(#SVGID_224_);}
	.st226{fill:url(#SVGID_225_);}
	.st227{fill:url(#SVGID_226_);}
	.st228{fill:url(#SVGID_227_);}
	.st229{fill:url(#SVGID_228_);}
	.st230{fill:url(#SVGID_229_);}
	.st231{fill:url(#SVGID_230_);}
	.st232{fill:url(#SVGID_231_);}
	.st233{fill:url(#SVGID_232_);}
	.st234{fill:url(#SVGID_233_);}
	.st235{fill:url(#SVGID_234_);}
	.st236{fill:url(#SVGID_235_);}
	.st237{fill:url(#SVGID_236_);}
	.st238{fill:url(#SVGID_237_);}
	.st239{fill:url(#SVGID_238_);}
	.st240{fill:url(#SVGID_239_);}
	.st241{fill:url(#SVGID_240_);}
	.st242{fill:url(#SVGID_241_);}
	.st243{fill:url(#SVGID_242_);}
	.st244{fill:url(#SVGID_243_);}
	.st245{fill:url(#SVGID_244_);}
	.st246{fill:url(#SVGID_245_);}
	.st247{fill:url(#SVGID_246_);}
	.st248{fill:url(#SVGID_247_);}
	.st249{fill:url(#SVGID_248_);}
	.st250{fill:url(#SVGID_249_);}
	.st251{fill:url(#SVGID_250_);}
	.st252{fill:url(#SVGID_251_);}
	.st253{fill:url(#SVGID_252_);}
	.st254{fill:url(#SVGID_253_);}
	.st255{fill:url(#SVGID_254_);}
	.st256{fill:url(#SVGID_255_);}
	.st257{fill:url(#SVGID_256_);}
	.st258{fill:url(#SVGID_257_);}
	.st259{fill:url(#SVGID_258_);}
	.st260{fill:url(#SVGID_259_);}
	.st261{fill:url(#SVGID_260_);}
	.st262{fill:url(#SVGID_261_);}
	.st263{fill:url(#SVGID_262_);}
	.st264{fill:url(#SVGID_263_);}
	.st265{fill:url(#SVGID_264_);}
	.st266{fill:url(#SVGID_265_);}
	.st267{fill:url(#SVGID_266_);}
	.st268{fill:url(#SVGID_267_);}
	.st269{fill:url(#SVGID_268_);}
	.st270{fill:url(#SVGID_269_);}
	.st271{fill:url(#SVGID_270_);}
	.st272{fill:url(#SVGID_271_);}
	.st273{fill:url(#SVGID_272_);}
	.st274{fill:url(#SVGID_273_);}
	.st275{fill:url(#SVGID_274_);}
	.st276{fill:url(#SVGID_275_);}
	.st277{fill:url(#SVGID_276_);}
	.st278{fill:url(#SVGID_277_);}
	.st279{fill:url(#SVGID_278_);}
	.st280{fill:url(#SVGID_279_);}
	.st281{fill:url(#SVGID_280_);}
	.st282{fill:url(#SVGID_281_);}
	.st283{fill:url(#SVGID_282_);}
	.st284{fill:url(#SVGID_283_);}
	.st285{fill:url(#SVGID_284_);}
	.st286{fill:url(#SVGID_285_);}
	.st287{fill:url(#SVGID_286_);}
	.st288{fill:url(#SVGID_287_);}
	.st289{fill:url(#SVGID_288_);}
	.st290{fill:url(#SVGID_289_);}
	.st291{fill:url(#SVGID_290_);}
	.st292{fill:url(#SVGID_291_);}
	.st293{fill:url(#SVGID_292_);}
	.st294{fill:url(#SVGID_293_);}
	.st295{fill:url(#SVGID_294_);}
	.st296{fill:url(#SVGID_295_);}
	.st297{fill:url(#SVGID_296_);}
	.st298{fill:none;stroke:#000000;stroke-width:1.6058;stroke-linecap:round;stroke-miterlimit:10;}
	.st299{opacity:0.1;clip-path:url(#SVGID_2_);fill:none;}
	.st300{clip-path:url(#SVGID_2_);fill:none;}
	.st301{fill:url(#XMLID_3_);}
	.st302{fill:url(#XMLID_4_);}
	.st303{fill:url(#XMLID_5_);}
	.st304{fill:url(#XMLID_6_);}
	.st305{fill:url(#XMLID_7_);}
	.st306{fill:url(#XMLID_8_);}
	.st307{fill:url(#XMLID_9_);}
	.st308{fill:url(#XMLID_10_);}
	.st309{fill:url(#XMLID_11_);}
	.st310{fill:url(#XMLID_12_);}
	.st311{fill:url(#XMLID_13_);}
	.st312{fill:url(#XMLID_14_);}
	.st313{fill:url(#XMLID_15_);}
	.st314{fill:url(#XMLID_16_);}
	.st315{fill:url(#XMLID_17_);}
	.st316{fill:url(#XMLID_18_);}
	.st317{fill:url(#XMLID_19_);}
	.st318{fill:url(#XMLID_20_);}
	.st319{fill:url(#XMLID_21_);}
	.st320{fill:url(#XMLID_22_);}
	.st321{fill:url(#XMLID_23_);}
	.st322{fill:url(#XMLID_24_);}
	.st323{fill:url(#XMLID_25_);}
	.st324{fill:url(#XMLID_26_);}
	.st325{fill:url(#XMLID_27_);}
	.st326{fill:url(#XMLID_28_);}
	.st327{fill:url(#XMLID_29_);}
	.st328{fill:url(#XMLID_30_);}
	.st329{fill:url(#XMLID_31_);}
	.st330{fill:url(#XMLID_32_);}
	.st331{fill:url(#XMLID_33_);}
	.st332{fill:url(#XMLID_34_);}
	.st333{fill:url(#XMLID_35_);}
	.st334{fill:url(#XMLID_36_);}
	.st335{fill:url(#XMLID_37_);}
	.st336{fill:url(#XMLID_38_);}
	.st337{fill:url(#XMLID_39_);}
	.st338{fill:url(#XMLID_40_);}
	.st339{fill:url(#XMLID_41_);}
	.st340{fill:url(#XMLID_42_);}
	.st341{fill:url(#XMLID_43_);}
	.st342{fill:url(#XMLID_44_);}
	.st343{fill:url(#XMLID_45_);}
	.st344{fill:url(#XMLID_46_);}
	.st345{fill:url(#XMLID_47_);}
	.st346{fill:url(#XMLID_48_);}
	.st347{fill:url(#XMLID_49_);}
	.st348{fill:url(#XMLID_50_);}
	.st349{fill:url(#XMLID_51_);}
	.st350{fill:url(#XMLID_52_);}
	.st351{fill:url(#XMLID_53_);}
	.st352{fill:url(#XMLID_54_);}
	.st353{fill:url(#XMLID_55_);}
	.st354{fill:url(#XMLID_56_);}
	.st355{fill:url(#XMLID_57_);}
	.st356{fill:url(#XMLID_58_);}
	.st357{fill:url(#XMLID_59_);}
	.st358{fill:url(#XMLID_60_);}
	.st359{fill:url(#XMLID_61_);}
	.st360{fill:url(#XMLID_62_);}
	.st361{fill:url(#XMLID_63_);}
	.st362{fill:url(#XMLID_64_);}
	.st363{fill:url(#XMLID_65_);}
	.st364{fill:url(#XMLID_66_);}
	.st365{fill:url(#XMLID_67_);}
	.st366{fill:url(#XMLID_68_);}
	.st367{fill:url(#XMLID_69_);}
	.st368{fill:url(#XMLID_70_);}
	.st369{fill:url(#XMLID_71_);}
	.st370{fill:url(#XMLID_72_);}
	.st371{fill:url(#XMLID_73_);}
	.st372{fill:url(#XMLID_74_);}
	.st373{fill:url(#XMLID_75_);}
	.st374{fill:url(#XMLID_76_);}
	.st375{fill:url(#XMLID_77_);}
	.st376{fill:url(#XMLID_78_);}
	.st377{fill:url(#XMLID_79_);}
	.st378{fill:url(#XMLID_80_);}
	.st379{fill:url(#XMLID_81_);}
	.st380{fill:url(#XMLID_82_);}
	.st381{fill:url(#XMLID_83_);}
	.st382{fill:url(#XMLID_84_);}
	.st383{fill:url(#XMLID_85_);}
	.st384{fill:url(#XMLID_86_);}
	.st385{fill:url(#XMLID_87_);}
	.st386{fill:url(#XMLID_88_);}
	.st387{fill:url(#XMLID_89_);}
	.st388{fill:url(#XMLID_90_);}
	.st389{fill:url(#XMLID_91_);}
	.st390{fill:url(#XMLID_92_);}
	.st391{fill:url(#XMLID_93_);}
	.st392{fill:url(#XMLID_94_);}
	.st393{fill:url(#XMLID_95_);}
	.st394{fill:url(#XMLID_148_);}
	.st395{fill:url(#XMLID_153_);}
	.st396{fill:url(#XMLID_154_);}
	.st397{fill:url(#XMLID_155_);}
	.st398{fill:url(#XMLID_156_);}
	.st399{fill:url(#XMLID_157_);}
	.st400{fill:url(#XMLID_158_);}
	.st401{fill:url(#XMLID_159_);}
	.st402{fill:url(#XMLID_160_);}
	.st403{fill:url(#XMLID_161_);}
	.st404{fill:url(#XMLID_162_);}
	.st405{fill:url(#XMLID_163_);}
	.st406{fill:url(#XMLID_164_);}
	.st407{fill:url(#XMLID_165_);}
	.st408{fill:url(#XMLID_166_);}
	.st409{fill:url(#XMLID_167_);}
	.st410{fill:url(#XMLID_168_);}
	.st411{fill:url(#XMLID_169_);}
	.st412{fill:url(#XMLID_170_);}
	.st413{fill:url(#XMLID_171_);}
	.st414{fill:url(#XMLID_172_);}
	.st415{fill:url(#XMLID_173_);}
	.st416{fill:url(#XMLID_174_);}
	.st417{fill:url(#XMLID_175_);}
	.st418{fill:url(#XMLID_176_);}
	.st419{fill:url(#XMLID_177_);}
	.st420{fill:url(#XMLID_178_);}
	.st421{fill:url(#XMLID_179_);}
	.st422{fill:url(#XMLID_180_);}
	.st423{fill:url(#XMLID_181_);}
	.st424{fill:url(#XMLID_182_);}
	.st425{fill:url(#XMLID_183_);}
	.st426{fill:url(#XMLID_184_);}
	.st427{fill:url(#XMLID_185_);}
	.st428{fill:url(#XMLID_186_);}
	.st429{fill:url(#XMLID_187_);}
	.st430{fill:url(#XMLID_188_);}
	.st431{fill:url(#XMLID_189_);}
	.st432{fill:url(#XMLID_190_);}
	.st433{fill:url(#XMLID_191_);}
	.st434{fill:url(#XMLID_192_);}
	.st435{fill:url(#XMLID_193_);}
	.st436{fill:url(#XMLID_194_);}
	.st437{fill:url(#XMLID_195_);}
	.st438{fill:url(#XMLID_196_);}
	.st439{fill:url(#XMLID_197_);}
	.st440{fill:url(#XMLID_198_);}
	.st441{fill:url(#XMLID_199_);}
	.st442{fill:url(#XMLID_200_);}
	.st443{fill:url(#XMLID_201_);}
	.st444{fill:url(#XMLID_202_);}
	.st445{fill:url(#XMLID_203_);}
	.st446{fill:url(#XMLID_204_);}
	.st447{fill:url(#XMLID_205_);}
	.st448{fill:url(#XMLID_206_);}
	.st449{fill:url(#XMLID_207_);}
	.st450{fill:url(#XMLID_208_);}
	.st451{fill:url(#XMLID_209_);}
	.st452{fill:url(#XMLID_210_);}
	.st453{fill:url(#XMLID_253_);}
	.st454{fill:url(#XMLID_254_);}
	.st455{fill:url(#XMLID_255_);}
	.st456{fill:url(#XMLID_256_);}
	.st457{fill:url(#XMLID_257_);}
	.st458{fill:url(#XMLID_258_);}
	.st459{fill:url(#XMLID_259_);}
	.st460{fill:url(#XMLID_260_);}
	.st461{fill:url(#XMLID_261_);}
	.st462{fill:url(#XMLID_262_);}
	.st463{fill:url(#XMLID_263_);}
	.st464{fill:url(#XMLID_264_);}
	.st465{fill:url(#XMLID_265_);}
	.st466{fill:url(#XMLID_266_);}
	.st467{fill:url(#XMLID_267_);}
	.st468{opacity:0.35;fill:url(#XMLID_268_);}
	.st469{opacity:0.35;fill:url(#XMLID_269_);}
	.st470{clip-path:url(#XMLID_270_);}
	.st471{fill:url(#XMLID_271_);}
	.st472{fill:url(#XMLID_272_);}
	.st473{opacity:0.27;}
	.st474{fill:url(#XMLID_273_);}
	.st475{fill:url(#XMLID_274_);}
	.st476{fill:url(#XMLID_275_);}
	.st477{fill:url(#XMLID_276_);}
	.st478{fill:url(#XMLID_277_);}
	.st479{fill:url(#XMLID_278_);}
	.st480{fill:url(#XMLID_279_);}
	.st481{fill:url(#XMLID_280_);}
	.st482{fill:url(#XMLID_281_);}
	.st483{fill:url(#XMLID_282_);}
	.st484{fill:url(#XMLID_283_);}
	.st485{fill:url(#XMLID_284_);}
	.st486{fill:url(#XMLID_285_);}
	.st487{fill:url(#XMLID_286_);}
	.st488{fill:url(#XMLID_287_);}
	.st489{fill:url(#XMLID_288_);}
	.st490{fill:url(#XMLID_289_);}
	.st491{fill:url(#XMLID_290_);}
	.st492{fill:url(#XMLID_291_);}
	.st493{fill:url(#XMLID_292_);}
	.st494{fill:url(#XMLID_293_);}
	.st495{fill:url(#XMLID_294_);}
	.st496{fill:url(#XMLID_295_);}
	.st497{fill:url(#XMLID_296_);}
	.st498{fill:url(#XMLID_297_);}
	.st499{fill:url(#XMLID_298_);}
	.st500{fill:url(#XMLID_299_);}
	.st501{fill:url(#XMLID_300_);}
	.st502{fill:url(#XMLID_301_);}
	.st503{fill:url(#XMLID_302_);}
	.st504{fill:url(#XMLID_303_);}
	.st505{fill:url(#XMLID_304_);}
	.st506{fill:url(#XMLID_305_);}
	.st507{fill:url(#XMLID_306_);}
	.st508{fill:url(#XMLID_307_);}
	.st509{fill:url(#XMLID_308_);}
	.st510{fill:url(#XMLID_373_);}
	.st511{fill:url(#XMLID_374_);}
	.st512{fill:url(#XMLID_375_);}
	.st513{fill:url(#XMLID_376_);}
	.st514{fill:url(#XMLID_377_);}
	.st515{fill:url(#XMLID_378_);}
	.st516{fill:url(#XMLID_379_);}
	.st517{fill:url(#XMLID_380_);}
	.st518{fill:url(#XMLID_381_);}
	.st519{fill:url(#XMLID_382_);}
	.st520{fill:url(#XMLID_383_);}
	.st521{fill:url(#XMLID_384_);}
	.st522{fill:url(#XMLID_385_);}
	.st523{fill:url(#XMLID_386_);}
	.st524{fill:url(#XMLID_387_);}
	.st525{fill:url(#XMLID_388_);}
	.st526{fill:url(#XMLID_389_);}
	.st527{fill:url(#XMLID_390_);}
	.st528{fill:url(#XMLID_391_);}
	.st529{fill:url(#XMLID_392_);}
	.st530{fill:url(#XMLID_393_);}
	.st531{fill:url(#XMLID_394_);}
	.st532{fill:url(#XMLID_395_);}
	.st533{fill:url(#XMLID_396_);}
	.st534{fill:url(#XMLID_397_);}
	.st535{fill:url(#XMLID_398_);}
	.st536{fill:url(#XMLID_399_);}
	.st537{fill:url(#XMLID_400_);}
	.st538{fill:url(#XMLID_401_);}
	.st539{fill:url(#XMLID_402_);}
	.st540{fill:url(#XMLID_403_);}
	.st541{opacity:0.21;fill:url(#XMLID_404_);}
	.st542{fill:url(#XMLID_405_);}
	.st543{fill:url(#XMLID_406_);}
	.st544{fill:url(#XMLID_407_);}
	.st545{fill:url(#XMLID_408_);}
	.st546{fill:url(#XMLID_409_);}
	.st547{fill:url(#XMLID_410_);}
	.st548{fill:url(#XMLID_411_);}
	.st549{fill:url(#XMLID_412_);}
	.st550{fill:url(#XMLID_413_);}
	.st551{fill:url(#XMLID_414_);}
	.st552{opacity:0.15;fill:url(#XMLID_415_);}
	.st553{fill:url(#XMLID_416_);}
	.st554{fill:url(#XMLID_417_);}
	.st555{fill:url(#XMLID_418_);}
	.st556{fill:url(#XMLID_419_);}
	.st557{opacity:0.1;fill:url(#XMLID_420_);}
	.st558{fill:url(#XMLID_421_);}
	.st559{fill:url(#XMLID_422_);}
	.st560{fill:url(#XMLID_423_);}
	.st561{fill:url(#XMLID_424_);}
	.st562{fill:#1877F2;}
</style>
<path class="st562" d="M0,162C0,108,0,54,0,0c104,0,208,0,312,0c0,54,0,108,0,162C208,162,104,162,0,162z M28.9,112.4
	c11.8,2,19.7,7.8,21.9,19.1c1,4.9,3,5.5,7.2,5.5c64.8-0.1,129.6-0.1,194.4-0.1c2,0,3.9,0,4.4,0c3.4-6.6,5.3-13,9.5-17.3
	c4.1-4.2,10.5-6.3,16.4-9.5c0-19.9,0-40.8,0-61.8c-11-1.8-18.9-7.2-21.5-17.9c-1.1-4.6-3-5.6-7.3-5.6C189.1,25.1,124.3,25,59.5,25
	c-2,0-3.9,0-5.7,0c-0.4,1-0.6,1.4-0.7,1.9C50.8,38.9,44.1,46.2,32,48.7c-1.3,0.3-2.9,2.9-3,4.5c-0.2,12.3-0.1,24.7-0.1,37
	C28.9,97.5,28.9,104.8,28.9,112.4z"/>
<path d="M28.9,112.4c0-7.7,0-15,0-22.3c0-12.3-0.1-24.7,0.1-37c0-1.6,1.7-4.2,3-4.5c12.1-2.4,18.9-9.8,21.1-21.7
	c0.1-0.5,0.3-0.9,0.7-1.9c1.8,0,3.8,0,5.7,0c64.8,0,129.6,0,194.4-0.1c4.4,0,6.2,0.9,7.3,5.6c2.6,10.7,10.5,16.1,21.5,17.9
	c0,21,0,41.9,0,61.8c-5.9,3.3-12.3,5.3-16.4,9.5c-4.1,4.3-6,10.7-9.5,17.3c-0.5,0-2.5,0-4.4,0c-64.8,0-129.6,0-194.4,0.1
	c-4.3,0-6.3-0.6-7.2-5.5C48.6,120.3,40.7,114.4,28.9,112.4z M156,31.8c-27.5,0-49.1,21.7-49.2,49.2c0,27.9,21.8,49.4,50.1,49.3
	c26.5-0.1,48.2-22.2,48.2-49.2C205.1,53.5,183.4,31.8,156,31.8z"/>
<path class="st562" d="M156,31.8c27.4,0,49.1,21.8,49.1,49.3c0.1,27-21.7,49.1-48.2,49.2c-28.3,0.1-50.1-21.4-50.1-49.3
	C106.9,53.4,128.6,31.7,156,31.8z M154,54.4c-11.1,3-14.9,7.8-14.1,17.1c0.5,6.1,4.7,9.3,9.5,11.9c3.2,1.7,6.9,2.8,9.7,5
	c1.5,1.2,2.1,4.3,1.9,6.5c-0.1,1.1-2.9,3.1-4.1,2.9c-2.1-0.4-4.1-2-5.7-3.6c-0.9-0.9-1-2.7-1.4-3.9c-4.1,0-7.8,0-11.5,0
	c-0.6,8,3.1,13.3,10.1,16.3c2.5,1.1,4.7,3.1,7,4.8c-0.2,0.5-0.5,0.9-0.7,1.4c2.6,0.4,5.3,1.2,5.6-3.2c0.1-0.9,2.1-2,3.5-2.5
	c5.4-2,9.2-5.5,10.2-11.2c1-5.7-0.8-10.7-5.5-14.1c-2.8-2-6-3.4-9.1-5.1c-1.9-1.1-4.3-1.8-5.4-3.4c-1.1-1.7-1.5-4.3-1.1-6.3
	c0.2-1.1,3-2.8,4.1-2.5c1.7,0.5,3.1,2.4,4.4,3.9c0.7,0.8,0.7,2.1,1.1,3.3c3.9,0,7.7,0,11.4,0c0.9-8.5-2.8-13.3-12.9-17.2
	c-0.2-1.6-0.5-3.2-0.7-4.8C155.4,48,153.6,49.7,154,54.4z"/>
<path d="M154,54.4c-0.3-4.6,1.5-6.4,6.1-4.8c0.2,1.6,0.5,3.2,0.7,4.8c10.1,3.9,13.8,8.8,12.9,17.2c-3.7,0-7.5,0-11.4,0
	c-0.3-1.1-0.4-2.4-1.1-3.3c-1.2-1.5-2.6-3.4-4.4-3.9c-1.1-0.3-3.9,1.3-4.1,2.5c-0.4,2,0,4.7,1.1,6.3c1.1,1.6,3.5,2.3,5.4,3.4
	c3,1.7,6.3,3.1,9.1,5.1c4.7,3.4,6.5,8.4,5.5,14.1c-1,5.8-4.8,9.3-10.2,11.2c-1.3,0.5-3.4,1.6-3.5,2.5c-0.3,4.3-3,3.5-5.6,3.2
	c0.2-0.5,0.5-0.9,0.7-1.4c-2.3-1.6-4.4-3.7-7-4.8c-7.1-2.9-10.7-8.3-10.1-16.3c3.7,0,7.4,0,11.5,0c0.4,1.2,0.5,3,1.4,3.9
	c1.6,1.6,3.6,3.2,5.7,3.6c1.2,0.2,4-1.7,4.1-2.9c0.2-2.2-0.4-5.3-1.9-6.5c-2.8-2.2-6.5-3.3-9.7-5c-4.8-2.6-9-5.7-9.5-11.9
	C139.1,62.1,142.8,57.4,154,54.4z"/>
</svg>
