<svg width="25" height="25" viewBox="0 0 25 25" fill="none" xmlns="http://www.w3.org/2000/svg">
<path d="M21.8802 9.06689C21.8802 10.1686 21.8802 11.2353 21.8802 12.3022C21.8802 12.5941 21.8824 12.8861 21.8824 13.178C21.8824 15.8641 21.8824 18.5501 21.8824 21.2361C21.8824 21.5768 21.8948 21.9184 21.8542 22.2576C21.788 22.8108 21.5843 23.3106 21.2473 23.7548C20.7741 24.3785 20.1496 24.7676 19.3883 24.9382C19.1629 24.9886 18.9324 24.9975 18.7008 24.9975C15.6106 24.9963 12.5204 24.997 9.43051 24.997C7.3048 24.997 5.17909 25.0061 3.05337 24.9923C2.0501 24.9856 1.24263 24.5461 0.633451 23.7548C0.192881 23.1823 -0.00317518 22.5275 3.88557e-05 21.8027C0.00795033 20.0931 0.00251119 18.3835 0.00251119 16.6739C0.00251119 13.9265 0.00251119 11.1792 0.00251119 8.43184C0.00251119 7.6947 -0.00243348 6.95781 0.00399459 6.22067C0.0114116 5.3671 0.325151 4.64034 0.929142 4.03644C1.47701 3.4884 2.14009 3.19103 2.908 3.13565C3.21852 3.11316 3.53177 3.12824 3.84353 3.12824C6.50945 3.12774 9.17512 3.12799 11.841 3.12774C13.1499 3.12774 14.4585 3.12774 15.7674 3.12774C15.8111 3.12774 15.8549 3.12774 15.931 3.12774C15.8368 3.2239 15.7644 3.2988 15.691 3.37247C15.2763 3.78875 14.8605 4.20379 14.4474 4.62155C14.39 4.67965 14.3262 4.69522 14.2493 4.69497C13.3148 4.69176 12.3803 4.6878 11.4457 4.68805C9.23742 4.68854 7.02913 4.69102 4.8206 4.69349C4.22353 4.69423 3.62621 4.6836 3.02988 4.70436C2.49092 4.72315 2.08521 4.99235 1.79644 5.4467C1.62906 5.70971 1.56898 5.99745 1.56898 6.30224C1.56874 9.0088 1.56898 11.7151 1.56898 14.4217C1.56898 16.1434 1.56898 17.8654 1.56898 19.5871C1.56898 20.3284 1.5722 21.0698 1.56775 21.8109C1.56503 22.2595 1.70397 22.6484 2.02068 22.9702C2.31019 23.2646 2.66719 23.407 3.07315 23.4387C3.13867 23.4439 3.20493 23.4434 3.27069 23.4434C5.73833 23.4439 8.20596 23.4441 10.6736 23.4441C13.3259 23.4441 15.9785 23.4434 18.6308 23.4439C19.239 23.4439 19.732 23.2219 20.0702 22.702C20.2213 22.4699 20.3026 22.2138 20.3029 21.9352C20.3038 21.2974 20.3043 20.6597 20.3043 20.0217C20.3043 18.0854 20.3043 16.1493 20.3043 14.213C20.3043 13.3409 20.3043 12.4691 20.3043 11.597C20.3043 11.3142 20.3075 11.0311 20.3024 10.7483C20.3009 10.6675 20.3256 10.6094 20.3805 10.555C20.7511 10.1872 21.1205 9.81812 21.4906 9.4498C21.6137 9.32744 21.7383 9.20656 21.88 9.06739L21.8802 9.06689Z" fill="currentColor"/>
<path d="M25 2.89514C25.0025 3.44416 24.7852 3.89703 24.402 4.27944C23.8012 4.87889 23.2024 5.48032 22.6014 6.07977C21.9356 6.74374 21.2673 7.40499 20.6022 8.06971C20.0128 8.65878 19.4269 9.25131 18.838 9.84087C18.3302 10.3494 17.8194 10.8551 17.3113 11.3631C16.6116 12.0624 15.9134 12.7632 15.2143 13.4628C14.4661 14.2113 13.7178 14.9596 12.9689 15.7073C12.6512 16.0245 12.3303 16.3384 12.0143 16.6573C11.8944 16.7784 11.7416 16.836 11.5903 16.8959C10.8165 17.2016 10.0412 17.5037 9.26682 17.8083C8.73304 18.0184 8.19754 18.2248 7.66771 18.4443C7.45237 18.5335 7.24247 18.5899 7.01131 18.5261C6.56382 18.4023 6.32573 17.8936 6.5025 17.4657C6.7171 16.9465 6.91612 16.421 7.12306 15.8989C7.32678 15.385 7.53297 14.8718 7.73694 14.3581C7.88033 13.9965 8.02348 13.6348 8.16416 13.2722C8.24426 13.0658 8.40595 12.9254 8.55627 12.7753C9.12491 12.2073 9.69429 11.64 10.2632 11.0719C10.7994 10.5362 11.3362 10.0011 11.8712 9.46414C12.4326 8.90078 12.9911 8.33445 13.5536 7.77208C14.1655 7.16052 14.7816 6.55315 15.3935 5.94159C15.9617 5.37353 16.5253 4.80127 17.0932 4.23297C17.5919 3.73412 18.0953 3.23998 18.594 2.74138C19.1621 2.17332 19.7218 1.59711 20.2966 1.03597C20.5595 0.77938 20.7899 0.48398 21.111 0.291166C21.6782 -0.0494709 22.2634 -0.0919887 22.877 0.168309C23.1866 0.299571 23.4138 0.526992 23.6437 0.754413C23.9238 1.03152 24.1965 1.31654 24.4732 1.59735C24.8282 1.95752 24.998 2.39234 25.0003 2.89563L25 2.89514ZM8.61734 16.3901C8.7192 16.331 8.7993 16.3162 8.87347 16.287C9.50614 16.0378 10.1393 15.7892 10.7685 15.5318C10.8902 15.4821 11.0192 15.4453 11.1206 15.342C11.6323 14.8202 12.1513 14.3052 12.6675 13.7879C13.3899 13.0641 14.1111 12.339 14.8348 11.6165C15.6136 10.8386 16.3956 10.0641 17.1741 9.28591C17.7904 8.6699 18.4021 8.04968 19.0182 7.43318C19.7933 6.65772 20.5703 5.88424 21.3466 5.11002C22.0063 4.45174 22.6659 3.79345 23.3255 3.13492C23.478 2.98264 23.4788 2.80639 23.3181 2.64868C22.9915 2.32831 22.6674 2.00572 22.3524 1.67399C22.2278 1.54272 21.9988 1.54396 21.8742 1.66954C21.2935 2.25465 20.7137 2.84051 20.1315 3.42414C19.4135 4.14373 18.6941 4.86159 17.9746 5.57994C17.3276 6.22611 16.6801 6.87204 16.0326 7.51796C15.5243 8.02496 15.015 8.53098 14.5072 9.03847C13.941 9.60406 13.3763 10.1711 12.8107 10.7367C12.3026 11.2449 11.7935 11.7519 11.285 12.2599C10.7856 12.7588 10.2842 13.2559 9.78873 13.7589C9.70195 13.8469 9.59564 13.9181 9.54619 14.0442C9.24432 14.815 8.93751 15.5837 8.61758 16.3906L8.61734 16.3901Z" fill="currentColor"/>
</svg>
