<?xml version="1.0" encoding="UTF-8"?>
<svg xmlns="http://www.w3.org/2000/svg" xmlns:xlink="http://www.w3.org/1999/xlink" width="30px" height="30px" viewBox="0 0 30 30" version="1.1">
<g id="surface1">
<path style=" stroke:none;fill-rule:nonzero;fill:currentColor;fill-opacity:1;" d="M 16.199219 0 C 16.199219 0.601562 16.199219 1.199219 16.199219 2 C 19.601562 2.398438 21.800781 4.199219 22.601562 8 C 21.199219 8.199219 19.800781 8.398438 18.398438 8.601562 C 18 7.199219 17.601562 6.398438 16.398438 5.800781 C 16.398438 8 16.398438 10.199219 16.398438 12.398438 C 17.199219 12.601562 17.800781 13 18.601562 13.199219 C 22 14.601562 23.601562 16.800781 23.398438 20.199219 C 23.199219 23.601562 21.199219 26.199219 17.800781 27.199219 C 17.800781 27.199219 17.601562 27.199219 17.398438 27.199219 C 16.199219 27.398438 16.199219 27.398438 16.199219 28.800781 C 16.199219 29.199219 16.199219 29.601562 16.199219 30 C 15.398438 30 14.800781 30 14 30 C 14 29.199219 14 28.601562 14 27.601562 C 9.800781 27 7.398438 24.398438 6.800781 20.199219 C 8 20 9.398438 20 10.800781 19.800781 C 11 19.800781 11.199219 20 11.199219 20.199219 C 11.601562 21.398438 12.199219 22.398438 13.398438 23.199219 C 13.398438 23.199219 13.601562 23.199219 13.800781 23.398438 C 13.800781 23 13.800781 22.800781 13.800781 22.601562 C 13.800781 20.601562 13.800781 18.800781 13.800781 16.800781 C 13.800781 16.398438 13.601562 16.199219 13.199219 16 C 11.800781 15.601562 10.199219 14.800781 9.199219 13.601562 C 7.199219 11.398438 7 9 7.601562 6.398438 C 8.199219 3.800781 10.398438 2.398438 13 2 C 13.199219 2 13.199219 2 13.398438 2 C 13.398438 2 13.398438 2 13.601562 2 C 13.601562 1.398438 13.601562 0.800781 13.601562 0 C 14.601562 0 15.398438 0 16.199219 0 Z M 16.398438 23.800781 C 17.800781 23.800781 19.199219 22.199219 19.199219 20.601562 C 19.199219 19 18.199219 17.601562 16.398438 17.199219 C 16.398438 19.398438 16.398438 21.601562 16.398438 23.800781 Z M 13.800781 11.601562 C 13.800781 9.601562 13.800781 7.800781 13.800781 6 C 12.398438 6.199219 11.601562 7.199219 11.601562 8.601562 C 11.601562 10 12.398438 11.199219 13.800781 11.601562 Z M 13.800781 11.601562 "/>
<path style=" stroke:none;fill-rule:nonzero;fill:currentColor;fill-opacity:1;" d="M 18.398438 8.398438 L 22.800781 8.398438 C 22.800781 8.398438 22.800781 8 22.800781 7.800781 C 22.398438 7.800781 18.398438 8.398438 18.398438 8.398438 Z M 18.398438 8.398438 "/>
<path style=" stroke:none;fill-rule:nonzero;fill:currentColor;fill-opacity:1;" d="M 11.199219 20.199219 L 11 19.800781 L 6.601562 19.800781 L 6.800781 20.398438 "/>
<path style=" stroke:none;fill-rule:nonzero;fill:currentColor;fill-opacity:1;" d="M 13.800781 0 L 16.601562 0 L 16.601562 30 L 13.800781 30 Z M 13.800781 0 "/>
</g>
</svg>
