<svg width="40" height="53" viewBox="0 0 40 53" fill="none" xmlns="http://www.w3.org/2000/svg">
<g clip-path="url(#clip0_575_882)">
<path d="M0 26.4693C0 18.6998 0 10.9304 0 3.16101C0 2.42367 0.061792 1.70681 0.542396 1.09918C1.14658 0.3277 1.94988 -8.68039e-06 2.91795 0.00681858C4.83351 0.0136458 6.74219 0.00681858 8.65774 0.00681858C14.8713 0.00681858 21.0779 0.0204731 27.2915 -0.00683594C28.4449 -0.00683594 29.3649 0.334527 30.1888 1.17428C33.0793 4.12365 36.011 7.03207 38.9564 9.93365C39.6842 10.6505 40.0069 11.4493 40.0069 12.4529C40 24.9536 40.0069 37.4475 40 49.9482C40 51.9622 38.9564 52.9932 36.9241 52.9932C25.6437 52.9932 14.3701 52.9932 3.0896 52.9932C1.02987 52.9932 0.00686577 51.9622 0.00686577 49.8936C0 42.09 0 34.2796 0 26.4693ZM1.77824 26.442C1.77824 34.2728 1.77824 42.0969 1.77824 49.9277C1.77824 50.945 2.046 51.2317 3.00721 51.2317C14.3426 51.2317 25.678 51.2317 37.0134 51.2317C37.9265 51.2317 38.2218 50.9382 38.2218 50.0233C38.2218 37.625 38.2218 25.2267 38.2355 12.8284C38.2355 12.3095 38.0433 12.2208 37.5833 12.2208C35.2969 12.2413 33.0106 12.2344 30.7243 12.2276C28.7264 12.2276 27.7309 11.2377 27.724 9.27141C27.724 7.05255 27.724 4.84052 27.724 2.62166C27.724 2.06182 27.4539 1.78191 26.9138 1.78191C19.0251 1.78191 11.1432 1.78191 3.25438 1.78191C1.98421 1.78191 1.7851 1.98672 1.7851 3.25659C1.7851 10.985 1.7851 18.7135 1.7851 26.4488L1.77824 26.442ZM29.5778 3.20198C29.4542 3.37948 29.4954 3.53651 29.4954 3.69354C29.4954 5.57786 29.4954 7.46218 29.4954 9.34651C29.4954 10.2204 29.7425 10.4662 30.6282 10.4662C32.5026 10.4662 34.3769 10.4662 36.2444 10.4662C36.4161 10.4662 36.6564 10.5549 36.7388 10.3911C36.8486 10.1726 36.5808 10.0702 36.4504 9.9473C34.3083 7.80355 32.1593 5.67344 30.0103 3.53651C29.8867 3.41362 29.7906 3.25659 29.5709 3.2088L29.5778 3.20198Z" fill="#1877F2"/>
<path d="M19.9794 26.1008C15.6059 26.1008 11.2255 26.1008 6.85201 26.1008C6.6529 26.1008 6.4538 26.1144 6.26155 26.0871C5.73289 26.0257 5.38274 25.6706 5.4102 25.1996C5.44453 24.7012 5.74662 24.4076 6.23409 24.353C6.60484 24.312 6.98246 24.3325 7.35321 24.3325C15.9698 24.3325 24.5863 24.3257 33.2029 24.3188C34.1297 24.3188 34.6035 24.6261 34.5897 25.2337C34.576 25.8277 34.1503 26.1008 33.2303 26.1008C28.8156 26.1008 24.4009 26.1008 19.9794 26.1008Z" fill="#1877F2"/>
<path d="M19.9589 39.0588C15.5648 39.0588 11.1639 39.0588 6.76977 39.0588C5.84289 39.0588 5.42407 38.7925 5.40348 38.1985C5.38288 37.5909 5.85662 37.2837 6.7835 37.2837C15.5992 37.2837 24.4079 37.2837 33.2236 37.2837C34.123 37.2837 34.5762 37.5704 34.5899 38.1576C34.6036 38.772 34.1642 39.0588 33.2099 39.0588C28.7952 39.0588 24.3805 39.0588 19.9589 39.0588Z" fill="#1877F2"/>
<path d="M25.9665 17.853C28.4313 17.853 30.8961 17.853 33.3609 17.853C33.5394 17.853 33.7179 17.8599 33.8896 17.9008C34.329 18.0032 34.583 18.2968 34.583 18.7337C34.583 19.2048 34.3084 19.4984 33.8415 19.594C33.6493 19.6281 33.4502 19.6213 33.2511 19.6281C28.3626 19.6281 23.4742 19.6281 18.5858 19.6281C17.6657 19.6281 17.2469 19.3482 17.2401 18.7542C17.2332 18.1466 17.7001 17.8599 18.6338 17.8599C21.078 17.8599 23.5222 17.8599 25.9665 17.8599V17.853Z" fill="#1877F2"/>
<path d="M14.068 32.5798C11.6238 32.5798 9.1796 32.5798 6.73538 32.5798C6.50195 32.5798 6.26164 32.5729 6.03507 32.5115C5.62313 32.4023 5.41029 32.095 5.41715 31.6786C5.41715 31.2963 5.62313 30.9959 6.00761 30.8866C6.21358 30.8252 6.43329 30.8047 6.64613 30.8047C11.5964 30.8047 16.5397 30.8047 21.4899 30.8047C21.7028 30.8047 21.9293 30.8183 22.1284 30.873C22.5404 30.989 22.7532 31.2894 22.7464 31.7059C22.7395 32.1155 22.5129 32.4159 22.101 32.5183C21.895 32.5661 21.6753 32.5729 21.4556 32.5729C18.9908 32.5729 16.526 32.5729 14.0612 32.5729L14.068 32.5798Z" fill="#1877F2"/>
<path d="M12.3102 12.2141C10.4359 12.2141 8.56152 12.2141 6.69403 12.2141C6.43999 12.2141 6.18596 12.2209 5.93879 12.1185C5.58864 11.9683 5.41699 11.6884 5.41699 11.3333C5.41699 10.9783 5.58864 10.6916 5.93879 10.5482C6.1585 10.4526 6.39193 10.439 6.63223 10.439C10.4359 10.439 14.2395 10.439 18.0432 10.439C18.1805 10.439 18.3178 10.439 18.4551 10.4594C18.9426 10.5414 19.2447 10.8145 19.2653 11.3197C19.2859 11.7839 18.9288 12.1663 18.4002 12.1867C17.6724 12.2209 16.9446 12.2004 16.21 12.2004C14.9055 12.2004 13.6079 12.2004 12.3034 12.2004L12.3102 12.2141Z" fill="#1877F2"/>
<path d="M9.98288 19.6282C8.8363 19.6282 7.69658 19.6282 6.54999 19.6282C5.80162 19.6282 5.38968 19.2869 5.40341 18.727C5.41714 18.1945 5.82909 17.8668 6.5294 17.8668C8.85689 17.8668 11.1844 17.86 13.5119 17.8668C14.2191 17.8668 14.6173 18.1945 14.6241 18.7407C14.6241 19.2869 14.2328 19.6214 13.5256 19.6282C12.3447 19.6419 11.1569 19.6282 9.97601 19.6282H9.98288Z" fill="#1877F2"/>
<path d="M29.9484 30.8113C31.1499 30.8113 32.3515 30.7977 33.5598 30.8113C34.3769 30.825 34.8163 31.4668 34.4798 32.1017C34.3013 32.4362 33.9992 32.566 33.6491 32.566C31.2049 32.5728 28.7607 32.5796 26.3164 32.566C25.7329 32.566 25.3827 32.1973 25.3758 31.7057C25.369 31.1937 25.7328 30.825 26.3508 30.8113C27.5523 30.7909 28.7538 30.8113 29.9622 30.8113H29.9484Z" fill="#1877F2"/>
<path d="M29.9967 45.531C28.7952 45.531 27.5937 45.5447 26.3853 45.531C25.5683 45.5174 25.1426 44.8756 25.479 44.2407C25.6575 43.9062 25.9733 43.7833 26.3166 43.7764C28.7609 43.7696 31.2051 43.7628 33.6493 43.7764C34.2191 43.7764 34.583 44.1656 34.583 44.6435C34.583 45.1487 34.2123 45.5174 33.6012 45.5242C32.3997 45.5447 31.1982 45.5242 29.9898 45.5242L29.9967 45.531Z" fill="#1877F2"/>
</g>
<defs>
<clipPath id="clip0_575_882">
<rect width="40" height="53" fill="white"/>
</clipPath>
</defs>
</svg>
