<svg
  width="36"
  height="36"
  viewBox="0 0 36 36"
  xmlns="http://www.w3.org/2000/svg"
>
  <!-- Background -->
  <rect
    x="0"
    y="0"
    width="36"
    height="36"
    rx="12"
    fill="currentColor"
  />

  <!-- Icon (centered) -->
  <g transform="translate(9.5 9.5)">
    <path
      d="M2.18329 9.87811C1.80858 9.20519 1.62158 8.86803 1.62158 8.5004C1.62158 8.13278 1.80858 7.79632 2.18329 7.1234L3.13812 5.40499L4.14821 3.71845C4.54417 3.05757 4.74179 2.72678 5.05983 2.54261C5.37858 2.35915 5.76321 2.35349 6.53316 2.34074L8.50021 2.30957L10.4658 2.34074C11.2365 2.35349 11.6211 2.35915 11.9392 2.54332C12.2572 2.72749 12.4562 3.05757 12.8515 3.71845L13.8623 5.40499L14.8185 7.1234C15.1925 7.79632 15.3795 8.13278 15.3795 8.5004C15.3795 8.86803 15.1925 9.20449 14.8178 9.8774L13.8623 11.5958L12.8522 13.2824C12.4562 13.9432 12.2586 14.274 11.9406 14.4582C11.6218 14.6417 11.2372 14.6473 10.4672 14.6601L8.50021 14.6912L6.53458 14.6601C5.76392 14.6473 5.37929 14.6417 5.06125 14.4575C4.74321 14.2733 4.54417 13.9432 4.14892 13.2824L3.13812 11.5958L2.18329 9.87811Z"
      stroke="white"
      stroke-width="0.7"
      fill="none"
    />
    <path
      d="M8.5 10.625C9.6736 10.625 10.625 9.6736 10.625 8.5C10.625 7.32639 9.6736 6.375 8.5 6.375C7.32639 6.375 6.375 7.32639 6.375 8.5C6.375 9.6736 7.32639 10.625 8.5 10.625Z"
      stroke="white"
      stroke-width="0.7"
      fill="none"
    />
  </g>
</svg>
