<?xml version="1.0" encoding="UTF-8"?>
<svg xmlns="http://www.w3.org/2000/svg" xmlns:xlink="http://www.w3.org/1999/xlink" width="29px" height="31px" viewBox="0 0 29 31" version="1.1">
<g id="surface1">
<path style=" stroke:none;fill-rule:nonzero;fill:currentColor;fill-opacity:1;" d="M 29 3.230469 L 29 28.605469 C 28.984375 28.628906 28.957031 28.652344 28.953125 28.675781 C 28.617188 30.199219 26.5 31.074219 24.8125 29.855469 C 23.992188 29.261719 23.105469 28.746094 22.277344 28.15625 C 21.964844 27.929688 21.800781 27.980469 21.546875 28.21875 C 20.800781 28.90625 20.03125 29.570312 19.269531 30.242188 C 18.121094 31.253906 16.679688 31.253906 15.539062 30.25 C 14.753906 29.558594 13.964844 28.867188 13.199219 28.164062 C 12.980469 27.964844 12.847656 27.964844 12.605469 28.128906 C 11.667969 28.765625 10.710938 29.378906 9.761719 29.996094 C 9.226562 30.34375 8.632812 30.515625 7.972656 30.429688 C 6.632812 30.257812 5.800781 29.351562 5.800781 28.082031 C 5.800781 24.460938 5.796875 20.839844 5.808594 17.214844 C 5.808594 16.90625 5.734375 16.800781 5.367188 16.808594 C 4.21875 16.828125 3.070312 16.78125 1.921875 16.816406 C 1.019531 16.847656 0.371094 16.589844 0 15.839844 L 0 3.316406 C 0.0820312 3.257812 0.0664062 3.171875 0.0898438 3.097656 C 0.511719 1.527344 1.601562 0.542969 3.339844 0.109375 C 3.492188 0.0742188 3.675781 0.117188 3.804688 0 C 10.964844 0 18.125 0 25.285156 0 C 25.371094 0.0234375 25.453125 0.0585938 25.542969 0.0742188 C 26.566406 0.226562 27.394531 0.679688 28.0625 1.378906 C 28.574219 1.917969 28.808594 2.566406 29 3.230469 Z M 8.699219 27.488281 C 9.636719 26.871094 10.488281 26.304688 11.351562 25.742188 C 12.539062 24.960938 13.769531 25.039062 14.816406 25.960938 C 15.5625 26.613281 16.308594 27.261719 17.03125 27.929688 C 17.296875 28.183594 17.460938 28.230469 17.757812 27.949219 C 18.484375 27.261719 19.25 26.613281 20.003906 25.953125 C 21.050781 25.039062 22.261719 24.960938 23.4375 25.71875 C 24.0625 26.125 24.675781 26.535156 25.296875 26.945312 C 25.542969 27.109375 25.792969 27.265625 26.101562 27.464844 L 26.101562 26.980469 C 26.101562 19.332031 26.101562 11.683594 26.101562 4.039062 C 26.101562 2.992188 25.65625 2.589844 24.492188 2.589844 C 19.40625 2.589844 14.316406 2.597656 9.230469 2.582031 C 8.78125 2.582031 8.6875 2.683594 8.6875 3.070312 C 8.703125 11.039062 8.699219 19.011719 8.699219 26.980469 Z M 2.898438 8.859375 C 2.898438 10.527344 2.90625 12.195312 2.890625 13.867188 C 2.890625 14.136719 2.957031 14.242188 3.285156 14.230469 C 3.980469 14.207031 4.675781 14.203125 5.371094 14.230469 C 5.734375 14.246094 5.808594 14.132812 5.808594 13.824219 C 5.796875 10.554688 5.800781 7.285156 5.800781 4.015625 C 5.800781 3.179688 5.210938 2.597656 4.375 2.59375 C 3.503906 2.589844 2.902344 3.167969 2.898438 4.011719 C 2.898438 5.628906 2.898438 7.246094 2.898438 8.855469 Z M 2.898438 8.859375 "/>
<path style=" stroke:none;fill-rule:nonzero;fill:currentColor;fill-opacity:1;" d="M 17.460938 7.761719 C 16.058594 7.761719 14.65625 7.765625 13.253906 7.761719 C 12.359375 7.757812 11.710938 7.226562 11.695312 6.496094 C 11.675781 5.75 12.324219 5.179688 13.234375 5.179688 C 16.070312 5.171875 18.90625 5.167969 21.742188 5.179688 C 22.609375 5.179688 23.269531 5.761719 23.257812 6.484375 C 23.246094 7.21875 22.597656 7.757812 21.710938 7.761719 C 20.296875 7.765625 18.875 7.761719 17.460938 7.761719 Z M 17.460938 7.761719 "/>
<path style=" stroke:none;fill-rule:nonzero;fill:currentColor;fill-opacity:1;" d="M 17.449219 11.640625 C 16.0625 11.640625 14.675781 11.640625 13.289062 11.640625 C 12.359375 11.640625 11.707031 11.113281 11.695312 10.367188 C 11.683594 9.605469 12.339844 9.058594 13.292969 9.054688 C 16.082031 9.050781 18.871094 9.050781 21.660156 9.054688 C 22.597656 9.058594 23.277344 9.621094 23.257812 10.371094 C 23.238281 11.121094 22.589844 11.640625 21.660156 11.640625 C 20.253906 11.640625 18.855469 11.640625 17.449219 11.640625 Z M 17.449219 11.640625 "/>
<path style=" stroke:none;fill-rule:nonzero;fill:currentColor;fill-opacity:1;" d="M 15.265625 15.515625 C 14.574219 15.515625 13.878906 15.523438 13.191406 15.515625 C 12.34375 15.507812 11.703125 14.957031 11.695312 14.242188 C 11.6875 13.519531 12.308594 12.945312 13.160156 12.9375 C 14.589844 12.921875 16.027344 12.921875 17.457031 12.9375 C 18.289062 12.945312 18.929688 13.550781 18.90625 14.253906 C 18.882812 14.964844 18.257812 15.507812 17.4375 15.515625 C 16.714844 15.523438 15.992188 15.515625 15.265625 15.515625 Z M 15.265625 15.515625 "/>
</g>
</svg>
