<?xml version="1.0" encoding="utf-8"?>
<!-- Generator: Adobe Illustrator 24.3.0, SVG Export Plug-In . SVG Version: 6.00 Build 0)  -->
<svg version="1.1" id="Layer_1" xmlns="http://www.w3.org/2000/svg" xmlns:xlink="http://www.w3.org/1999/xlink" x="0px" y="0px"
	 viewBox="0 0 1094 1200" style="enable-background:new 0 0 1094 1200;" xml:space="preserve">
<style type="text/css">
	.st0{fill:currentColor;}
</style>
<g>
	<g>
		<path class="st0" d="M220.1,109.2c0-21-0.6-38,0.1-55C221.7,23,244.1,1.1,274,0.8c30.5-0.3,52.8,20.6,54.5,52.2
			c0.9,17.6,0.2,35.4,0.2,54.6c146.1,0,289.6,0,436.9,0c0-14.7-0.2-29.7,0-44.7c0.5-39.6,21-62.6,55.1-62.1
			c32.6,0.5,53.2,24,53.6,61.3c0.2,14.4,0,28.8,0,47.1c17.7,0,34.3-0.1,50.9,0c94.3,0.7,166.6,68.9,167,163.4
			c1.3,254.5,1.3,509,0,763.4c-0.5,93.6-71.3,162.3-164.7,162.6c-253.7,0.7-507.3,0.7-761,0c-93.3-0.3-164-69.3-164.5-162.9
			c-1.2-254.5-1.3-509,0-763.4C2.5,178,74.9,109.9,169.4,109.3C185.4,109.1,201.3,109.2,220.1,109.2z M112.8,546.2
			c-0.4,9.7-1.1,17.2-1.1,24.8c-0.1,150.7-0.1,301.4,0,452.1c0,49,18.6,67.1,68.4,67.1c244.4,0,488.8,0,733.2,0
			c51.4,0,69.2-17.7,69.2-68.9c0.1-149,0.1-298,0-447c0-9-0.8-18-1.3-28.1C691.2,546.2,403.7,546.2,112.8,546.2z M982.6,434.8
			c0-51.4,0-101.4,0-151.4c0-6.8,0.3-13.8-1-20.4c-4.7-24.4-20-40.1-44.2-43.1c-19.9-2.5-40.3-0.5-63.2-0.5
			c0,17.3,0.3,33.2-0.1,49.2c-0.7,34.5-23.1,58.7-54.1,59c-30.8,0.3-53.6-23.9-54.5-58.3c-0.4-16.6-0.1-33.1-0.1-49
			c-148.1,0-291.5,0-436.8,0c0,18.3,0.4,34.5-0.1,50.5c-1.1,32.9-23.4,56.3-53.4,56.7c-30.9,0.5-54.2-23.8-55.1-57.9
			c-0.4-16.6-0.1-33.3-0.1-51.2c-21.6,0-39.5-1.2-57.1,0.3c-25.3,2.1-47.5,15.6-48.9,40.8c-3.2,58.2-1,116.6-1,175.3
			C403.6,434.8,691.8,434.8,982.6,434.8z"/>
		<path class="st0" d="M601.8,926.9c-0.1,29.8-26.4,55.4-56.1,54.5c-29-0.8-53.4-26-53.2-54.8c0.2-29.9,26.5-55.5,56.1-54.6
			C577.5,873,601.9,898,601.8,926.9z"/>
		<path class="st0" d="M274.7,654.9c30.3,0,53.3,22.6,53.8,52.8c0.5,31-23.5,55.6-54.1,55.6c-29.1,0-53.7-24.2-54.3-53.2
			C219.5,679.5,243.8,654.9,274.7,654.9z"/>
		<path class="st0" d="M765.7,709.8c-0.4-31.4,23-55.1,54.3-55c29.7,0.2,53.6,23.5,54.1,53c0.5,30.2-24.5,55.5-54.7,55.4
			C789.9,763.2,766.1,739.5,765.7,709.8z"/>
		<path class="st0" d="M547.2,654.9c29.7,0,53.9,23.4,54.6,52.8c0.8,30-24.4,55.6-54.7,55.6c-29.2,0-53.9-24-54.6-53.1
			C491.7,679.9,516.6,654.8,547.2,654.9z"/>
		<path class="st0" d="M328.5,926.2c0.2,30.7-24.6,55.7-54.8,55.3c-29-0.4-53.4-25-53.6-54.2c-0.2-30.3,25.1-55.6,55.1-55.2
			C304.5,872.5,328.3,896.7,328.5,926.2z"/>
		<path class="st0" d="M765.7,927.7c-0.4-30.7,24.2-56,54.3-55.7c29,0.2,53.5,24.6,54.1,53.8c0.5,30.1-24.6,55.7-54.7,55.7
			C790.3,981.4,766.1,957.2,765.7,927.7z"/>
	</g>
</g>
</svg>
