<svg width="253" height="42" viewBox="0 0 253 42" fill="none" xmlns="http://www.w3.org/2000/svg">
<path d="M2.078 37.6688H44.5711L33.9903 22.0612L34.1703 21.6221C34.8123 20.0484 35.1379 18.3942 35.1379 16.7084C35.1379 15.3182 34.9199 13.9047 34.4922 12.5061C33.8782 10.5107 32.7976 8.70795 31.2785 7.15002C29.7909 5.62362 27.9227 4.41927 25.7236 3.56851C23.6619 2.77336 21.4166 2.38657 18.8638 2.38657H2.0789V37.6679H2.07709L2.078 37.6688ZM48.3103 39.5753H0V0.481689H18.862C21.6951 0.481689 24.2026 0.917446 26.5266 1.8122C29.0133 2.77253 31.132 4.14039 32.8247 5.87844C34.5573 7.65549 35.7907 9.71144 36.4897 11.989C36.969 13.5561 37.2122 15.143 37.2122 16.7084C37.2122 18.4648 36.9012 20.1895 36.2881 21.8437L48.3093 39.577L48.3112 39.5753H48.3103Z" fill="white"/>
<path d="M5.40016 34.6168H38.5857L30.196 22.2413L30.4672 21.759C30.677 21.388 30.8651 21.0029 31.027 20.6119C31.546 19.3619 31.8092 18.0472 31.8092 16.7051C31.8092 15.5945 31.6337 14.4591 31.2883 13.3311C30.8136 11.7872 29.9753 10.3903 28.7953 9.181C27.6387 7.99491 26.1702 7.05202 24.4304 6.37888C22.7837 5.74475 20.9616 5.43515 18.8583 5.43515H5.39835V34.6143L5.40016 34.6168ZM42.3257 36.5233H3.32397V3.53027H18.8619C21.2456 3.53027 23.3317 3.88801 25.2388 4.6234C27.2661 5.40693 28.9842 6.51334 30.347 7.91191C31.7386 9.33953 32.7288 10.9904 33.2912 12.8165C33.6891 14.1138 33.889 15.4227 33.889 16.7076C33.889 18.2829 33.5797 19.8251 32.9711 21.2934C32.8509 21.5797 32.7207 21.8653 32.5787 22.145L42.3266 36.5241V36.5225L42.3257 36.5233Z" fill="white"/>
<path d="M8.72619 31.5666H32.6051L26.2029 22.1236L26.6505 21.5982C27.1849 20.9699 27.6144 20.2735 27.9237 19.5273C28.2972 18.6251 28.4889 17.6764 28.4889 16.7078C28.4889 15.8769 28.3559 15.0195 28.0928 14.1621C27.7564 13.069 27.1623 12.0779 26.3222 11.218C25.4976 10.3706 24.4278 9.68999 23.1483 9.1953C21.9158 8.72054 20.5151 8.48979 18.8639 8.48979H8.728V31.5683L8.72619 31.5666ZM36.3442 33.474H6.64819V6.58325H18.8621C20.7945 6.58325 22.461 6.86297 23.9531 7.43734C25.5211 8.04242 26.8386 8.88654 27.8703 9.94646C28.9229 11.0255 29.6689 12.2688 30.0912 13.645C30.405 14.6717 30.5641 15.7009 30.5641 16.7078C30.5641 17.9096 30.329 19.0866 29.8633 20.2063C29.5667 20.9201 29.1833 21.5965 28.7176 22.2265L36.3424 33.4724V33.474H36.3442Z" fill="white"/>
<path d="M18.326 23.6773L21.3679 28.5171H26.6199L21.7767 21.3723L22.6448 20.8652C23.0924 20.6046 23.4902 20.295 23.8248 19.9456C24.2534 19.4998 24.5871 18.9927 24.8159 18.4407C25.0465 17.8871 25.1631 17.3036 25.1631 16.7077C25.1631 16.1557 25.0718 15.578 24.8918 14.9904C24.6947 14.3488 24.3411 13.7636 23.8429 13.2523C23.3474 12.7444 22.68 12.3252 21.858 12.0081C21.0406 11.6936 20.0613 11.54 18.8586 11.54H12.0468V28.5163H16.3502V23.6873L18.3251 23.6773H18.3269H18.326ZM30.3599 30.4236H20.1689L18.43 27.6564V30.4236H9.97241V9.63513H18.8622C20.3452 9.63513 21.5886 9.83683 22.6655 10.2518C23.7733 10.6801 24.6911 11.2628 25.3928 11.9824C26.1045 12.712 26.609 13.5503 26.893 14.4749C27.1245 15.2311 27.242 15.9822 27.242 16.7093C27.242 17.5393 27.0793 18.3511 26.7591 19.1222C26.4408 19.8883 25.9779 20.5905 25.3838 21.2088C25.1405 21.4612 24.8774 21.6969 24.5934 21.9168L30.3608 30.4245H30.359L30.3599 30.4236Z" fill="white"/>
<path d="M15.3138 19.1337H18.2355C18.6677 19.1337 19.0972 19.1022 19.5231 19.0383C19.9472 18.9744 20.3261 18.8573 20.6589 18.6864C20.9917 18.5154 21.2584 18.2705 21.4592 17.9518C21.6599 17.6331 21.7603 17.2172 21.7603 16.7068C21.7603 16.1963 21.659 15.7813 21.4592 15.4618C21.2584 15.143 20.9908 14.8982 20.6589 14.7272C20.3261 14.5562 19.9472 14.4408 19.5231 14.3769C19.0972 14.313 18.6677 14.2815 18.2355 14.2815H15.3138V19.1337ZM13.0884 12.4928H18.8621C19.9129 12.4928 20.7792 12.6248 21.4592 12.8871C22.1392 13.1493 22.6772 13.4838 23.0697 13.888C23.4639 14.2923 23.7388 14.7471 23.8934 15.2509C24.0481 15.7547 24.1249 16.2403 24.1249 16.7093C24.1249 17.1782 24.0318 17.6563 23.8473 18.1037C23.661 18.5511 23.3943 18.9553 23.0471 19.3172C22.6998 19.679 22.2739 19.9845 21.772 20.2327C21.2702 20.4817 20.7086 20.6336 20.0901 20.69L24.7507 27.5642H21.9674L17.7933 20.9232H15.312V27.5642H13.0857V12.4953L13.0875 12.4936L13.0884 12.4928Z" fill="white"/>
<path d="M56.8963 33V11.1818H65.5043C67.152 11.1818 68.5582 11.4766 69.723 12.0661C70.8949 12.6484 71.7862 13.4759 72.397 14.5483C73.0149 15.6136 73.3239 16.8672 73.3239 18.3089C73.3239 19.7578 73.0114 21.0043 72.3864 22.0483C71.7614 23.0852 70.8558 23.8807 69.6697 24.4347C68.4908 24.9886 67.0632 25.2656 65.3871 25.2656H59.6236V21.5582H64.6413C65.522 21.5582 66.2536 21.4375 66.8359 21.196C67.4183 20.9545 67.8516 20.5923 68.1357 20.1094C68.4268 19.6264 68.5724 19.0263 68.5724 18.3089C68.5724 17.5845 68.4268 16.9737 68.1357 16.4766C67.8516 15.9794 67.4148 15.603 66.8253 15.3473C66.2429 15.0845 65.5078 14.9531 64.62 14.9531H61.5092V33H56.8963ZM68.679 23.071L74.1016 33H69.0092L63.7038 23.071H68.679ZM75.3838 33V11.1818H90.0855V14.9851H79.9967V20.1839H89.3291V23.9872H79.9967V29.1967H90.1281V33H75.3838ZM104.389 17.4567C104.304 16.5973 103.938 15.9297 103.292 15.4538C102.645 14.978 101.768 14.7401 100.66 14.7401C99.9073 14.7401 99.2717 14.8466 98.7532 15.0597C98.2348 15.2656 97.837 15.5533 97.56 15.9226C97.2902 16.2919 97.1552 16.7109 97.1552 17.1797C97.141 17.5703 97.2227 17.9112 97.4002 18.2024C97.5849 18.4936 97.837 18.7457 98.1566 18.9588C98.4762 19.1648 98.8456 19.3459 99.2646 19.5021C99.6836 19.6513 100.131 19.7791 100.607 19.8857L102.567 20.3544C103.519 20.5675 104.392 20.8516 105.188 21.2067C105.983 21.5618 106.672 21.9986 107.255 22.517C107.837 23.0355 108.288 23.6463 108.608 24.3494C108.934 25.0526 109.101 25.8587 109.108 26.7678C109.101 28.103 108.76 29.2607 108.086 30.2408C107.418 31.2138 106.452 31.9702 105.188 32.5099C103.931 33.0426 102.414 33.3089 100.639 33.3089C98.8775 33.3089 97.3434 33.0391 96.0366 32.4993C94.7369 31.9595 93.7213 31.1605 92.9897 30.1023C92.2653 29.0369 91.8853 27.7195 91.8498 26.1499H96.3136C96.3633 26.8814 96.5728 27.4922 96.9422 27.9822C97.3186 28.4652 97.8193 28.831 98.4443 29.0795C99.0764 29.321 99.7902 29.4418 100.586 29.4418C101.367 29.4418 102.045 29.3281 102.62 29.1009C103.203 28.8736 103.654 28.5575 103.973 28.1527C104.293 27.7479 104.453 27.2827 104.453 26.7571C104.453 26.267 104.307 25.8551 104.016 25.5213C103.732 25.1875 103.313 24.9034 102.759 24.669C102.212 24.4347 101.541 24.2216 100.745 24.0298L98.3697 23.4332C96.5302 22.9858 95.0778 22.2862 94.0125 21.3345C92.9471 20.3828 92.418 19.1009 92.4251 17.4886C92.418 16.1676 92.7696 15.0135 93.4798 14.0263C94.1971 13.0391 95.1808 12.2685 96.4308 11.7145C97.6808 11.1605 99.1012 10.8835 100.692 10.8835C102.311 10.8835 103.725 11.1605 104.932 11.7145C106.147 12.2685 107.091 13.0391 107.766 14.0263C108.441 15.0135 108.789 16.157 108.81 17.4567H104.389ZM131.061 22.0909C131.061 24.4702 130.61 26.4943 129.708 28.1634C128.813 29.8324 127.591 31.1072 126.043 31.9879C124.502 32.8615 122.769 33.2983 120.844 33.2983C118.905 33.2983 117.165 32.858 115.624 31.9773C114.083 31.0966 112.865 29.8217 111.97 28.1527C111.075 26.4837 110.628 24.4631 110.628 22.0909C110.628 19.7116 111.075 17.6875 111.97 16.0185C112.865 14.3494 114.083 13.0781 115.624 12.2045C117.165 11.3239 118.905 10.8835 120.844 10.8835C122.769 10.8835 124.502 11.3239 126.043 12.2045C127.591 13.0781 128.813 14.3494 129.708 16.0185C130.61 17.6875 131.061 19.7116 131.061 22.0909ZM126.384 22.0909C126.384 20.5497 126.153 19.25 125.692 18.1918C125.237 17.1335 124.594 16.331 123.763 15.7841C122.932 15.2372 121.959 14.9638 120.844 14.9638C119.729 14.9638 118.756 15.2372 117.925 15.7841C117.094 16.331 116.448 17.1335 115.986 18.1918C115.532 19.25 115.304 20.5497 115.304 22.0909C115.304 23.6321 115.532 24.9318 115.986 25.9901C116.448 27.0483 117.094 27.8509 117.925 28.3977C118.756 28.9446 119.729 29.218 120.844 29.218C121.959 29.218 122.932 28.9446 123.763 28.3977C124.594 27.8509 125.237 27.0483 125.692 25.9901C126.153 24.9318 126.384 23.6321 126.384 22.0909ZM151.527 11.1818V33H147.543L138.051 19.2678H137.891V33H133.278V11.1818H137.326L146.744 24.9034H146.936V11.1818H151.527ZM157.899 33H152.956L160.488 11.1818H166.433L173.954 33H169.011L163.545 16.1676H163.375L157.899 33ZM157.59 24.424H169.266V28.0249H157.59V24.424ZM193.629 11.1818V33H189.645L180.153 19.2678H179.993V33H175.38V11.1818H179.428L188.846 24.9034H189.038V11.1818H193.629ZM215.491 18.8203H210.825C210.74 18.2166 210.566 17.6804 210.303 17.2116C210.04 16.7358 209.703 16.331 209.291 15.9972C208.879 15.6634 208.403 15.4077 207.863 15.2301C207.331 15.0526 206.752 14.9638 206.127 14.9638C204.998 14.9638 204.014 15.2443 203.176 15.8054C202.338 16.3594 201.688 17.169 201.226 18.2344C200.765 19.2926 200.534 20.5781 200.534 22.0909C200.534 23.6463 200.765 24.9531 201.226 26.0114C201.695 27.0696 202.348 27.8686 203.186 28.4084C204.025 28.9482 204.994 29.218 206.095 29.218C206.713 29.218 207.284 29.1364 207.81 28.973C208.343 28.8097 208.815 28.5717 209.227 28.2592C209.639 27.9396 209.98 27.5526 210.25 27.098C210.527 26.6435 210.718 26.125 210.825 25.5426L215.491 25.5639C215.37 26.5653 215.069 27.5312 214.586 28.4616C214.11 29.3849 213.467 30.2124 212.657 30.9439C211.855 31.6683 210.896 32.2436 209.781 32.6697C208.673 33.0888 207.419 33.2983 206.02 33.2983C204.074 33.2983 202.334 32.858 200.8 31.9773C199.273 31.0966 198.066 29.8217 197.178 28.1527C196.297 26.4837 195.857 24.4631 195.857 22.0909C195.857 19.7116 196.304 17.6875 197.199 16.0185C198.094 14.3494 199.309 13.0781 200.843 12.2045C202.377 11.3239 204.103 10.8835 206.02 10.8835C207.284 10.8835 208.456 11.0611 209.536 11.4162C210.623 11.7713 211.585 12.2898 212.423 12.9716C213.261 13.6463 213.943 14.4737 214.468 15.4538C215.001 16.4339 215.342 17.5561 215.491 18.8203ZM217.599 33V11.1818H232.301V14.9851H222.212V20.1839H231.544V23.9872H222.212V29.1967H232.343V33H217.599Z" fill="white"/>
</svg>
