<svg width="107" height="95" viewBox="0 0 107 95" fill="none" xmlns="http://www.w3.org/2000/svg">
<path d="M4.58844 90.3665H98.4178L75.0543 52.8399L75.4516 51.7842C76.8693 48.0004 77.5881 44.0231 77.5881 39.9699C77.5881 36.6271 77.1069 33.2285 76.1625 29.8658C74.8067 25.0682 72.4206 20.7336 69.0662 16.9877C65.7816 13.3177 61.6564 10.422 56.8004 8.37642C52.2479 6.46457 47.2901 5.53459 41.6533 5.53459H4.59043V90.3645H4.58644L4.58844 90.3665ZM106.674 94.9505H0V0.954529H41.6493C47.905 0.954529 53.4419 2.00226 58.5735 4.15359C64.0644 6.46258 68.7427 9.75144 72.4805 13.9304C76.3062 18.2031 79.0297 23.1464 80.5732 28.6225C81.6314 32.3903 82.1686 36.206 82.1686 39.9699C82.1686 44.1927 81.4817 48.3397 80.1279 52.3171L106.672 94.9545L106.676 94.9505H106.674Z" fill="currentColor"/>
<path d="M11.9243 83.0285H85.2015L66.676 53.2731L67.275 52.1136C67.7383 51.2216 68.1536 50.2956 68.511 49.3556C69.6571 46.3502 70.2382 43.189 70.2382 39.962C70.2382 37.2918 69.8508 34.5617 69.0881 31.8496C68.0398 28.1377 66.1888 24.779 63.5831 21.8713C61.0293 19.0195 57.7867 16.7524 53.945 15.1339C50.309 13.6092 46.2857 12.8648 41.6413 12.8648H11.9203V83.0226L11.9243 83.0285ZM93.4599 87.6126H7.33984V8.28476H41.6493C46.9126 8.28476 51.519 9.14489 55.7301 10.9131C60.2067 12.797 64.0005 15.4572 67.0095 18.8199C70.0824 22.2524 72.2688 26.2218 73.5108 30.6123C74.3893 33.7315 74.8306 36.8787 74.8306 39.968C74.8306 43.7558 74.1477 47.4637 72.8039 50.9941C72.5384 51.6826 72.2508 52.3691 71.9374 53.0416L93.4619 87.6146V87.6106L93.4599 87.6126Z" fill="currentColor"/>
<path d="M19.2682 75.6943H71.9953L57.8586 52.9896L58.847 51.7263C60.0271 50.2156 60.9755 48.5413 61.6584 46.7472C62.483 44.5779 62.9063 42.2968 62.9063 39.9679C62.9063 37.9702 62.6128 35.9087 62.0318 33.8471C61.289 31.2189 59.9772 28.836 58.1222 26.7685C56.3012 24.7309 53.9391 23.0945 51.1138 21.9051C48.3922 20.7635 45.2993 20.2087 41.6534 20.2087H19.2722V75.6983L19.2682 75.6943ZM80.2517 80.2804H14.6798V15.6247H41.6494C45.9163 15.6247 49.5963 16.2972 52.8908 17.6782C56.3531 19.1331 59.2623 21.1627 61.5406 23.7111C63.8647 26.3055 65.512 29.295 66.4445 32.6038C67.1374 35.0725 67.4888 37.5471 67.4888 39.9679C67.4888 42.8576 66.9696 45.6875 65.9413 48.3796C65.2864 50.0959 64.4398 51.7224 63.4115 53.2371L80.2477 80.2764V80.2804H80.2517Z" fill="currentColor"/>
<path d="M40.4654 56.7255L47.1823 68.3622H58.7792L48.0848 51.1835L50.0016 49.9642C50.99 49.3375 51.8686 48.5931 52.6074 47.753C53.5538 46.6813 54.2906 45.4619 54.7957 44.1348C55.3049 42.8037 55.5625 41.4008 55.5625 39.9679C55.5625 38.6407 55.3608 37.2518 54.9635 35.8388C54.5282 34.2962 53.7475 32.8892 52.6473 31.6599C51.5531 30.4385 50.0795 29.4307 48.2645 28.6684C46.4595 27.912 44.2971 27.5428 41.6414 27.5428H26.6002V68.3602H36.1026V56.7494L40.4634 56.7255H40.4674H40.4654ZM67.0376 72.9463H44.5347L40.695 66.2927V72.9463H22.0198V22.9628H41.6494C44.924 22.9628 47.6695 23.4477 50.0476 24.4456C52.4935 25.4753 54.5202 26.8763 56.0696 28.6065C57.6411 30.3607 58.7552 32.3763 59.3822 34.5995C59.8933 36.4176 60.1529 38.2236 60.1529 39.9719C60.1529 41.9675 59.7935 43.9193 59.0867 45.7733C58.3838 47.6153 57.3615 49.3036 56.0497 50.7904C55.5126 51.3971 54.9315 51.9638 54.3046 52.4927L67.0396 72.9483H67.0356L67.0376 72.9463Z" fill="currentColor"/>
<path d="M33.8143 45.8013H40.2657C41.2201 45.8013 42.1685 45.7254 43.109 45.5718C44.0454 45.4181 44.8821 45.1367 45.6168 44.7256C46.3516 44.3145 46.9407 43.7258 47.3839 42.9594C47.8272 42.1931 48.0488 41.1933 48.0488 39.9659C48.0488 38.7386 47.8252 37.7408 47.3839 36.9724C46.9407 36.2061 46.3496 35.6174 45.6168 35.2063C44.8821 34.7952 44.0454 34.5178 43.109 34.3641C42.1685 34.2104 41.2201 34.1346 40.2657 34.1346H33.8143V45.8013ZM28.9004 29.8339H41.6494C43.9696 29.8339 45.8824 30.1512 47.3839 30.7819C48.8855 31.4125 50.0735 32.2168 50.9401 33.1886C51.8106 34.1605 52.4176 35.2542 52.7591 36.4655C53.1005 37.6769 53.2702 38.8444 53.2702 39.9719C53.2702 41.0995 53.0646 42.249 52.6572 43.3246C52.2459 44.4003 51.6569 45.3722 50.8902 46.2423C50.1234 47.1124 49.183 47.8468 48.0748 48.4435C46.9666 49.0422 45.7267 49.4074 44.3609 49.5431L54.6519 66.0713H48.5061L39.2893 50.1039H33.8103V66.0713H28.8944V29.8399L28.8984 29.8359L28.9004 29.8339Z" fill="currentColor"/>
</svg>
