<svg width="78" height="62" viewBox="0 0 78 62" fill="none" xmlns="http://www.w3.org/2000/svg">
<path d="M3.90387 58.9172H71.1735L54.4234 34.2093L54.7083 33.5142C55.7246 31.0229 56.24 28.4042 56.24 25.7355C56.24 23.5346 55.895 21.2969 55.2179 19.0828C54.2459 15.9241 52.5352 13.0701 50.1303 10.6038C47.7754 8.18741 44.8179 6.28084 41.3365 4.93402C38.0727 3.67523 34.5182 3.06292 30.477 3.06292H3.90531V58.9159H3.90244L3.90387 58.9172ZM77.0928 61.9354H0.614258V0.0473633H30.4742C34.9591 0.0473633 38.9287 0.737198 42.6077 2.15366C46.5443 3.67392 49.8984 5.83934 52.5782 8.5908C55.321 11.404 57.2735 14.6587 58.3801 18.2642C59.1388 20.745 59.5239 23.2573 59.5239 25.7355C59.5239 28.5158 59.0314 31.2463 58.0609 33.865L77.0914 61.938L77.0943 61.9354H77.0928Z" fill="white"/>
<path d="M9.16371 54.0852H61.6988L48.4172 34.4939L48.8467 33.7305C49.1788 33.1431 49.4765 32.5334 49.7328 31.9145C50.5545 29.9357 50.971 27.8544 50.971 25.7297C50.971 23.9716 50.6933 22.1741 50.1465 20.3884C49.3949 17.9444 48.0679 15.733 46.1998 13.8186C44.3689 11.9409 42.0441 10.4482 39.2899 9.38259C36.6831 8.37872 33.7986 7.88861 30.4689 7.88861H9.16084V54.0812L9.16371 54.0852ZM67.6195 57.1033H5.87695V4.87305H30.4746C34.2481 4.87305 37.5506 5.43937 40.5697 6.60355C43.7791 7.84393 46.499 9.59545 48.6563 11.8095C50.8594 14.0695 52.4269 16.683 53.3173 19.5737C53.9471 21.6275 54.2635 23.6996 54.2635 25.7336C54.2635 28.2275 53.7739 30.6689 52.8105 32.9933C52.6201 33.4466 52.414 33.8986 52.1893 34.3414L67.621 57.1047V57.102L67.6195 57.1033Z" fill="white"/>
<path d="M14.4283 49.257H52.2303L42.0951 34.308L42.8037 33.4763C43.6498 32.4816 44.3297 31.3792 44.8193 30.1979C45.4105 28.7696 45.714 27.2677 45.714 25.7343C45.714 24.4191 45.5036 23.0617 45.087 21.7044C44.5545 19.9739 43.614 18.405 42.2841 17.0438C40.9786 15.7022 39.2851 14.6247 37.2595 13.8416C35.3083 13.09 33.0909 12.7247 30.477 12.7247H14.4312V49.2597L14.4283 49.257ZM58.1496 52.2765H11.1387V9.70654H30.4741C33.5333 9.70654 36.1715 10.1494 38.5335 11.0586C41.0158 12.0165 43.1015 13.3528 44.7348 15.0307C46.4011 16.7389 47.5821 18.7072 48.2506 20.8858C48.7474 22.5112 48.9993 24.1405 48.9993 25.7343C48.9993 27.637 48.6271 29.5002 47.8899 31.2727C47.4204 32.4027 46.8134 33.4736 46.0762 34.4709L58.1467 52.2739V52.2765H58.1496Z" fill="white"/>
<path d="M29.6257 36.7673L34.4413 44.4291H42.7555L35.0883 33.1184L36.4626 32.3156C37.1712 31.903 37.801 31.4129 38.3307 30.8597C39.0092 30.1541 39.5375 29.3513 39.8996 28.4775C40.2647 27.6011 40.4493 26.6774 40.4493 25.7339C40.4493 24.8601 40.3048 23.9456 40.0199 23.0153C39.7078 21.9996 39.1481 21.0733 38.3593 20.2639C37.5749 19.4597 36.5184 18.7962 35.2172 18.2942C33.9231 17.7962 32.3728 17.5532 30.4688 17.5532H19.6853V44.4278H26.4978V36.7831L29.6242 36.7673H29.6271H29.6257ZM48.6762 47.4473H32.5431L29.7903 43.0665V47.4473H16.4014V14.5376H30.4746C32.8222 14.5376 34.7906 14.8569 36.4955 15.5139C38.2491 16.1919 39.7021 17.1143 40.813 18.2535C41.9396 19.4085 42.7383 20.7356 43.1878 22.1994C43.5543 23.3964 43.7404 24.5855 43.7404 25.7366C43.7404 27.0505 43.4827 28.3356 42.976 29.5563C42.4721 30.7691 41.7391 31.8807 40.7986 32.8596C40.4136 33.259 39.997 33.6322 39.5475 33.9804L48.6777 47.4486H48.6748L48.6762 47.4473Z" fill="white"/>
<path d="M24.8573 29.5746H29.4825C30.1668 29.5746 30.8468 29.5247 31.521 29.4235C32.1924 29.3223 32.7922 29.137 33.319 28.8664C33.8458 28.5957 34.2681 28.2081 34.5859 27.7035C34.9037 27.1989 35.0626 26.5406 35.0626 25.7325C35.0626 24.9245 34.9022 24.2675 34.5859 23.7616C34.2681 23.257 33.8444 22.8694 33.319 22.5987C32.7922 22.3281 32.1924 22.1454 31.521 22.0442C30.8468 21.9431 30.1668 21.8931 29.4825 21.8931H24.8573V29.5746ZM21.3344 19.0615H30.4746C32.138 19.0615 33.5094 19.2704 34.5859 19.6857C35.6624 20.1009 36.5141 20.6304 37.1354 21.2703C37.7595 21.9102 38.1947 22.6303 38.4395 23.4278C38.6843 24.2254 38.806 24.9941 38.806 25.7365C38.806 26.4789 38.6585 27.2357 38.3665 27.944C38.0716 28.6522 37.6493 29.2921 37.0996 29.865C36.5499 30.4379 35.8757 30.9214 35.0812 31.3143C34.2867 31.7085 33.3977 31.9489 32.4186 32.0383L39.7966 42.9206H35.3904L28.7825 32.4075H24.8545V42.9206H21.3301V19.0655L21.3329 19.0628L21.3344 19.0615Z" fill="white"/>
</svg>
