<svg width="30" height="23" viewBox="0 0 30 23" fill="none" xmlns="http://www.w3.org/2000/svg">
<g clip-path="url(#clip0_37_1613)">
<path d="M30 5.08203V18.6879C30 19.7877 29.5611 20.8464 28.7742 21.6465C27.9872 22.4465 26.9102 22.9288 25.7638 22.9928L25.5003 23.0001H4.49975C3.35211 23.0001 2.24735 22.5795 1.41248 21.8253C0.577602 21.0712 0.0744073 20.0391 0.00756684 18.9405L0 18.6879V5.08203L14.1676 14.1341L14.3417 14.2284C14.5473 14.3238 14.7717 14.3746 15 14.3746C15.2283 14.3746 15.454 14.3251 15.6583 14.2284L15.8324 14.1341L30 5.08203Z" fill="currentColor"/>
<path d="M25.5003 0C27.1209 0 28.541 0.8194 29.3329 2.05092L15.0001 11.2069L0.667236 2.05092C1.04306 1.46598 1.56012 0.975303 2.1743 0.619988C2.78847 0.264673 3.48336 0.0555935 4.19843 0.00966843L4.49984 0H25.5003Z" fill="currentColor"/>
</g>
<defs>
<clipPath id="clip0_37_1613">
<rect width="30" height="23" fill="white"/>
</clipPath>
</defs>
</svg>
