<svg width="31" height="32" viewBox="0 0 31 32" fill="none" xmlns="http://www.w3.org/2000/svg">
<g clip-path="url(#clip0_562_235)">
<path d="M24.5002 25.6105C24.0885 25.2367 23.7211 24.8979 23.3504 24.5623C22.0793 23.4139 20.8083 22.2671 19.5372 21.1186C17.6559 19.4199 15.7764 17.7195 13.8968 16.0191C12.2353 14.516 10.5772 13.0113 8.91571 11.5097C8.11041 10.7812 7.29526 10.0623 6.4916 9.33376C5.43536 8.3778 4.38568 7.41548 3.33108 6.45952C2.25188 5.48288 1.17104 4.50625 0.0869151 3.53597C-0.0344541 3.42781 -0.0229732 3.37214 0.0836349 3.26557C0.510067 2.83292 0.928299 2.39232 1.34489 1.95172C1.41706 1.87537 1.45806 1.8531 1.55319 1.93899C2.2568 2.58319 2.96697 3.21944 3.67387 3.85887C4.78751 4.86413 5.90116 5.86781 7.00988 6.87785C7.12469 6.98283 7.15913 6.89535 7.20998 6.83809C7.80698 6.16526 8.49092 5.58627 9.24701 5.08841C10.5722 4.21516 12.0205 3.62982 13.5999 3.35623C13.8066 3.31965 14.0149 3.28783 14.2232 3.27511C14.3511 3.26716 14.379 3.22103 14.3773 3.1065C14.3724 2.44481 14.3708 1.78311 14.3773 1.12142C14.3839 0.305431 15.1269 -0.200385 15.9026 0.0779725C16.3028 0.221128 16.5899 0.644232 16.5915 1.09915C16.5931 1.72426 16.5915 2.34778 16.5915 2.97289C16.5915 3.24489 16.5915 3.2433 16.8736 3.28147C18.1759 3.45167 19.4174 3.81274 20.577 4.41558C23.0421 5.69762 24.7921 7.60317 25.7975 10.1323C26.2092 11.1662 26.4306 12.2478 26.4683 13.3612C26.5126 14.6719 26.4782 15.9825 26.4896 17.2932C26.4946 17.904 26.4978 18.5148 26.5421 19.1256C26.5897 19.7905 26.0944 20.274 25.4104 20.2661C24.8741 20.2613 24.4067 19.8223 24.3575 19.3021C24.241 18.0806 24.305 16.8558 24.2853 15.6326C24.2722 14.78 24.3345 13.9259 24.246 13.0749C24.0163 10.8639 23.047 9.01087 21.3528 7.51569C20.4573 6.72356 19.4256 6.14617 18.2792 5.77556C16.8523 5.31269 15.3909 5.21248 13.9099 5.47652C12.1107 5.79624 10.5591 6.58836 9.25521 7.83222C9.10104 7.97856 8.96327 8.14239 8.81402 8.2935C8.72709 8.38098 8.72545 8.43984 8.8255 8.52732C9.34706 8.9886 9.8637 9.45624 10.3803 9.92388C11.7761 11.1868 13.1718 12.4514 14.5676 13.7143C16.3028 15.2827 18.0414 16.8494 19.7783 18.4194C21.3364 19.8286 22.8912 21.2427 24.4493 22.6504C26.1665 24.2028 27.887 25.7505 29.6042 27.3014C30.052 27.7054 30.4932 28.1157 30.9409 28.5182C31.0115 28.5818 31.0246 28.6184 30.9508 28.6916C30.508 29.1433 30.07 29.5982 29.6354 30.0579C29.5567 30.1406 29.514 30.147 29.4255 30.0674C28.6349 29.3437 27.8362 28.6247 27.0456 27.901C26.9194 27.7865 26.7963 27.7245 26.611 27.726C25.253 27.7356 23.895 27.7324 22.5369 27.7308C21.1986 27.7308 19.8586 27.7276 18.5203 27.7276C17.1819 27.7276 15.842 27.7308 14.5036 27.7308C13.8525 27.7308 13.203 27.7324 12.5519 27.7245C12.3944 27.7229 12.3698 27.7531 12.4305 27.8947C12.9947 29.2069 14.4528 30.0134 15.8961 29.8161C16.6309 29.7159 17.2656 29.4312 17.8085 28.9381C18.2841 28.507 18.9615 28.5102 19.3846 28.9365C19.8242 29.3803 19.8111 30.0531 19.3289 30.4905C17.9971 31.6994 16.4226 32.2052 14.6151 31.9237C12.7831 31.639 11.4481 30.6607 10.5804 29.0781C10.3738 28.7011 10.218 28.3034 10.131 27.8851C10.1064 27.7658 10.0622 27.726 9.93259 27.7276C8.568 27.7324 7.20342 27.7276 5.83883 27.7276C5.02861 27.7276 4.22003 27.7276 3.40981 27.7276C2.55858 27.7276 2.02882 26.9244 2.40605 26.1863C2.86693 25.2781 3.25728 24.3444 3.57054 23.3789C3.91825 22.3084 4.15935 21.2141 4.31516 20.1006C4.49885 18.7868 4.49721 17.465 4.49721 16.1432C4.49721 15.184 4.49721 14.2265 4.50705 13.2674C4.51033 12.9858 4.52673 12.6995 4.66942 12.4386C4.90232 12.0139 5.45176 11.7769 5.91592 11.9026C6.45552 12.0489 6.82127 12.5086 6.75074 13.0335C6.63593 13.8972 6.6999 14.7625 6.6835 15.6262C6.66218 16.7572 6.71138 17.8881 6.63429 19.0174C6.48012 21.2347 5.98644 23.3773 5.14834 25.4451C5.09586 25.5755 5.10734 25.6089 5.25987 25.6089C6.64249 25.6042 8.02676 25.6058 9.41103 25.6073C10.7494 25.6073 12.0893 25.6105 13.4277 25.6105C14.766 25.6105 16.106 25.6073 17.4444 25.6073C18.7761 25.6073 20.1096 25.6105 21.4413 25.6105C22.4418 25.6105 23.4407 25.6105 24.5002 25.6105Z" fill="currentColor"/>
</g>
<defs>
<clipPath id="clip0_562_235">
<rect width="31" height="32" fill="white"/>
</clipPath>
</defs>
</svg>
