<?xml version="1.0" encoding="utf-8"?>
<!-- Generator: Adobe Illustrator 24.3.0, SVG Export Plug-In . SVG Version: 6.00 Build 0)  -->
<svg version="1.1" id="Layer_1" xmlns="http://www.w3.org/2000/svg" xmlns:xlink="http://www.w3.org/1999/xlink" x="0px" y="0px"
	 viewBox="0 0 701.9 825.7" style="enable-background:new 0 0 701.9 825.7;" xml:space="preserve">
<style type="text/css">
	.st0{fill:#38D5E1;}
	.st1{fill:#182126;}
	.st2{fill:#253246;}
	.st3{fill:#A7CBE9;}
	.st4{fill-rule:evenodd;clip-rule:evenodd;fill:#FEFEFE;}
	.st5{fill:#4EA6F7;}
</style>
<circle class="st0" cx="324.7" cy="500" r="323"/>
<g>
	<path class="st1" d="M518.2,395.6c0-0.2,0-0.4,0-0.7c0-0.3,0-0.6,0-0.9c0-0.2,0-0.3,0-0.5c0-0.2,0-0.4,0-0.7c0-0.2,0-0.4,0-0.7
		c0-0.2,0-0.4,0-0.7c0-0.2,0-0.4,0-0.7c0-0.3,0-0.6,0-0.9c0-0.2,0-0.3,0-0.5c0-0.2,0-0.4,0-0.7c0-0.2,0-0.4,0-0.7c0-0.3,0-0.6,0-0.9
		c0-0.2,0-0.3,0-0.5c0-0.3,0-0.6,0-0.9c0-0.2,0-0.3,0-0.5c0-0.2,0-0.4,0-0.7c0-0.2,0-0.4,0-0.7c0-0.3,0-0.6,0-0.9c0-0.2,0-0.3,0-0.5
		c0-0.3,0-0.6,0-0.9c0-0.2,0-0.3,0-0.5c0-0.3,0-0.6,0-0.9c0-0.2,0-0.3,0-0.5c0-0.3,0-0.6,0-0.9c0-0.2,0-0.3,0-0.5c0-0.3,0-0.6,0-0.9
		c0-0.2,0-0.3,0-0.5c0-0.3,0-0.6,0-0.9c0-0.2,0-0.3,0-0.5c0-0.3,0-0.6,0-0.9c0-0.2,0-0.3,0-0.5c0-0.3,0-0.6,0-0.9c0-0.2,0-0.3,0-0.5
		c0-0.4,0-0.7,0-1.1c0-0.1,0-0.2,0-0.3c0-0.3,0-0.6,0-0.9c0-0.2,0-0.3,0-0.5c0-0.3,0-0.6,0-0.9c0-0.2,0-0.3,0-0.5c0-0.4,0-0.7,0-1.1
		c0-0.1,0-0.2,0-0.3c0-0.3,0-0.6,0-0.9c0-0.2,0-0.3,0-0.5c0-0.4,0-0.7,0-1.1c0-0.1,0-0.2,0-0.3c0-0.3,0-0.6,0-0.9c0-0.2,0-0.3,0-0.5
		c0-0.4,0-0.7,0-1.1c0-0.1,0-0.2,0-0.3c0-0.4,0-0.7,0-1.1c0-0.1,0-0.2,0-0.3c0-0.3,0-0.6,0-0.9c0-0.2,0-0.3,0-0.5c0-0.4,0-0.7,0-1.1
		c0-0.1,0-0.2,0-0.3c0-0.4,0-0.7,0-1.1c0-0.1,0-0.2,0-0.3c0-0.4,0-0.7,0-1.1c0-0.1,0-0.2,0-0.3c0-0.4,0-0.7,0-1.1c0-0.1,0-0.2,0-0.3
		c0-0.4,0-0.7,0-1.1c0-0.1,0-0.2,0-0.3c0-0.4,0-0.7,0-1.1c0-0.1,0-0.2,0-0.3c0-0.4,0-0.7,0-1.1c0-0.1,0-0.2,0-0.3c0-0.4,0-0.7,0-1.1
		c0-0.1,0-0.2,0-0.3c0-0.4,0-0.7,0-1.1c0-0.1,0-0.2,0-0.3c0-0.4,0-0.7,0-1.1c0-0.1,0-0.2,0-0.3c0-0.4,0-0.7,0-1.1c0-0.1,0-0.2,0-0.3
		c0-0.4,0-0.8,0-1.3c0,0,0,0,0-0.1c0-0.4,0-0.7,0-1.1c0-0.1,0-0.2,0-0.3c0-0.4,0-0.7,0-1c0-0.1,0-0.2,0-0.3c0-0.4,0-0.8,0-1.3
		c0,0,0,0,0-0.1c0-0.4,0-0.7,0-1.1c0-0.1,0-0.2,0-0.3c0-0.4,0-0.8,0-1.3c0,0,0,0,0-0.1c0-17.3-15.6-31.3-34.8-31.3
		c-19.2,0-34.8,14-34.8,31.3c0,0.4,0,0.8,0,1.3c0,0,0,0,0,0.1c0,0.4,0,0.7,0,1.1c0,0.1,0,0.2,0,0.3c0,0.4,0,0.8,0,1.3c0,0,0,0,0,0.1
		c0,0.4,0,0.7,0,1.1c0,0.1,0,0.2,0,0.3c0,0.4,0,0.7,0,1.1c0,0.1,0,0.2,0,0.3c0,0.4,0,0.8,0,1.3c0,0,0,0,0,0.1c0,0.4,0,0.7,0,1.1
		c0,0.1,0,0.2,0,0.3c0,0.4,0,0.7,0,1.1c0,0.1,0,0.2,0,0.3c0,0.4,0,0.7,0,1.1c0,0.1,0,0.2,0,0.3c0,0.4,0,0.7,0,1.1c0,0.1,0,0.2,0,0.3
		c0,0.4,0,0.7,0,1.1c0,0.1,0,0.2,0,0.3c0,0.4,0,0.7,0,1.1c0,0.1,0,0.2,0,0.3c0,0.4,0,0.7,0,1.1c0,0.1,0,0.2,0,0.3c0,0.4,0,0.7,0,1.1
		c0,0.1,0,0.2,0,0.3c0,0.4,0,0.7,0,1.1c0,0.1,0,0.2,0,0.3c0,0.4,0,0.7,0,1.1c0,0.1,0,0.2,0,0.3c0,0.4,0,0.7,0,1.1c0,0.1,0,0.2,0,0.3
		c0,0.3,0,0.6,0,0.9c0,0.2,0,0.3,0,0.5c0,0.4,0,0.7,0,1.1c0,0.1,0,0.2,0,0.3c0,0.4,0,0.7,0,1.1c0,0.1,0,0.2,0,0.3c0,0.3,0,0.6,0,0.9
		c0,0.2,0,0.3,0,0.5c0,0.4,0,0.7,0,1.1c0,0.1,0,0.2,0,0.3c0,0.3,0,0.6,0,0.9c0,0.2,0,0.3,0,0.5c0,0.4,0,0.7,0,1.1c0,0.1,0,0.2,0,0.3
		c0,0.3,0,0.6,0,0.9c0,0.2,0,0.3,0,0.5c0,0.3,0,0.6,0,0.9c0,0.2,0,0.3,0,0.5c0,0.4,0,0.7,0,1.1c0,0.1,0,0.2,0,0.3c0,0.3,0,0.6,0,0.9
		c0,0.2,0,0.3,0,0.5c0,0.3,0,0.6,0,0.9c0,0.2,0,0.3,0,0.5c0,0.3,0,0.6,0,0.9c0,0.2,0,0.3,0,0.5c0,0.3,0,0.6,0,0.9c0,0.2,0,0.3,0,0.5
		c0,0.3,0,0.6,0,0.9c0,0.2,0,0.3,0,0.5c0,0.3,0,0.6,0,0.9c0,0.2,0,0.3,0,0.5c0,0.3,0,0.6,0,0.9c0,0.2,0,0.3,0,0.5c0,0.3,0,0.6,0,0.9
		c0,0.2,0,0.3,0,0.5c0,0.2,0,0.4,0,0.7c0,0.2,0,0.4,0,0.7c0,0.3,0,0.6,0,0.9c0,0.2,0,0.3,0,0.5c0,0.3,0,0.6,0,0.9c0,0.2,0,0.3,0,0.5
		c0,0.2,0,0.4,0,0.7c0,0.2,0,0.4,0,0.7c0,0.3,0,0.6,0,0.9c0,0.2,0,0.3,0,0.5c0,0.2,0,0.4,0,0.7c0,0.2,0,0.4,0,0.7c0,0.2,0,0.4,0,0.7
		c0,0.2,0,0.4,0,0.7c0,0.3,0,0.6,0,0.9c0,0.2,0,0.3,0,0.5c0,0.2,0,0.4,0,0.7c0,0.2,0,0.4,0,0.7c0,0.2,0,0.4,0,0.7c0,0.2,0,0.4,0,0.7
		c0,0.2,0,0.4,0,0.7c0,0.2,0,0.4,0,0.7c0,0.2,0,0.4,0,0.7c0,0.2,0,0.4,0,0.7c0,0.2,0,0.4,0,0.7c0,0.2,0,0.4,0,0.7c0,0.2,0,0.4,0,0.7
		c0,0.2,0,0.4,0,0.7c0,0.2,0,0.4,0,0.7c0,0.2,0,0.4,0,0.7c0,0.2,0,0.4,0,0.7c0,0.2,0,0.4,0,0.7c0,0.2,0,0.3,0,0.5c0,0.3,0,0.6,0,0.9
		c0,0.2,0,0.4,0,0.7c0,0.2,0,0.4,0,0.7c0,0.2,0,0.3,0,0.5c0,0.3,0,0.6,0,0.9c0,0.2,0,0.4,0,0.7c0,0.2,0,0.4,0,0.7c0,0.2,0,0.3,0,0.5
		c0,0.3,0,0.6,0,0.9c0,0.2,0,0.3,0,0.5c0,0.3,0,0.6,0,0.9c0,0.2,0,0.4,0,0.7c0,0.2,0,0.4,0,0.7c0,0.2,0,0.3,0,0.5c0,0.3,0,0.6,0,0.9
		c0,0.2,0,0.3,0,0.5c0,0.3,0,0.6,0,0.9c0,0.2,0,0.3,0,0.5c0,0.3,0,0.6,0,0.9c0,0.2,0,0.3,0,0.5c0,0.3,0,0.6,0,0.9c0,0.1,0,0.2,0,0.3
		c0,0.4,0,0.7,0,1.1c0,0.2,0,0.3,0,0.5c0,0.3,0,0.6,0,0.9c0,0.2,0,0.3,0,0.5c0,0.3,0,0.6,0,0.9c0,0.1,0,0.2,0,0.3c0,0.4,0,0.7,0,1.1
		c0,0.2,0,0.3,0,0.5c0,0.3,0,0.6,0,0.9c0,0.1,0,0.2,0,0.3c0,0.4,0,0.7,0,1.1c0,0.1,0,0.2,0,0.3c0,0.4,0,0.7,0,1.1c0,0.2,0,0.3,0,0.5
		c0,0.3,0,0.6,0,0.9c0,0.1,0,0.2,0,0.3c0,0.4,0,0.7,0,1.1c0,0.1,0,0.2,0,0.3c0,0.4,0,0.7,0,1.1c0,0.1,0,0.2,0,0.3c0,0.4,0,0.7,0,1.1
		c0,0.1,0,0.2,0,0.3c0,0.4,0,0.7,0,1.1c0,0,0,0,0,0.1c0,0.4,0,0.8,0,1.3c0,0.1,0,0.2,0,0.3c0,0.4,0,0.7,0,1.1c0,0.1,0,0.2,0,0.3
		c0,0.4,0,0.7,0,1.1c0,0,0,0,0,0.1c0,0.4,0,0.8,0,1.3c0,0.1,0,0.2,0,0.3c0,0.4,0,0.7,0,1.1c0,0,0,0,0,0.1c0,0.4,0,0.8,0,1.3
		c0,0,0,0,0,0c0,0.4,0,0.8,0,1.3c0,0,0,0,0,0c0,0.4,0,0.8,0,1.3c0,0,0,0,0,0.1c0,0.4,0,0.8,0,1.3c0,0,0,0,0,0c0,0.4,0,0.8,0,1.3
		c0,0,0,0,0,0c0,0.4,0,0.8,0,1.2c0,0,0,0,0,0.1c0,0.3,0,0.5,0,0.8c0,0.6-0.1,1.2-0.1,1.8c0,0,0,0,0,0.1c0,0.3,0,0.5,0,0.8
		c0,0.6-0.1,1.2-0.1,1.8c0,0,0,0,0,0c0,0.3,0,0.5,0,0.8c0,0.4,0,0.9,0,1.3c0,0.4,0,0.8-0.1,1.3c0,0.4,0,0.9,0,1.3
		c0,0.4,0,0.8-0.1,1.3c0,0.4,0,0.8,0,1.3c0,0.4,0,0.7,0,1.1c0,0.5-0.1,1-0.1,1.5c0,0.4,0,0.7,0,1.1c0,0.4,0,0.9,0,1.3
		c0,0.5-0.1,1-0.1,1.5c0,0.4,0,0.7,0,1.1c0,0.4,0,0.8-0.1,1.3c0,0.4,0,0.7,0,1.1c0,0.5-0.1,1-0.1,1.5c0,0.4,0,0.8,0,1.3
		c0,0.4,0,0.7-0.1,1.1c0,0.5-0.1,1-0.1,1.5c0,0.4,0,0.7,0,1.1c0,0.4-0.1,0.8-0.1,1.3c0,0.4-0.1,0.8-0.1,1.3c0,0.4,0,0.8-0.1,1.3
		c0,0.4-0.1,0.8-0.1,1.3c0,0.4-0.1,0.8-0.1,1.3c0,0.4-0.1,0.7-0.1,1.1c0,0.5-0.1,1-0.1,1.4c0,0.3,0,0.7-0.1,1c0,0.4-0.1,0.8-0.1,1.2
		c0,0.4-0.1,0.8-0.1,1.2c0,0.4-0.1,0.8-0.1,1.2c0,0.4,0,0.8-0.1,1.2c0,0.4-0.1,0.8-0.1,1.2c0,0.3,0,0.7-0.1,1
		c-0.1,0.5-0.1,0.9-0.1,1.4c0,0.3-0.1,0.7-0.1,1c0,0.4-0.1,0.8-0.1,1.2c0,0.4-0.1,0.8-0.1,1.2c0,0.4-0.1,0.8-0.1,1.2
		c0,0.4-0.1,0.8-0.1,1.2c0,0.4-0.1,0.8-0.1,1.2c0,0.3-0.1,0.7-0.1,1c-0.1,0.5-0.1,0.9-0.1,1.4c0,0.3-0.1,0.7-0.1,1
		c0,0.4-0.1,0.8-0.1,1.2c-0.1,0.4-0.1,0.8-0.1,1.2c0,0.3,0,0.5-0.1,0.8c-0.1,0.5-0.1,1.1-0.1,1.6c0,0.3,0,0.5-0.1,0.8
		c0,0.3-0.1,0.6-0.1,1c-0.1,0.4-0.1,0.8-0.1,1.2c0,0.5-0.1,0.9-0.1,1.4c0,0.3-0.1,0.7-0.1,1c0,0.4-0.1,0.8-0.1,1.2
		c0,0.3-0.1,0.6-0.1,1c-0.1,0.5-0.1,0.9-0.1,1.4c0,0.3-0.1,0.6-0.1,1c-0.1,0.4-0.1,0.9-0.1,1.3c0,0.3-0.1,0.6-0.1,1
		c0,0.4-0.1,0.8-0.1,1.2c0,0.4-0.1,0.8-0.1,1.2c0,0.4-0.1,0.8-0.1,1.1c0,0.3-0.1,0.6-0.1,0.9c0,0.4-0.1,0.9-0.1,1.3
		c0,0.3-0.1,0.6-0.1,1c0,0.4-0.1,0.7-0.1,1.1c-0.1,0.4-0.1,0.7-0.1,1.1c-0.1,0.4-0.1,0.7-0.1,1.1c-0.1,0.4-0.1,0.7-0.1,1.1
		c-0.1,0.4-0.1,0.7-0.1,1.1c-0.1,0.3-0.1,0.6-0.1,0.9c-0.1,0.4-0.1,0.7-0.2,1.1c-0.1,0.4-0.1,0.7-0.2,1.1c-0.1,0.4-0.1,0.7-0.1,1.1
		c-0.1,0.4-0.1,0.7-0.2,1.1c-0.1,0.4-0.1,0.7-0.1,1.1c0,0.1,0,0.3-0.1,0.4c-0.1,0.6-0.2,1.2-0.2,1.8c0,0.1,0,0.3-0.1,0.4
		c0,0.4-0.1,0.7-0.1,1.1c-0.1,0.4-0.1,0.7-0.2,1.1c-0.1,0.3-0.1,0.6-0.1,0.9c-0.1,0.4-0.1,0.8-0.2,1.3c0,0.3-0.1,0.6-0.1,0.9
		c-0.1,0.4-0.1,0.8-0.2,1.2c-0.1,0.3-0.1,0.6-0.1,0.9c-0.1,0.4-0.1,0.7-0.2,1.1c0,0.3-0.1,0.6-0.1,0.8c-0.1,0.4-0.2,0.8-0.2,1.3
		c-0.1,0.3-0.1,0.6-0.2,0.9c-0.1,0.3-0.1,0.7-0.2,1c-0.1,0.3-0.1,0.7-0.2,1c-0.1,0.4-0.1,0.7-0.2,1.1c-0.1,0.3-0.1,0.6-0.2,1
		c-0.1,0.4-0.1,0.7-0.2,1.1c0,0.3-0.1,0.5-0.1,0.8c-0.1,0.3-0.1,0.7-0.2,1c-0.1,0.3-0.1,0.7-0.2,1c-0.1,0.3-0.1,0.7-0.2,1
		c-0.1,0.3-0.1,0.7-0.2,1c0,0.1,0,0.2-0.1,0.3c-0.1,0.3-0.1,0.7-0.2,1c-0.1,0.6-0.2,1.1-0.3,1.7c0,0.1,0,0.2-0.1,0.3
		c-0.1,0.3-0.1,0.5-0.2,0.8c-0.1,0.4-0.2,0.8-0.2,1.2c0,0.3-0.1,0.5-0.2,0.8c-0.1,0.4-0.2,0.8-0.2,1.1c-0.1,0.2-0.1,0.5-0.2,0.7
		c-0.1,0.3-0.2,0.7-0.2,1c-0.1,0.2-0.1,0.5-0.2,0.7c-0.1,0.4-0.2,0.8-0.3,1.2c-0.1,0.2-0.1,0.5-0.2,0.7c-0.1,0.3-0.2,0.7-0.2,1
		c-0.1,0.3-0.1,0.6-0.2,0.9c-0.1,0.3-0.2,0.6-0.2,0.9c-0.1,0.3-0.2,0.6-0.2,0.9c-0.1,0.3-0.1,0.5-0.2,0.7c-0.1,0.3-0.2,0.6-0.2,0.9
		c-0.1,0.3-0.2,0.6-0.2,0.9c-0.1,0.3-0.2,0.6-0.2,1c0,0.1,0,0.2-0.1,0.2c-0.1,0.3-0.1,0.5-0.2,0.8c-0.1,0.3-0.2,0.7-0.3,1
		c-0.1,0.2-0.1,0.5-0.2,0.7c-0.1,0.3-0.2,0.6-0.2,0.9c-0.1,0.2-0.1,0.4-0.2,0.7c-0.1,0.4-0.2,0.7-0.3,1.1c-0.1,0.2-0.1,0.5-0.2,0.7
		c-0.1,0.3-0.2,0.5-0.2,0.8c-0.1,0.3-0.2,0.6-0.3,0.9c-0.1,0.3-0.2,0.5-0.2,0.8c-0.1,0.2-0.2,0.5-0.2,0.7c-0.1,0.3-0.2,0.6-0.3,0.9
		c-0.1,0.2-0.2,0.5-0.2,0.7c0,0.1,0,0.1-0.1,0.2c-0.1,0.2-0.1,0.4-0.2,0.6c-0.1,0.3-0.2,0.6-0.3,1c-0.1,0.2-0.2,0.5-0.2,0.7
		c-0.1,0.2-0.2,0.5-0.2,0.7c-0.1,0.3-0.2,0.6-0.3,0.9c-0.1,0.2-0.2,0.5-0.2,0.7c-0.1,0.2-0.2,0.4-0.2,0.6c-0.1,0.3-0.2,0.7-0.3,1
		c-0.1,0.2-0.1,0.4-0.2,0.6c-0.1,0.2-0.2,0.5-0.3,0.7c-0.2,0.5-0.4,1-0.6,1.5c-0.1,0.2-0.2,0.4-0.2,0.6c-0.1,0.3-0.2,0.5-0.3,0.8
		c-0.1,0.2-0.1,0.3-0.2,0.5c-0.1,0.3-0.2,0.6-0.4,0.9c-0.1,0.2-0.2,0.4-0.3,0.6c-0.1,0.2-0.2,0.4-0.3,0.6c-0.1,0.2-0.2,0.4-0.3,0.6
		c-0.2,0.4-0.4,0.9-0.6,1.3c-0.1,0.2-0.1,0.3-0.2,0.5c-0.1,0.3-0.3,0.5-0.4,0.8c-0.1,0.2-0.2,0.5-0.3,0.7c-0.1,0.1-0.1,0.3-0.2,0.4
		c-0.1,0.3-0.3,0.5-0.4,0.8c-0.1,0.2-0.2,0.3-0.2,0.5c-0.1,0.1-0.1,0.3-0.2,0.4c-0.2,0.3-0.3,0.6-0.4,0.8c0,0.1-0.1,0.2-0.1,0.2
		c-0.1,0.3-0.3,0.5-0.4,0.8c-0.1,0.1-0.1,0.3-0.2,0.4c-0.2,0.3-0.3,0.5-0.5,0.8c0,0,0,0.1-0.1,0.1c-0.1,0.2-0.3,0.5-0.4,0.7
		c-0.1,0.1-0.1,0.3-0.2,0.4c-0.1,0.2-0.2,0.3-0.3,0.5c-0.1,0.2-0.2,0.4-0.4,0.6c-0.1,0.1-0.2,0.3-0.3,0.4c-0.1,0.1-0.1,0.2-0.2,0.3
		c-0.1,0.2-0.3,0.4-0.4,0.6c-0.1,0.1-0.2,0.3-0.3,0.4c-0.1,0.1-0.2,0.3-0.3,0.4c-0.1,0.2-0.2,0.3-0.4,0.5c-0.1,0.1-0.1,0.2-0.2,0.3
		c-0.1,0.1-0.2,0.3-0.3,0.4c-0.1,0.1-0.2,0.2-0.3,0.3c-0.1,0.2-0.3,0.3-0.4,0.5c-0.1,0.2-0.2,0.3-0.4,0.5c0,0,0,0,0,0
		c-0.2,0.2-0.3,0.3-0.4,0.5c-0.1,0.1-0.2,0.2-0.3,0.3c-0.1,0.2-0.3,0.3-0.4,0.5c-0.1,0.1-0.2,0.2-0.3,0.4c-0.1,0.1-0.2,0.2-0.2,0.2
		c0,0-0.1,0.1-0.1,0.1c-0.2,0.1-0.3,0.3-0.4,0.4c0,0-0.1,0.1-0.1,0.1c-0.1,0.1-0.1,0.1-0.2,0.2c-0.1-0.1-0.1-0.2-0.2-0.3
		c-0.1-0.1-0.2-0.3-0.3-0.4c-0.1-0.2-0.2-0.4-0.4-0.5c-0.1-0.2-0.2-0.3-0.4-0.5c-0.1-0.2-0.3-0.4-0.4-0.6c-0.1-0.1-0.2-0.3-0.3-0.4
		c-0.1-0.2-0.2-0.3-0.3-0.5c-0.1-0.2-0.3-0.5-0.4-0.7c-0.1-0.2-0.2-0.3-0.3-0.5c-0.1-0.2-0.3-0.4-0.4-0.6c-0.1-0.2-0.3-0.4-0.4-0.6
		c-0.1-0.2-0.2-0.5-0.4-0.7c-0.1-0.2-0.2-0.4-0.3-0.6c-0.1-0.3-0.3-0.5-0.4-0.8c-0.1-0.2-0.2-0.3-0.2-0.4c-0.2-0.3-0.3-0.6-0.5-0.9
		c-0.1-0.2-0.2-0.4-0.3-0.6c-0.1-0.2-0.2-0.5-0.4-0.7c-0.1-0.2-0.2-0.5-0.4-0.7c0-0.1-0.1-0.1-0.1-0.2c-0.1-0.2-0.2-0.4-0.3-0.6
		c-0.1-0.3-0.2-0.5-0.4-0.8c-0.1-0.3-0.2-0.5-0.4-0.8c-0.1-0.3-0.3-0.6-0.4-0.9c-0.1-0.2-0.2-0.4-0.2-0.5c-0.2-0.4-0.3-0.7-0.5-1.1
		c-0.1-0.2-0.2-0.4-0.3-0.6c0-0.1-0.1-0.2-0.1-0.3c-0.1-0.3-0.3-0.6-0.4-0.9c-0.1-0.2-0.2-0.4-0.3-0.6c-0.1-0.4-0.3-0.7-0.5-1.1
		c-0.1-0.2-0.2-0.5-0.3-0.7c-0.1-0.3-0.2-0.6-0.4-0.9c-0.1-0.3-0.2-0.6-0.4-0.9c-0.1-0.3-0.2-0.5-0.3-0.8c-0.1-0.3-0.2-0.5-0.3-0.8
		c-0.1-0.4-0.3-0.7-0.4-1.1c-0.1-0.3-0.2-0.5-0.3-0.8c-0.1-0.3-0.2-0.6-0.3-0.9c-0.1-0.2-0.1-0.3-0.2-0.5c-0.1-0.3-0.2-0.6-0.4-0.9
		c-0.1-0.3-0.2-0.5-0.3-0.8c-0.1-0.3-0.2-0.7-0.4-1c-0.1-0.4-0.3-0.8-0.4-1.1c-0.1-0.3-0.2-0.6-0.3-0.8c-0.1-0.3-0.2-0.6-0.3-1
		c-0.1-0.3-0.2-0.5-0.3-0.8c-0.1-0.4-0.2-0.8-0.4-1.2c-0.1-0.4-0.2-0.7-0.4-1.1c-0.1-0.3-0.2-0.5-0.3-0.8c-0.1-0.3-0.2-0.7-0.3-1
		c-0.1-0.4-0.2-0.7-0.3-1.1c-0.1-0.4-0.2-0.7-0.3-1.1c-0.1-0.3-0.2-0.6-0.3-1c-0.1-0.2-0.1-0.3-0.2-0.5c-0.2-0.6-0.3-1.1-0.5-1.7
		c0-0.1-0.1-0.3-0.1-0.4c-0.2-0.6-0.3-1.2-0.5-1.7c0-0.2-0.1-0.3-0.1-0.4c-0.1-0.4-0.2-0.7-0.3-1.1c-0.1-0.4-0.2-0.7-0.3-1.1
		c-0.1-0.3-0.2-0.6-0.3-0.9c-0.1-0.4-0.2-0.9-0.4-1.3c-0.1-0.4-0.2-0.8-0.3-1.1c-0.1-0.3-0.2-0.6-0.3-0.9c-0.1-0.4-0.2-0.7-0.3-1.1
		c-0.1-0.5-0.3-0.9-0.4-1.4c-0.1-0.3-0.2-0.6-0.3-0.9c-0.1-0.4-0.2-0.7-0.3-1.1c-0.1-0.4-0.2-0.8-0.3-1.2c-0.1-0.3-0.2-0.6-0.2-0.9
		c-0.1-0.5-0.2-0.9-0.4-1.4c-0.1-0.4-0.2-0.8-0.3-1.1c-0.1-0.3-0.2-0.7-0.3-1c-0.1-0.5-0.2-0.9-0.4-1.4c-0.1-0.3-0.2-0.6-0.2-1
		c-0.1-0.4-0.2-0.8-0.3-1.2c-0.1-0.5-0.2-0.9-0.4-1.4c-0.1-0.3-0.2-0.7-0.3-1c-0.1-0.4-0.2-0.8-0.3-1.2c-0.1-0.3-0.1-0.6-0.2-0.8
		c-0.1-0.5-0.2-1-0.4-1.6c0-0.2-0.1-0.5-0.2-0.7c-0.1-0.5-0.2-0.9-0.3-1.4c-0.1-0.4-0.2-0.8-0.3-1.2c-0.1-0.4-0.2-0.7-0.3-1
		c-0.1-0.5-0.2-1-0.3-1.4c-0.1-0.4-0.2-0.8-0.3-1.2c-0.1-0.4-0.2-0.7-0.3-1.1c-0.1-0.4-0.2-0.8-0.3-1.3c-0.1-0.5-0.2-0.9-0.3-1.4
		c-0.1-0.4-0.2-0.7-0.3-1.1c-0.1-0.4-0.2-0.8-0.3-1.3c-0.1-0.4-0.2-0.8-0.3-1.2c-0.1-0.4-0.2-0.8-0.3-1.3c-0.1-0.5-0.2-1-0.3-1.5
		c-0.1-0.4-0.2-0.7-0.3-1c-0.1-0.4-0.2-0.9-0.3-1.3c-0.1-0.4-0.2-0.8-0.3-1.2c-0.1-0.4-0.2-0.7-0.2-1.1c-0.1-0.5-0.2-1-0.3-1.5
		c-0.1-0.4-0.2-0.8-0.3-1.3c-0.1-0.4-0.2-0.9-0.3-1.3c-0.1-0.4-0.2-0.9-0.3-1.3c-0.1-0.4-0.2-0.8-0.3-1.3c-0.1-0.4-0.2-0.9-0.3-1.3
		c-0.1-0.4-0.2-0.7-0.2-1.1c-0.1-0.5-0.2-1-0.3-1.5c-0.1-0.4-0.2-0.8-0.3-1.3c-0.1-0.4-0.2-0.8-0.3-1.2c-0.1-0.5-0.2-1-0.3-1.5
		c-0.1-0.4-0.2-0.9-0.3-1.3c-0.1-0.4-0.2-0.9-0.3-1.3c-0.1-0.4-0.2-0.7-0.3-1.1c-0.1-0.5-0.2-1-0.3-1.5c-0.1-0.4-0.2-0.9-0.3-1.3
		c-0.1-0.4-0.2-0.7-0.2-1.1c-0.1-0.5-0.2-1-0.3-1.5c-0.1-0.4-0.2-0.9-0.3-1.3c-0.1-0.4-0.2-0.8-0.3-1.1c-0.1-0.5-0.2-1-0.3-1.5
		c-0.1-0.4-0.2-0.9-0.3-1.3c-0.1-0.4-0.2-0.9-0.3-1.3c-0.1-0.4-0.2-0.8-0.3-1.1c-0.1-0.5-0.2-1-0.3-1.5c-0.1-0.4-0.2-0.9-0.3-1.3
		c-0.1-0.5-0.2-0.9-0.3-1.4c-0.1-0.4-0.2-0.9-0.3-1.3c-0.1-0.4-0.2-0.9-0.3-1.3c-0.1-0.4-0.2-0.8-0.3-1.2c-0.1-0.5-0.2-1-0.3-1.5
		c-0.1-0.4-0.2-0.9-0.3-1.3c-0.1-0.5-0.2-0.9-0.3-1.4c-0.1-0.4-0.2-0.9-0.3-1.3c-0.1-0.5-0.2-1-0.4-1.6c-0.1-0.4-0.2-0.8-0.3-1.1
		c-0.1-0.4-0.2-0.9-0.3-1.3c-0.1-0.5-0.2-0.9-0.3-1.4c-0.1-0.5-0.2-1-0.3-1.5c-0.1-0.4-0.2-0.7-0.3-1.1c-0.1-0.5-0.2-0.9-0.3-1.4
		c-0.1-0.5-0.2-1-0.3-1.5c-0.1-0.4-0.2-0.8-0.3-1.1c-0.1-0.5-0.2-1-0.3-1.5c-0.1-0.4-0.2-0.9-0.3-1.3c-0.1-0.4-0.2-0.8-0.3-1.2
		c-0.1-0.5-0.2-1-0.3-1.5c-0.1-0.4-0.2-0.9-0.3-1.3c-0.1-0.5-0.2-0.9-0.3-1.4c-0.1-0.4-0.2-0.9-0.3-1.3c-0.1-0.4-0.2-0.9-0.3-1.3
		c-0.1-0.4-0.2-0.9-0.3-1.3c-0.1-0.4-0.2-0.9-0.3-1.3c-0.1-0.5-0.2-1-0.4-1.5c-0.1-0.4-0.2-0.8-0.3-1.2c-0.1-0.5-0.2-1-0.4-1.5
		c-0.1-0.4-0.2-0.7-0.3-1.1c-0.1-0.5-0.2-1-0.4-1.6c-0.1-0.4-0.2-0.8-0.3-1.3c-0.1-0.4-0.2-0.9-0.3-1.3c-0.1-0.4-0.2-0.9-0.3-1.3
		c-0.1-0.4-0.2-0.9-0.3-1.3c-0.1-0.4-0.2-0.9-0.3-1.3c-0.1-0.4-0.2-0.9-0.3-1.3c-0.1-0.4-0.2-0.8-0.3-1.3c-0.1-0.6-0.3-1.2-0.4-1.7
		c-0.1-0.4-0.2-0.9-0.3-1.3c-0.1-0.3-0.1-0.6-0.2-0.9c-0.1-0.6-0.3-1.1-0.5-1.7c-0.1-0.4-0.2-0.8-0.3-1.3c-0.1-0.4-0.2-0.8-0.3-1.3
		c-0.1-0.4-0.2-0.9-0.3-1.3c-0.1-0.5-0.2-1-0.4-1.5c-0.1-0.4-0.2-0.7-0.3-1.1c-0.1-0.5-0.2-1-0.4-1.5c-0.1-0.4-0.2-0.9-0.4-1.3
		c-0.1-0.4-0.2-0.7-0.3-1.1c-0.1-0.5-0.2-0.9-0.4-1.4c-0.1-0.5-0.3-1-0.4-1.5c-0.1-0.4-0.2-0.7-0.3-1.1c-0.1-0.4-0.2-0.8-0.3-1.2
		c-0.1-0.5-0.3-1-0.4-1.5c-0.1-0.4-0.2-0.9-0.4-1.3c-0.1-0.3-0.2-0.7-0.3-1c-0.1-0.5-0.3-0.9-0.4-1.4c-0.1-0.5-0.3-1-0.4-1.5
		c-0.1-0.3-0.2-0.7-0.3-1c-0.1-0.4-0.2-0.8-0.4-1.2c-0.1-0.5-0.3-1-0.4-1.4c-0.1-0.4-0.2-0.8-0.4-1.2c-0.1-0.4-0.2-0.8-0.4-1.2
		c-0.1-0.4-0.2-0.8-0.4-1.2c-0.1-0.4-0.2-0.8-0.4-1.2c-0.2-0.6-0.3-1.1-0.5-1.7c-0.1-0.4-0.2-0.7-0.3-1.1c-0.1-0.5-0.3-0.9-0.4-1.4
		c-0.1-0.4-0.3-0.8-0.4-1.2c-0.1-0.4-0.2-0.8-0.4-1.2c-0.1-0.5-0.3-0.9-0.5-1.4c-0.1-0.3-0.2-0.6-0.3-1c-0.1-0.5-0.3-0.9-0.5-1.4
		c-0.1-0.4-0.3-0.8-0.4-1.1c-0.1-0.4-0.3-0.8-0.4-1.2c-0.1-0.4-0.3-0.8-0.4-1.2c-0.1-0.4-0.3-0.9-0.5-1.3c-0.1-0.4-0.3-0.7-0.4-1.1
		c-0.1-0.4-0.3-0.8-0.5-1.2c-0.1-0.4-0.2-0.7-0.4-1c-0.1-0.4-0.3-0.8-0.5-1.2c-0.2-0.6-0.4-1.1-0.6-1.6c-0.1-0.2-0.1-0.4-0.2-0.5
		c-0.2-0.6-0.4-1.1-0.6-1.7c-0.1-0.4-0.3-0.8-0.4-1.1c-0.2-0.4-0.3-0.9-0.5-1.3c-0.1-0.3-0.2-0.6-0.4-0.9c-0.2-0.4-0.3-0.8-0.5-1.2
		c-0.2-0.4-0.3-0.8-0.5-1.2c-0.1-0.4-0.3-0.7-0.4-1c-0.2-0.4-0.3-0.8-0.5-1.2c-0.1-0.4-0.3-0.8-0.5-1.2c-0.1-0.3-0.2-0.6-0.4-0.8
		c-0.2-0.6-0.5-1.2-0.8-1.8c-0.1-0.1-0.1-0.3-0.2-0.4c-0.2-0.6-0.5-1.1-0.7-1.7c-0.2-0.4-0.3-0.7-0.5-1.1c-0.2-0.4-0.3-0.7-0.5-1.1
		c-0.1-0.3-0.3-0.7-0.5-1c-0.2-0.4-0.4-0.8-0.6-1.2c-0.2-0.4-0.3-0.7-0.5-1c-0.2-0.3-0.3-0.7-0.5-1c-0.1-0.3-0.3-0.6-0.5-1
		c-0.2-0.4-0.4-0.8-0.6-1.2c-0.1-0.3-0.3-0.6-0.4-0.8c-0.3-0.6-0.6-1.2-0.9-1.8c-0.1-0.3-0.3-0.5-0.4-0.7c-0.2-0.4-0.4-0.8-0.6-1.2
		c-0.2-0.4-0.4-0.7-0.6-1.1c-0.1-0.3-0.3-0.5-0.4-0.8c-0.2-0.4-0.4-0.7-0.6-1.1c-0.2-0.4-0.4-0.7-0.6-1.1c-0.2-0.3-0.3-0.6-0.5-0.9
		c-0.3-0.5-0.5-1-0.8-1.4c-0.2-0.4-0.5-0.8-0.7-1.2c-0.2-0.3-0.3-0.6-0.5-0.8c-0.2-0.3-0.3-0.6-0.5-0.8c-0.2-0.3-0.4-0.7-0.6-1
		c-0.3-0.5-0.6-1.1-1-1.6c-0.1-0.1-0.1-0.2-0.2-0.3c-0.3-0.5-0.6-1-1-1.5c-0.2-0.3-0.4-0.6-0.6-0.9c-0.2-0.2-0.3-0.5-0.5-0.7
		c-0.3-0.4-0.6-0.8-0.9-1.3c-0.1-0.2-0.3-0.4-0.4-0.6c-0.3-0.5-0.7-1-1.1-1.5c-0.2-0.3-0.4-0.6-0.6-0.8c-0.2-0.3-0.4-0.6-0.6-0.8
		c-0.2-0.3-0.5-0.6-0.7-1c-0.2-0.3-0.4-0.5-0.6-0.8c-0.2-0.2-0.4-0.5-0.6-0.7c-0.4-0.5-0.8-1-1.2-1.6c-0.2-0.3-0.4-0.5-0.7-0.8
		c-0.2-0.3-0.4-0.5-0.6-0.8c-0.2-0.3-0.5-0.6-0.8-0.9c-0.4-0.4-0.7-0.9-1.1-1.3c-0.2-0.3-0.4-0.5-0.7-0.7c-0.2-0.3-0.4-0.5-0.7-0.7
		c-0.3-0.3-0.5-0.6-0.8-0.8c-0.4-0.5-0.9-0.9-1.3-1.4c-0.2-0.2-0.4-0.4-0.6-0.6c-0.3-0.3-0.5-0.5-0.8-0.8c-0.3-0.3-0.5-0.5-0.8-0.8
		c-0.4-0.4-0.8-0.8-1.3-1.2c-0.3-0.3-0.6-0.5-0.8-0.8c-0.2-0.2-0.4-0.4-0.6-0.5c-0.5-0.5-1-0.9-1.6-1.4c-0.2-0.2-0.5-0.4-0.7-0.6
		c-0.2-0.2-0.4-0.3-0.6-0.5c-0.6-0.5-1.2-1-1.8-1.4c-0.2-0.2-0.4-0.3-0.6-0.5c-0.3-0.2-0.5-0.4-0.8-0.6c-0.3-0.3-0.7-0.5-1-0.8
		c-0.2-0.2-0.4-0.3-0.6-0.5c-0.6-0.4-1.1-0.8-1.7-1.2c-0.2-0.2-0.4-0.3-0.7-0.5c-0.6-0.4-1.1-0.8-1.7-1.1c-0.2-0.2-0.5-0.3-0.7-0.4
		c-0.4-0.2-0.7-0.4-1.1-0.7c-0.6-0.3-1.1-0.7-1.7-1c-0.2-0.1-0.5-0.3-0.7-0.4c-0.3-0.2-0.6-0.3-0.9-0.5c-0.6-0.3-1.1-0.6-1.7-0.9
		c-0.3-0.2-0.7-0.3-1-0.5c-0.6-0.3-1.1-0.5-1.7-0.8c-0.3-0.1-0.6-0.3-1-0.4c-0.6-0.3-1.3-0.6-1.9-0.8c-0.2-0.1-0.5-0.2-0.7-0.3
		c-0.4-0.2-0.8-0.3-1.2-0.5c-0.7-0.3-1.3-0.5-2-0.7c-0.3-0.1-0.5-0.2-0.8-0.3c-0.4-0.1-0.7-0.3-1.1-0.4c-0.6-0.2-1.3-0.4-1.9-0.6
		c-0.4-0.1-0.7-0.2-1.1-0.3c-0.7-0.2-1.3-0.4-2-0.5c-0.3-0.1-0.6-0.2-0.9-0.2c-0.3-0.1-0.7-0.2-1-0.2c-0.7-0.2-1.4-0.3-2.2-0.4
		c-0.3-0.1-0.6-0.1-1-0.2c-0.7-0.1-1.4-0.3-2.1-0.3c-0.3,0-0.7-0.1-1-0.1c-0.3-0.1-0.7-0.1-1-0.1c-0.7-0.1-1.5-0.2-2.2-0.2
		c-0.3,0-0.7-0.1-1-0.1c-0.7-0.1-1.3-0.1-2-0.1c-0.4,0-0.8,0-1.2-0.1c-0.7,0-1.4-0.1-2.1-0.1c-0.1,0-0.1,0-0.2,0c-0.2,0-0.4,0-0.6,0
		c-0.1,0-0.1,0-0.2,0c-0.2,0-0.4,0-0.6,0c-0.6,0-1.2,0-1.8,0c-0.3,0-0.5,0-0.8,0c-0.4,0-0.8,0-1.2,0.1c-0.8,0-1.5,0.1-2.2,0.1
		c-0.3,0-0.7,0.1-1,0.1c-0.3,0-0.7,0.1-1,0.1c-0.7,0.1-1.5,0.1-2.2,0.2c-0.2,0-0.5,0.1-0.7,0.1c-0.1,0-0.2,0-0.3,0
		c-0.7,0.1-1.3,0.1-2,0.2c-0.2,0-0.5,0-0.7,0.1c-0.3,0-0.6,0.1-0.9,0.1c-0.7,0.1-1.4,0.2-2.2,0.3c-0.2,0-0.5,0.1-0.7,0.1
		c-0.3,0-0.6,0.1-0.9,0.2c-0.7,0.1-1.4,0.3-2.1,0.4c-0.2,0-0.5,0.1-0.7,0.2c-0.3,0.1-0.6,0.1-0.8,0.2c-0.6,0.1-1.2,0.3-1.9,0.5
		c-0.3,0.1-0.6,0.2-0.9,0.2c-0.3,0.1-0.6,0.2-0.8,0.2c-0.6,0.2-1.3,0.4-1.9,0.6c-0.2,0.1-0.4,0.1-0.5,0.2c-0.4,0.1-0.7,0.2-1.1,0.4
		c-0.6,0.2-1.2,0.4-1.9,0.7c-0.2,0.1-0.4,0.1-0.6,0.2c-0.3,0.1-0.5,0.2-0.8,0.3c-0.7,0.2-1.3,0.5-1.9,0.8c-0.2,0.1-0.5,0.2-0.7,0.3
		c-0.3,0.1-0.5,0.2-0.8,0.3c-0.6,0.3-1.2,0.5-1.8,0.8c-0.2,0.1-0.4,0.2-0.7,0.3c-0.3,0.1-0.5,0.3-0.8,0.4c-0.6,0.3-1.1,0.6-1.7,0.9
		c-0.2,0.1-0.5,0.2-0.7,0.4c-0.2,0.1-0.5,0.3-0.7,0.4c-0.2,0.1-0.5,0.3-0.7,0.4c-0.6,0.3-1.1,0.6-1.7,1c-0.2,0.1-0.5,0.3-0.7,0.4
		c-0.5,0.3-1,0.6-1.5,1c-0.2,0.1-0.4,0.3-0.7,0.4c-0.3,0.2-0.6,0.4-0.8,0.6c-0.2,0.1-0.4,0.3-0.5,0.4c-0.5,0.4-1.1,0.7-1.6,1.1
		c-0.2,0.2-0.5,0.3-0.7,0.5c-0.2,0.2-0.5,0.3-0.7,0.5c-0.5,0.3-0.9,0.7-1.4,1.1c-0.2,0.2-0.4,0.3-0.6,0.5c-0.2,0.2-0.4,0.3-0.6,0.5
		c-0.2,0.2-0.4,0.4-0.7,0.5c-0.5,0.4-1,0.8-1.5,1.2c-0.2,0.2-0.4,0.4-0.6,0.6c-0.2,0.2-0.4,0.4-0.6,0.6c-0.2,0.2-0.3,0.3-0.5,0.5
		c-0.5,0.5-1,0.9-1.5,1.4c-0.2,0.2-0.3,0.3-0.5,0.5c-0.2,0.2-0.3,0.3-0.5,0.5c-0.2,0.2-0.5,0.5-0.7,0.7c-0.4,0.4-0.9,0.9-1.3,1.4
		c-0.2,0.2-0.3,0.3-0.5,0.5c-0.2,0.2-0.4,0.4-0.6,0.6c-0.2,0.2-0.5,0.5-0.7,0.7c-0.4,0.4-0.8,0.9-1.1,1.3c-0.1,0.2-0.3,0.3-0.4,0.5
		c-0.2,0.2-0.4,0.5-0.6,0.7c-0.2,0.3-0.4,0.5-0.7,0.8c-0.1,0.2-0.3,0.4-0.4,0.5c-0.4,0.5-0.8,1-1.2,1.5c-0.2,0.2-0.3,0.4-0.5,0.7
		c-0.2,0.2-0.4,0.5-0.6,0.7c-0.2,0.2-0.3,0.5-0.5,0.7c-0.1,0.2-0.3,0.4-0.4,0.6c-0.4,0.5-0.7,1-1,1.5c-0.2,0.3-0.4,0.5-0.5,0.8
		c-0.1,0.2-0.2,0.3-0.3,0.5c-0.3,0.4-0.5,0.7-0.8,1.1c-0.1,0.2-0.2,0.3-0.3,0.5c-0.2,0.3-0.4,0.6-0.6,0.9c-0.1,0.2-0.3,0.4-0.4,0.6
		c-0.3,0.5-0.6,1-0.9,1.5c-0.2,0.3-0.3,0.5-0.5,0.8c-0.1,0.2-0.3,0.4-0.4,0.7c-0.2,0.3-0.3,0.5-0.5,0.8c-0.2,0.3-0.3,0.5-0.5,0.8
		c-0.3,0.5-0.6,1-0.9,1.6c-0.1,0.2-0.3,0.5-0.4,0.7c-0.1,0.3-0.3,0.5-0.4,0.8c-0.1,0.3-0.3,0.5-0.4,0.8c-0.2,0.3-0.3,0.6-0.5,0.9
		c-0.1,0.3-0.3,0.5-0.4,0.8c-0.1,0.2-0.3,0.5-0.4,0.7c-0.3,0.5-0.6,1.1-0.8,1.6c-0.1,0.3-0.3,0.5-0.4,0.8c-0.1,0.3-0.3,0.5-0.4,0.8
		c-0.1,0.3-0.2,0.5-0.4,0.8c-0.2,0.3-0.3,0.6-0.5,0.9c-0.1,0.3-0.3,0.6-0.4,0.9c-0.1,0.2-0.2,0.5-0.3,0.7c-0.1,0.3-0.3,0.6-0.4,0.9
		c-0.2,0.3-0.3,0.6-0.4,1c-0.2,0.5-0.4,1-0.7,1.5c-0.1,0.3-0.2,0.5-0.3,0.8c-0.1,0.3-0.3,0.6-0.4,0.9c-0.1,0.3-0.3,0.7-0.4,1
		c-0.1,0.3-0.2,0.6-0.4,0.9c-0.1,0.3-0.2,0.6-0.4,0.9c-0.1,0.3-0.2,0.5-0.3,0.8c-0.2,0.4-0.3,0.7-0.4,1.1c-0.1,0.3-0.2,0.6-0.3,0.8
		c-0.1,0.3-0.2,0.6-0.3,0.9c-0.1,0.3-0.2,0.6-0.3,0.9c-0.2,0.5-0.4,1.1-0.6,1.6c-0.1,0.3-0.2,0.6-0.3,0.9c-0.1,0.3-0.2,0.7-0.3,1
		c-0.1,0.3-0.2,0.5-0.3,0.8c-0.1,0.4-0.3,0.8-0.4,1.2c-0.1,0.3-0.2,0.5-0.3,0.8c-0.1,0.3-0.2,0.7-0.3,1c-0.1,0.3-0.2,0.6-0.3,0.8
		c-0.1,0.4-0.3,0.8-0.4,1.2c-0.1,0.2-0.2,0.5-0.2,0.7c-0.1,0.4-0.2,0.7-0.4,1.1c-0.2,0.6-0.4,1.1-0.5,1.7c0,0.1,0,0.1-0.1,0.2
		c-0.2,0.6-0.4,1.1-0.5,1.7c-0.1,0.3-0.2,0.7-0.3,1c-0.1,0.3-0.2,0.6-0.3,0.9c-0.1,0.3-0.2,0.7-0.3,1c-0.1,0.4-0.2,0.8-0.3,1.1
		c-0.1,0.3-0.2,0.6-0.3,0.9c-0.1,0.3-0.2,0.7-0.3,1c-0.1,0.3-0.2,0.6-0.3,1c-0.1,0.3-0.2,0.7-0.3,1c-0.1,0.4-0.2,0.8-0.3,1.2
		c-0.1,0.3-0.2,0.7-0.3,1c-0.1,0.3-0.2,0.7-0.3,1c-0.2,0.6-0.3,1.2-0.5,1.7c0,0.1,0,0.2-0.1,0.3c-0.2,0.6-0.3,1.1-0.4,1.7
		c-0.1,0.3-0.2,0.7-0.3,1c-0.1,0.3-0.2,0.7-0.3,1.1c-0.1,0.4-0.2,0.8-0.3,1.2c-0.1,0.3-0.1,0.5-0.2,0.8c-0.1,0.4-0.2,0.8-0.3,1.3
		c-0.1,0.3-0.2,0.7-0.2,1c-0.1,0.4-0.2,0.8-0.3,1.2c-0.1,0.3-0.1,0.6-0.2,0.9c-0.1,0.4-0.2,0.8-0.3,1.3c-0.1,0.3-0.1,0.7-0.2,1
		c-0.1,0.4-0.2,0.7-0.2,1.1c-0.1,0.3-0.1,0.7-0.2,1c-0.1,0.4-0.2,0.8-0.3,1.3c-0.1,0.3-0.1,0.6-0.2,0.9c-0.1,0.4-0.2,0.8-0.3,1.2
		c-0.1,0.4-0.2,0.8-0.2,1.1c-0.1,0.6-0.2,1.1-0.3,1.7c0,0.1-0.1,0.3-0.1,0.4c-0.1,0.6-0.2,1.2-0.3,1.7c-0.1,0.4-0.1,0.7-0.2,1.1
		c-0.1,0.4-0.1,0.7-0.2,1.1c-0.1,0.4-0.1,0.7-0.2,1.1c-0.1,0.4-0.2,0.9-0.2,1.3c-0.1,0.3-0.1,0.6-0.2,0.9c-0.1,0.4-0.2,0.9-0.2,1.3
		c-0.1,0.4-0.1,0.7-0.2,1.1c-0.1,0.4-0.1,0.7-0.2,1.1c-0.1,0.4-0.2,0.9-0.2,1.3c-0.1,0.3-0.1,0.6-0.1,0.9c-0.1,0.5-0.2,0.9-0.2,1.4
		c-0.1,0.4-0.1,0.7-0.2,1.1c-0.1,0.4-0.1,0.8-0.2,1.2c-0.1,0.4-0.1,0.9-0.2,1.3c-0.1,0.3-0.1,0.6-0.1,0.9c-0.1,0.4-0.1,0.9-0.2,1.4
		c-0.1,0.4-0.1,0.8-0.2,1.1c-0.1,0.4-0.1,0.7-0.2,1.1c-0.1,0.4-0.1,0.8-0.2,1.2c-0.1,0.4-0.1,0.7-0.2,1.1c-0.1,0.6-0.2,1.2-0.3,1.8
		c0,0.2-0.1,0.4-0.1,0.6c-0.1,0.6-0.2,1.2-0.2,1.8c-0.1,0.4-0.1,0.8-0.2,1.2c-0.1,0.4-0.1,0.9-0.2,1.4c0,0.3-0.1,0.6-0.1,1
		c-0.1,0.5-0.1,0.9-0.2,1.4c0,0.3-0.1,0.6-0.1,1c-0.1,0.5-0.1,0.9-0.2,1.4c-0.1,0.4-0.1,0.8-0.1,1.2c-0.1,0.4-0.1,0.8-0.1,1.2
		c-0.1,0.5-0.1,0.9-0.2,1.4c0,0.3-0.1,0.6-0.1,1c-0.1,0.5-0.1,0.9-0.2,1.4c-0.1,0.4-0.1,0.8-0.1,1.2c-0.1,0.4-0.1,0.8-0.1,1.2
		c-0.1,0.4-0.1,0.8-0.1,1.2c-0.1,0.5-0.1,0.9-0.2,1.4c0,0.3-0.1,0.6-0.1,1c-0.1,0.5-0.1,0.9-0.2,1.4c0,0.3-0.1,0.7-0.1,1
		c-0.1,0.5-0.1,0.9-0.1,1.4c-0.1,0.4-0.1,0.8-0.1,1.2c-0.1,0.5-0.1,0.9-0.1,1.4c0,0.3-0.1,0.7-0.1,1c-0.1,0.5-0.1,0.9-0.1,1.4
		c0,0.3-0.1,0.7-0.1,1c-0.1,0.5-0.1,0.9-0.1,1.4c0,0.4-0.1,0.8-0.1,1.2c0,0.4-0.1,0.8-0.1,1.2c0,0.4-0.1,0.8-0.1,1.2
		c-0.1,0.6-0.1,1.2-0.2,1.8c0,0.2,0,0.4-0.1,0.6c-0.1,0.6-0.1,1.2-0.2,1.8c0,0.4-0.1,0.8-0.1,1.2c0,0.4-0.1,0.8-0.1,1.2
		c0,0.4-0.1,0.8-0.1,1.2c0,0.4-0.1,0.8-0.1,1.2c0,0.4-0.1,0.8-0.1,1.2c0,0.5-0.1,0.9-0.1,1.4c0,0.3-0.1,0.7-0.1,1
		c0,0.5-0.1,0.9-0.1,1.4c0,0.4-0.1,0.8-0.1,1.2c0,0.4-0.1,0.8-0.1,1.2c0,0.4-0.1,0.8-0.1,1.2c0,0.4-0.1,0.8-0.1,1.2
		c0,0.5-0.1,0.9-0.1,1.4c0,0.3-0.1,0.7-0.1,1c0,0.5-0.1,1-0.1,1.4c0,0.4-0.1,0.8-0.1,1.2c0,0.4-0.1,0.8-0.1,1.2c0,0.3-0.1,0.7-0.1,1
		c0,0.5-0.1,1.1-0.1,1.6c0,0.3,0,0.7-0.1,1c0,0.4-0.1,0.8-0.1,1.2c0,0.5-0.1,1-0.1,1.4c0,0.3,0,0.7-0.1,1c0,0.5-0.1,1-0.1,1.4
		c0,0.4-0.1,0.8-0.1,1.2c0,0.3,0,0.7-0.1,1c0,0.5-0.1,1-0.1,1.4c0,0.5-0.1,1-0.1,1.4c0,0.3,0,0.7-0.1,1c0,0.4-0.1,0.8-0.1,1.2
		c0,0.4-0.1,0.8-0.1,1.2c0,0.5-0.1,1-0.1,1.4c0,0.4,0,0.8-0.1,1.2c0,0.3,0,0.7-0.1,1c0,0.5-0.1,1-0.1,1.4c0,0.4,0,0.8-0.1,1.2
		c0,0.4,0,0.8-0.1,1.3c0,0.4,0,0.8-0.1,1.2c0,0.5-0.1,1-0.1,1.4c0,0.3,0,0.7,0,1c0,0.4,0,0.8-0.1,1.2c0,0.5-0.1,1-0.1,1.4
		c0,0.3,0,0.7,0,1c0,0.5-0.1,1-0.1,1.4c0,0.4,0,0.8,0,1.2c0,0.4,0,0.8,0,1.2c0,0.4,0,0.8,0,1.2c0,0.4,0,0.8,0,1.2c0,0.4,0,0.8,0,1.2
		c0,0.4,0,0.8,0,1.2c0,0.4,0,0.8,0,1.2c0,0.6-0.1,1.2-0.1,1.8c0,0,0,0,0,0c0,0.2,0,0.4,0,0.7c0,0.6-0.1,1.2-0.1,1.8c0,0,0,0,0,0
		c0,0.4,0,0.8,0,1.2c0,0,0,0,0,0c0,0.2,0,0.4,0,0.7c0,0.6-0.1,1.2-0.1,1.8c0,0,0,0,0,0c0,0.4,0,0.8,0,1.2c0,0,0,0,0,0
		c0,0.4,0,0.8,0,1.2c0,0,0,0,0,0c0,0.4,0,0.8,0,1.2c0,0,0,0,0,0c0,0.4,0,0.8,0,1.2c0,0,0,0,0,0c0,0.4,0,0.8,0,1.2c0,0,0,0,0,0
		c0,0.4,0,0.8,0,1.2c0,0,0,0,0,0c0,0.4,0,0.8,0,1.2c0,0.1,0,0.1,0,0.2c0,0.3,0,0.7,0,1c0,0,0,0,0,0c0,0.4,0,0.8,0,1.2
		c0,0.1,0,0.1,0,0.2c0,0.3,0,0.7,0,1c0,0,0,0,0,0c0,0.4,0,0.8,0,1.2c0,0.1,0,0.1,0,0.2c0,0.3,0,0.7,0,1c0,0,0,0,0,0
		c0,0.4,0,0.8,0,1.2c0,0.1,0,0.1,0,0.2c0,0.3,0,0.7,0,1c0,0.1,0,0.1,0,0.2c0,0.3,0,0.7,0,1c0,0.1,0,0.1,0,0.2c0,0.3,0,0.7,0,1
		c0,0.1,0,0.1,0,0.2c0,0.3,0,0.7,0,1c0,0.4,0,0.8,0,1.2c0,0.1,0,0.1,0,0.2c0,0.3,0,0.7,0,1c0,0.1,0,0.3,0,0.4c0,0.3,0,0.5,0,0.8
		c0,0.1,0,0.1,0,0.2c0,0.3,0,0.7,0,1c0,0.1,0,0.1,0,0.2c0,0.3,0,0.7,0,1c0,0.1,0,0.1,0,0.2c0,0.3,0,0.7,0,1c0,0.1,0,0.1,0,0.2
		c0,0.3,0,0.7,0,1c0,0.1,0,0.3,0,0.4c0,0.3,0,0.5,0,0.8c0,0.1,0,0.1,0,0.2c0,0.3,0,0.7,0,1c0,0.1,0,0.3,0,0.4c0,0.3,0,0.5,0,0.8
		c0,0.1,0,0.1,0,0.2c0,0.3,0,0.7,0,1c0,0.1,0,0.3,0,0.4c0,0.3,0,0.5,0,0.8c0,0.1,0,0.1,0,0.2c0,0.3,0,0.7,0,1c0,0.1,0,0.3,0,0.4
		c0,0.3,0,0.5,0,0.8c0,0.1,0,0.3,0,0.4c0,0.3,0,0.5,0,0.8c0,0.1,0,0.1,0,0.2c0,0.3,0,0.7,0,1c0,0.1,0,0.3,0,0.4c0,0.3,0,0.5,0,0.8
		c0,0.1,0,0.3,0,0.4c0,0.3,0,0.5,0,0.8c0,0.1,0,0.3,0,0.4c0,0.3,0,0.5,0,0.8c0,0.1,0,0.3,0,0.4c0,0.3,0,0.5,0,0.8c0,0.1,0,0.3,0,0.4
		c0,0.3,0,0.5,0,0.8c0,0.1,0,0.3,0,0.4c0,0.3,0,0.5,0,0.8c0,0.1,0,0.3,0,0.4c0,0.3,0,0.5,0,0.8c0,0.1,0,0.3,0,0.4c0,0.3,0,0.5,0,0.8
		c0,0.1,0,0.3,0,0.4c0,0.3,0,0.5,0,0.8c0,0.1,0,0.3,0,0.4c0,0.3,0,0.5,0,0.8c0,0.1,0,0.3,0,0.4c0,0.3,0,0.5,0,0.8c0,0.1,0,0.3,0,0.4
		c0,0.3,0,0.5,0,0.8c0,0.1,0,0.3,0,0.4c0,0.3,0,0.5,0,0.8c0,0.2,0,0.4,0,0.6s0,0.4,0,0.6c0,0.1,0,0.3,0,0.4c0,0.3,0,0.5,0,0.8
		c0,0.1,0,0.3,0,0.4c0,0.3,0,0.5,0,0.8c0,0.1,0,0.3,0,0.4c0,0.3,0,0.5,0,0.8c0,0.2,0,0.4,0,0.6c0,0.2,0,0.4,0,0.6c0,0.1,0,0.2,0,0.4
		c0,0.3,0,0.5,0,0.8c0,0.1,0,0.2,0,0.4c0,0.3,0,0.5,0,0.8c0,0.2,0,0.4,0,0.6c0,0.2,0,0.4,0,0.6c0,0.1,0,0.2,0,0.4c0,0.3,0,0.5,0,0.8
		c0,0.2,0,0.4,0,0.6s0,0.4,0,0.6c0,0.1,0,0.2,0,0.4c0,0.3,0,0.5,0,0.8c0,0.2,0,0.4,0,0.6s0,0.4,0,0.6c0,0.1,0,0.2,0,0.4
		c0,0.3,0,0.5,0,0.8c0,0.2,0,0.4,0,0.6s0,0.4,0,0.6c0,0.1,0,0.2,0,0.4c0,0.3,0,0.5,0,0.8c0,0.2,0,0.4,0,0.6s0,0.4,0,0.6
		c0,0.1,0,0.2,0,0.4c0,0.3,0,0.5,0,0.8c0,0.2,0,0.4,0,0.5c0,0.2,0,0.4,0,0.5c0,0.2,0,0.4,0,0.5c0,0.2,0,0.4,0,0.6c0,0.1,0,0.2,0,0.4
		c0,0.3,0,0.5,0,0.7c0,0.2,0,0.4,0,0.5s0,0.4,0,0.5c0,0.1,0,0.2,0,0.3c0,0.3,0,0.5,0,0.7c0,0.2,0,0.4,0,0.5c0,0.2,0,0.4,0,0.5
		s0,0.4,0,0.5c0,0.2,0,0.4,0,0.5c0,0.1,0,0.2,0,0.3c0,0.2,0,0.5,0,0.7c0,0.2,0,0.4,0,0.5c0,0.2,0,0.4,0,0.5c0,0.1,0,0.2,0,0.3
		c0,0.2,0,0.5,0,0.7c0,0.2,0,0.4,0,0.5s0,0.4,0,0.5s0,0.4,0,0.5c0,0.2,0,0.4,0,0.5c0,0.1,0,0.2,0,0.3c0,0.2,0,0.5,0,0.7
		c0,0.2,0,0.4,0,0.5s0,0.4,0,0.5c0,0.1,0,0.2,0,0.3c0,0.2,0,0.5,0,0.7c0,0.2,0,0.4,0,0.5c0,0.2,0,0.4,0,0.5s0,0.4,0,0.5
		c0,0.2,0,0.4,0,0.5c0,0.1,0,0.2,0,0.3c0,0.2,0,0.5,0,0.7c0,0.2,0,0.3,0,0.5c0,0.2,0,0.3,0,0.5c0,0.1,0,0.2,0,0.3c0,0.2,0,0.5,0,0.7
		c0,17.3,15.6,31.3,34.8,31.3c19.2,0,34.8-14,34.8-31.3c0-0.1,0-0.2,0-0.3c0-0.2,0-0.5,0-0.7c0-0.2,0-0.3,0-0.5c0-0.2,0-0.3,0-0.5
		c0-0.1,0-0.2,0-0.3c0-0.2,0-0.5,0-0.7c0-0.2,0-0.4,0-0.5c0-0.2,0-0.4,0-0.5s0-0.4,0-0.5c0-0.2,0-0.4,0-0.5c0-0.1,0-0.2,0-0.3
		c0-0.2,0-0.5,0-0.7c0-0.2,0-0.4,0-0.5s0-0.4,0-0.5c0-0.1,0-0.2,0-0.3c0-0.2,0-0.5,0-0.7c0-0.2,0-0.4,0-0.5c0-0.2,0-0.4,0-0.5
		s0-0.4,0-0.5s0-0.4,0-0.5c0-0.1,0-0.2,0-0.3c0-0.2,0-0.5,0-0.7c0-0.2,0-0.4,0-0.5c0-0.2,0-0.4,0-0.5c0-0.1,0-0.2,0-0.3
		c0-0.2,0-0.5,0-0.7c0-0.2,0-0.4,0-0.5c0-0.2,0-0.4,0-0.5s0-0.4,0-0.5c0-0.2,0-0.4,0-0.5c0-0.1,0-0.2,0-0.3c0-0.3,0-0.5,0-0.7
		c0-0.2,0-0.4,0-0.5s0-0.4,0-0.5c0-0.1,0-0.2,0-0.4c0-0.3,0-0.5,0-0.7c0-0.2,0-0.4,0-0.6c0-0.2,0-0.4,0-0.5c0-0.2,0-0.4,0-0.5
		c0-0.2,0-0.4,0-0.5c0-0.1,0-0.2,0-0.4c0-0.3,0-0.5,0-0.8c0-0.2,0-0.4,0-0.6s0-0.4,0-0.6c0-0.1,0-0.2,0-0.4c0-0.3,0-0.5,0-0.8
		c0-0.2,0-0.4,0-0.6s0-0.4,0-0.6c0-0.1,0-0.2,0-0.4c0-0.3,0-0.5,0-0.8c0-0.2,0-0.4,0-0.6s0-0.4,0-0.6c0-0.1,0-0.2,0-0.4
		c0-0.3,0-0.5,0-0.8c0-0.2,0-0.4,0-0.6s0-0.4,0-0.6c0-0.1,0-0.2,0-0.4c0-0.3,0-0.5,0-0.8c0-0.2,0-0.4,0-0.6c0-0.2,0-0.4,0-0.6
		c0-0.1,0-0.2,0-0.4c0-0.3,0-0.5,0-0.8c0-0.1,0-0.2,0-0.4c0-0.3,0-0.5,0-0.8c0-0.2,0-0.4,0-0.6c0-0.2,0-0.4,0-0.6c0-0.1,0-0.2,0-0.4
		c0-0.3,0-0.5,0-0.8c0-0.1,0-0.3,0-0.4c0-0.3,0-0.5,0-0.8c0-0.1,0-0.3,0-0.4c0-0.3,0-0.5,0-0.8c0-0.2,0-0.4,0-0.6s0-0.4,0-0.6
		c0-0.1,0-0.3,0-0.4c0-0.3,0-0.5,0-0.8c0-0.1,0-0.3,0-0.4c0-0.3,0-0.5,0-0.8c0-0.1,0-0.3,0-0.4c0-0.3,0-0.5,0-0.8c0-0.1,0-0.3,0-0.4
		c0-0.3,0-0.5,0-0.8c0-0.1,0-0.3,0-0.4c0-0.3,0-0.5,0-0.8c0-0.1,0-0.3,0-0.4c0-0.3,0-0.5,0-0.8c0-0.1,0-0.3,0-0.4c0-0.3,0-0.5,0-0.8
		c0-0.1,0-0.3,0-0.4c0-0.3,0-0.5,0-0.8c0-0.1,0-0.3,0-0.4c0-0.3,0-0.5,0-0.8c0-0.1,0-0.3,0-0.4c0-0.3,0-0.5,0-0.8c0-0.1,0-0.3,0-0.4
		c0-0.3,0-0.5,0-0.8c0-0.1,0-0.3,0-0.4c0-0.3,0-0.5,0-0.8c0-0.1,0-0.3,0-0.4c0-0.3,0-0.5,0-0.8c0-0.1,0-0.1,0-0.2c0-0.3,0-0.7,0-1
		c0-0.1,0-0.3,0-0.4c0-0.3,0-0.5,0-0.8c0-0.1,0-0.3,0-0.4c0-0.3,0-0.5,0-0.8c0-0.1,0-0.1,0-0.2c0-0.3,0-0.7,0-1c0-0.1,0-0.3,0-0.4
		c0-0.3,0-0.5,0-0.8c0-0.1,0-0.1,0-0.2c0-0.3,0-0.7,0-1c0-0.1,0-0.3,0-0.4c0-0.3,0-0.5,0-0.8c0-0.1,0-0.1,0-0.2c0-0.3,0-0.7,0-1
		c0-0.1,0-0.3,0-0.4c0-0.3,0-0.5,0-0.8c0-0.1,0-0.1,0-0.2c0-0.3,0-0.7,0-1c0-0.1,0-0.1,0-0.2c0-0.3,0-0.7,0-1c0-0.1,0-0.1,0-0.2
		c0-0.3,0-0.7,0-1c0-0.1,0-0.1,0-0.2c0-0.3,0-0.7,0-1c0-0.1,0-0.3,0-0.4c0-0.3,0-0.5,0-0.8c0-0.1,0-0.1,0-0.2c0-0.3,0-0.7,0-1
		c0-0.4,0-0.8,0-1.2c0-0.1,0-0.1,0-0.2c0-0.3,0-0.7,0-1c0-0.1,0-0.1,0-0.2c0-0.3,0-0.7,0-1c0-0.1,0-0.1,0-0.2c0-0.3,0-0.7,0-1
		c0-0.1,0-0.1,0-0.2c0-0.3,0-0.7,0-1c0,0,0,0,0,0c0-0.4,0-0.8,0-1.2c0-0.1,0-0.1,0-0.2c0-0.3,0-0.7,0-1c0,0,0,0,0,0
		c0-0.4,0-0.8,0-1.2c0-0.1,0-0.1,0-0.2c0-0.3,0-0.7,0-1c0,0,0,0,0,0c0-0.4,0-0.8,0-1.2c0-0.1,0-0.1,0-0.2c0-0.3,0-0.7,0-1
		c0,0,0,0,0,0c0-0.4,0-0.8,0-1.2c0,0,0,0,0,0c0-0.4,0-0.8,0-1.2c0,0,0,0,0,0c0-0.4,0-0.8,0-1.2c0,0,0,0,0,0c0-0.4,0-0.8,0-1.2
		c0,0,0,0,0,0c0-0.4,0-0.8,0-1.2c0,0,0,0,0,0c0-0.4,0-0.8,0-1.2c0,0,0,0,0,0c0-0.2,0-0.4,0-0.7c0-0.6,0.1-1.2,0.1-1.8c0,0,0,0,0,0
		c0-0.4,0-0.8,0-1.2c0,0,0,0,0,0c0-0.2,0-0.4,0-0.7c0-0.6,0.1-1.2,0.1-1.8c0,0,0,0,0,0c0-0.2,0-0.5,0-0.7c0-0.4,0-0.8,0-1.2
		c0-0.4,0-0.8,0-1.2c0-0.4,0-0.8,0-1.2c0-0.4,0-0.8,0-1.2c0-0.4,0-0.8,0-1.2c0-0.4,0-0.8,0-1.2c0-0.4,0-0.8,0-1.2c0-0.3,0-0.7,0-1
		c0-0.5,0.1-1,0.1-1.4c0-0.3,0-0.7,0-1c0-0.4,0-0.8,0.1-1.2c0-0.5,0.1-1,0.1-1.4c0-0.3,0-0.7,0-1c0-0.4,0-0.8,0.1-1.3
		c0-0.4,0-0.8,0.1-1.2c0-0.4,0-0.8,0.1-1.2c0-0.3,0-0.7,0.1-1c0-0.5,0.1-1,0.1-1.4c0-0.4,0-0.8,0.1-1.2c0-0.3,0-0.7,0.1-1
		c0-0.4,0.1-0.8,0.1-1.2c0-0.4,0.1-0.8,0.1-1.2c0-0.5,0.1-1,0.1-1.4c0-0.3,0-0.7,0.1-1c0-0.3,0-0.7,0.1-1c0-0.5,0.1-1,0.1-1.4
		c0-0.4,0.1-0.8,0.1-1.2c0-0.3,0-0.7,0.1-1c0-0.5,0.1-1,0.1-1.4c0-0.3,0-0.7,0.1-1c0-0.4,0.1-0.8,0.1-1.2c0-0.5,0.1-1,0.1-1.4
		c0-0.3,0-0.6,0.1-0.8c0-0.5,0.1-1,0.1-1.4c0-0.4,0.1-0.8,0.1-1.2c0-0.4,0.1-0.8,0.1-1.2c0-0.3,0.1-0.7,0.1-1c0-0.5,0.1-1,0.1-1.4
		c0-0.3,0.1-0.7,0.1-1c0-0.4,0.1-0.8,0.1-1.2c0-0.4,0.1-0.8,0.1-1.2c0-0.4,0.1-0.8,0.1-1.2c0-0.4,0.1-0.8,0.1-1.2
		c0-0.3,0.1-0.7,0.1-1c0-0.5,0.1-0.9,0.1-1.4c0-0.3,0.1-0.7,0.1-1c0-0.4,0.1-0.8,0.1-1.2c0-0.4,0.1-0.8,0.1-1.2
		c0-0.4,0.1-0.8,0.1-1.2c0-0.4,0.1-0.8,0.1-1.2c0-0.4,0.1-0.8,0.1-1.2c0-0.2,0-0.4,0.1-0.6c0.1-0.6,0.1-1.2,0.2-1.8
		c0-0.2,0-0.4,0.1-0.6c0-0.4,0.1-0.8,0.1-1.2c0-0.4,0.1-0.8,0.1-1.2c0-0.4,0.1-0.8,0.1-1.2c0-0.3,0.1-0.7,0.1-1
		c0.1-0.5,0.1-0.9,0.1-1.4c0-0.3,0.1-0.7,0.1-1c0.1-0.5,0.1-0.9,0.1-1.4c0-0.3,0.1-0.7,0.1-1c0-0.4,0.1-0.8,0.1-1.2
		c0-0.3,0.1-0.7,0.1-1c0.1-0.5,0.1-0.9,0.1-1.4c0-0.3,0.1-0.6,0.1-1c0.1-0.5,0.1-0.9,0.2-1.4c0-0.3,0.1-0.6,0.1-1
		c0.1-0.4,0.1-0.8,0.1-1.2c0.1-0.4,0.1-0.8,0.1-1.2c0.1-0.4,0.1-0.8,0.1-1.2c0-0.3,0.1-0.6,0.1-1c0.1-0.5,0.1-0.9,0.2-1.4
		c0-0.3,0.1-0.6,0.1-1c0.1-0.4,0.1-0.8,0.1-1.2c0.1-0.4,0.1-0.8,0.1-1.1c0-0.3,0.1-0.6,0.1-1c0.1-0.5,0.1-0.9,0.2-1.4
		c0-0.3,0.1-0.6,0.1-0.9c0.1-0.4,0.1-0.9,0.2-1.3c0-0.3,0.1-0.6,0.1-0.9c0.1-0.4,0.1-0.8,0.2-1.2c0-0.2,0.1-0.4,0.1-0.5
		c0.1-0.6,0.2-1.2,0.2-1.7c0-0.2,0-0.3,0.1-0.5c0.1-0.4,0.1-0.8,0.2-1.2c0.1-0.4,0.1-0.7,0.2-1.1c0.1-0.4,0.1-0.8,0.2-1.1
		c0.1-0.4,0.1-0.8,0.2-1.1c0.1-0.3,0.1-0.6,0.1-0.9c0.1-0.4,0.1-0.9,0.2-1.3c0.1-0.3,0.1-0.6,0.1-0.9c0.1-0.4,0.1-0.7,0.2-1.1
		c0.1-0.4,0.1-0.8,0.2-1.1c0.1-0.3,0.1-0.6,0.1-0.9c0.1-0.4,0.2-0.9,0.2-1.3c0.1-0.3,0.1-0.6,0.1-0.9c0.1-0.4,0.1-0.7,0.2-1.1
		c0.1-0.4,0.1-0.7,0.2-1.1c0.1-0.3,0.1-0.6,0.2-0.9c0.1-0.4,0.2-0.9,0.2-1.3c0.1-0.3,0.1-0.6,0.2-0.9c0.1-0.4,0.1-0.7,0.2-1.1
		c0.1-0.4,0.1-0.7,0.2-1.1c0.1-0.3,0.1-0.7,0.2-1.1c0-0.1,0.1-0.3,0.1-0.4c0.1-0.6,0.2-1.1,0.3-1.7c0-0.1,0.1-0.3,0.1-0.4
		c0.1-0.3,0.1-0.7,0.2-1c0.1-0.3,0.1-0.6,0.2-0.9c0.1-0.4,0.2-0.8,0.3-1.2c0.1-0.3,0.1-0.5,0.2-0.8c0.1-0.4,0.2-0.7,0.2-1.1
		c0.1-0.3,0.1-0.6,0.2-1c0.1-0.4,0.2-0.7,0.2-1.1c0.1-0.3,0.1-0.5,0.2-0.8c0.1-0.4,0.2-0.8,0.3-1.2c0.1-0.3,0.1-0.5,0.2-0.8
		c0.1-0.3,0.2-0.7,0.2-1c0.1-0.3,0.1-0.5,0.2-0.8c0.1-0.4,0.2-0.8,0.3-1.2c0.1-0.3,0.1-0.5,0.2-0.8c0.1-0.3,0.2-0.6,0.2-1
		c0.1-0.3,0.2-0.6,0.2-1c0-0.1,0-0.2,0.1-0.3c0.2-0.6,0.3-1.1,0.4-1.7c0-0.1,0-0.1,0.1-0.2c0.1-0.3,0.2-0.7,0.3-1
		c0.1-0.3,0.2-0.6,0.2-0.9c0.1-0.3,0.1-0.5,0.2-0.8c0.1-0.3,0.2-0.6,0.3-0.9c0.1-0.3,0.2-0.6,0.3-1c0.1-0.3,0.2-0.6,0.3-0.9
		c0.1-0.3,0.2-0.6,0.3-0.9c0.1-0.3,0.1-0.5,0.2-0.8c0.1-0.3,0.2-0.6,0.3-0.8c0.1-0.3,0.2-0.7,0.3-1c0.1-0.3,0.2-0.6,0.3-0.9
		c0,0,0-0.1,0-0.1c0.2-0.6,0.4-1.1,0.5-1.7c0,0,0-0.1,0-0.1c0.1-0.2,0.2-0.5,0.2-0.7c0.1-0.4,0.2-0.7,0.4-1.1
		c0.1-0.2,0.1-0.4,0.2-0.6c0.1-0.3,0.2-0.6,0.3-0.9c0.1-0.3,0.2-0.5,0.3-0.8c0.1-0.3,0.2-0.6,0.3-0.9c0.1-0.2,0.1-0.4,0.2-0.6
		c0.1-0.3,0.2-0.6,0.3-0.9c0.1-0.3,0.2-0.5,0.3-0.8c0.1-0.3,0.2-0.6,0.3-0.9c0,0,0-0.1,0-0.1c0.1-0.3,0.2-0.5,0.3-0.8
		c0.1-0.3,0.2-0.5,0.3-0.8c0.1-0.3,0.2-0.6,0.3-0.8c0.1-0.2,0.2-0.4,0.2-0.6c0.1-0.3,0.2-0.6,0.3-0.8c0.1-0.3,0.2-0.5,0.3-0.8
		c0.1-0.3,0.2-0.5,0.3-0.7c0.1-0.2,0.2-0.4,0.3-0.6c0.1-0.2,0.2-0.5,0.3-0.7c0.1-0.3,0.2-0.5,0.3-0.8c0,0,0-0.1,0-0.1
		c0.1-0.2,0.2-0.4,0.3-0.6c0.1-0.2,0.2-0.4,0.3-0.6c0.1-0.3,0.3-0.6,0.4-0.8c0.1-0.2,0.2-0.4,0.3-0.6c0.1-0.2,0.2-0.4,0.3-0.6
		c0.1-0.3,0.3-0.5,0.4-0.8c0.1-0.2,0.2-0.4,0.3-0.7v0c0.1-0.2,0.2-0.3,0.3-0.5c0.1-0.2,0.3-0.5,0.4-0.7c0.1-0.2,0.2-0.4,0.3-0.6
		c0.1-0.2,0.2-0.4,0.3-0.5c0.1-0.2,0.2-0.4,0.3-0.6c0.1-0.2,0.2-0.4,0.3-0.6c0.1-0.2,0.2-0.4,0.3-0.5c0.1-0.2,0.2-0.4,0.3-0.5
		c0.1-0.2,0.2-0.4,0.3-0.6c0.1-0.2,0.3-0.4,0.4-0.7c0.1-0.2,0.2-0.3,0.3-0.5c0.1-0.2,0.2-0.3,0.3-0.5c0.1-0.1,0.2-0.3,0.3-0.4
		c0.2-0.3,0.3-0.5,0.5-0.8c0,0,0.1-0.1,0.1-0.1c0.2-0.3,0.4-0.5,0.5-0.8c0.1-0.1,0.1-0.2,0.2-0.2c0.1-0.2,0.3-0.4,0.4-0.6
		c0.1-0.2,0.2-0.3,0.4-0.5c0.1-0.2,0.2-0.3,0.3-0.4c0.1-0.1,0.1-0.2,0.2-0.2c0.1-0.2,0.3-0.3,0.4-0.5c0.1-0.1,0.2-0.2,0.3-0.3
		c0.1-0.1,0.2-0.3,0.3-0.4c0.2-0.2,0.3-0.3,0.5-0.5c0,0,0.1-0.1,0.1-0.1c0.1-0.1,0.2-0.3,0.4-0.4c0.1-0.2,0.3-0.3,0.4-0.4
		c0.2-0.2,0.3-0.3,0.5-0.5c0.1-0.1,0.2-0.2,0.4-0.4c0,0,0.1-0.1,0.1-0.1c0.1-0.1,0.3-0.2,0.4-0.4c0.1-0.1,0.2-0.2,0.3-0.3
		c0,0,0,0,0.1-0.1c0.1-0.1,0.3-0.2,0.4-0.3c0,0,0,0,0.1-0.1c0.1-0.1,0.2-0.2,0.4-0.3c0.1-0.1,0.2-0.1,0.3-0.2c0,0,0.1-0.1,0.1-0.1
		c0.1,0,0.2-0.1,0.2-0.2c0,0,0,0,0,0c0.1-0.1,0.2-0.1,0.3-0.2c0.1-0.1,0.2-0.1,0.3-0.2c0,0,0,0,0,0c0.1,0,0.2-0.1,0.3-0.1
		c0.1-0.1,0.2-0.1,0.3-0.2c0,0,0.1,0,0.1-0.1c0.1,0,0.2-0.1,0.2-0.1c0.1,0,0.1,0,0.2-0.1c0.1,0,0.2,0,0.2-0.1c0.1,0,0.1,0,0.2,0
		c0.1,0,0.2,0,0.2,0c0.1,0,0.1,0,0.2,0c1-0.1,1.9-0.2,2.9-0.3c0.2,0,0.3,0,0.5-0.1c0,0,0.1,0,0.1,0c0.1,0,0.2,0,0.3,0
		c0.1,0,0.1,0,0.2,0c0.1,0,0.2,0,0.3,0c0,0,0,0,0.1,0c0,0,0.1,0,0.1,0c0.1,0,0.1,0,0.2,0.1c0,0,0.1,0,0.1,0c0.1,0,0.1,0.1,0.2,0.1
		c0,0,0,0,0.1,0c0.1,0,0.1,0.1,0.2,0.1c0,0,0.1,0,0.1,0.1c0.1,0,0.1,0.1,0.2,0.1c0,0,0.1,0,0.1,0.1c0.2,0.1,0.3,0.2,0.5,0.3
		c0.1,0.1,0.2,0.1,0.3,0.2c0.1,0.1,0.3,0.2,0.4,0.3c0.1,0.1,0.2,0.1,0.2,0.2c0.1,0.1,0.2,0.1,0.2,0.2c0.2,0.1,0.3,0.3,0.5,0.4
		c0.1,0.1,0.1,0.1,0.2,0.1c0.2,0.2,0.4,0.3,0.6,0.5c0.1,0.1,0.1,0.1,0.2,0.2c0.2,0.2,0.4,0.3,0.6,0.5c0.1,0.1,0.2,0.2,0.3,0.3
		c0.1,0.1,0.2,0.2,0.3,0.3c0.1,0.1,0.2,0.3,0.4,0.4c0.2,0.2,0.3,0.4,0.5,0.5c0.1,0.1,0.2,0.2,0.3,0.3c0.2,0.2,0.3,0.4,0.5,0.5
		c0.2,0.2,0.3,0.4,0.5,0.5c0,0,0,0,0,0c0.1,0.1,0.2,0.3,0.4,0.4c0.2,0.2,0.3,0.4,0.5,0.6c0.1,0.2,0.3,0.3,0.4,0.5
		c0.2,0.2,0.3,0.4,0.5,0.6c0.2,0.2,0.3,0.4,0.5,0.6c0.1,0.2,0.2,0.3,0.4,0.5c0.2,0.2,0.3,0.4,0.5,0.6c0.2,0.2,0.3,0.4,0.5,0.6
		c0.2,0.3,0.4,0.6,0.6,0.9c0.1,0.1,0.1,0.2,0.2,0.3c0.2,0.3,0.4,0.6,0.6,0.8c0.1,0.2,0.3,0.4,0.4,0.6c0.1,0.2,0.3,0.4,0.4,0.6
		c0.2,0.3,0.3,0.5,0.5,0.8c0,0,0,0,0,0.1c0.1,0.2,0.3,0.4,0.4,0.7c0.2,0.3,0.3,0.6,0.5,0.8c0.2,0.3,0.3,0.6,0.5,0.8
		c0.1,0.2,0.2,0.3,0.3,0.5c0.1,0.1,0.1,0.2,0.2,0.3c0.2,0.3,0.3,0.6,0.5,0.9c0.1,0.2,0.2,0.4,0.4,0.6c0.1,0.2,0.3,0.5,0.4,0.7
		c0.2,0.3,0.3,0.7,0.5,1c0.1,0.3,0.3,0.5,0.4,0.7c0.1,0.2,0.2,0.4,0.3,0.7c0.2,0.4,0.4,0.7,0.6,1.1c0,0,0,0,0,0.1
		c0.2,0.4,0.3,0.7,0.5,1c0.1,0.2,0.2,0.5,0.3,0.7c0.1,0.3,0.3,0.6,0.5,0.9c0.1,0.3,0.3,0.6,0.4,0.9c0.1,0.3,0.3,0.6,0.4,0.9
		c0.1,0.2,0.2,0.5,0.3,0.7c0.1,0.3,0.3,0.7,0.5,1c0.1,0.3,0.3,0.6,0.4,0.9c0.1,0.3,0.3,0.6,0.4,0.9c0,0.1,0.1,0.2,0.1,0.3
		c0.2,0.5,0.5,1.1,0.7,1.6c0,0.1,0.1,0.1,0.1,0.2c0.2,0.4,0.3,0.8,0.5,1.2c0.1,0.3,0.3,0.6,0.4,0.9c0.1,0.3,0.2,0.6,0.4,0.9
		c0.1,0.4,0.3,0.7,0.4,1c0.1,0.3,0.2,0.6,0.4,0.9c0.1,0.3,0.2,0.6,0.3,0.9c0.2,0.4,0.3,0.8,0.5,1.2c0.1,0.3,0.2,0.5,0.3,0.8
		c0.1,0.3,0.2,0.7,0.4,1c0.1,0.2,0.1,0.3,0.2,0.5c0.2,0.6,0.4,1.1,0.6,1.6c0.1,0.2,0.1,0.4,0.2,0.5c0.1,0.3,0.2,0.7,0.4,1
		c0.1,0.4,0.3,0.8,0.4,1.2c0.1,0.3,0.2,0.7,0.4,1c0.1,0.4,0.3,0.7,0.4,1.1c0.1,0.3,0.2,0.6,0.3,0.9c0.1,0.4,0.2,0.7,0.4,1.1
		c0.1,0.4,0.2,0.7,0.4,1.1c0.1,0.4,0.3,0.8,0.4,1.1c0.1,0.3,0.2,0.6,0.3,0.9c0.1,0.5,0.3,0.9,0.5,1.3c0.1,0.3,0.2,0.6,0.3,0.9
		c0.1,0.4,0.2,0.8,0.4,1.2c0.1,0.4,0.2,0.7,0.4,1.1c0.1,0.3,0.2,0.7,0.3,1c0.1,0.4,0.3,0.9,0.4,1.3c0.1,0.2,0.1,0.5,0.2,0.7
		c0.1,0.4,0.2,0.8,0.4,1.1c0.1,0.4,0.2,0.8,0.4,1.2c0.1,0.4,0.2,0.8,0.4,1.2c0.1,0.4,0.2,0.8,0.4,1.2c0.1,0.3,0.2,0.6,0.3,1
		c0.1,0.4,0.2,0.8,0.4,1.2c0.1,0.5,0.3,0.9,0.4,1.4c0.1,0.3,0.2,0.7,0.3,1c0.1,0.3,0.2,0.7,0.3,1c0.1,0.5,0.3,0.9,0.4,1.4
		c0.1,0.4,0.2,0.8,0.3,1.2c0.1,0.3,0.2,0.7,0.3,1c0.1,0.4,0.2,0.9,0.4,1.3c0.1,0.5,0.2,0.9,0.4,1.4c0.1,0.3,0.2,0.7,0.3,1
		c0.1,0.4,0.2,0.7,0.3,1.1c0.1,0.5,0.2,0.9,0.4,1.4c0.1,0.4,0.2,0.8,0.3,1.2c0.1,0.4,0.2,0.7,0.3,1.1c0.1,0.5,0.2,1,0.4,1.5
		c0.1,0.4,0.2,0.7,0.3,1.1c0.1,0.4,0.2,0.8,0.3,1.2c0.1,0.4,0.2,0.8,0.3,1.3c0.1,0.4,0.2,0.8,0.3,1.3c0.1,0.3,0.1,0.6,0.2,0.8
		c0.1,0.6,0.3,1.1,0.4,1.7c0.1,0.4,0.2,0.9,0.3,1.3c0.1,0.3,0.1,0.6,0.2,0.8c0.1,0.4,0.2,0.9,0.3,1.3c0.1,0.4,0.2,0.8,0.3,1.2
		c0.1,0.4,0.2,0.9,0.3,1.3c0.1,0.4,0.2,0.9,0.3,1.3c0.1,0.4,0.2,0.8,0.3,1.3c0.1,0.4,0.2,0.9,0.3,1.3c0.1,0.5,0.2,0.9,0.3,1.3
		c0.1,0.3,0.2,0.7,0.3,1c0.1,0.5,0.2,1,0.4,1.5c0.1,0.4,0.2,0.7,0.3,1.1c0.1,0.5,0.2,1,0.4,1.5c0.1,0.4,0.2,0.7,0.3,1.1
		c0.1,0.4,0.2,0.9,0.3,1.3c0.1,0.4,0.2,0.9,0.3,1.3c0.1,0.4,0.2,0.9,0.3,1.3c0.1,0.4,0.2,0.9,0.3,1.3c0.1,0.4,0.2,0.9,0.3,1.3
		c0.1,0.4,0.2,0.9,0.3,1.3c0.1,0.4,0.2,0.8,0.3,1.2c0.1,0.5,0.2,1,0.3,1.5c0.1,0.4,0.2,0.9,0.3,1.3c0.1,0.4,0.2,0.8,0.3,1.1
		c0.1,0.5,0.2,1,0.3,1.5c0.1,0.4,0.2,0.8,0.3,1.1c0.1,0.4,0.2,0.9,0.3,1.3c0.1,0.5,0.2,1,0.4,1.6c0.1,0.4,0.2,0.8,0.3,1.1
		c0.1,0.4,0.2,0.9,0.3,1.3c0.1,0.5,0.2,0.9,0.3,1.4c0.1,0.5,0.2,1,0.3,1.5c0.1,0.4,0.2,0.7,0.3,1.1c0.1,0.5,0.2,0.9,0.3,1.4
		c0.1,0.4,0.2,0.9,0.3,1.3c0.1,0.5,0.2,0.9,0.3,1.4c0.1,0.4,0.2,0.8,0.3,1.1c0.1,0.5,0.2,1,0.3,1.5c0.1,0.5,0.2,0.9,0.3,1.4
		c0.1,0.4,0.2,0.9,0.3,1.3c0.1,0.4,0.2,0.9,0.3,1.3c0.1,0.5,0.2,0.9,0.3,1.4c0.1,0.4,0.2,0.8,0.3,1.1c0.1,0.5,0.2,1,0.3,1.5
		c0.1,0.4,0.2,0.9,0.3,1.3c0.1,0.4,0.2,0.9,0.3,1.3c0.1,0.4,0.2,0.8,0.3,1.1c0.1,0.5,0.2,1,0.3,1.5c0.1,0.5,0.2,0.9,0.3,1.4
		c0.1,0.4,0.2,0.7,0.2,1.1c0.1,0.5,0.2,1,0.3,1.5c0.1,0.4,0.2,0.9,0.3,1.3c0.1,0.4,0.2,0.7,0.3,1.1c0.1,0.5,0.2,1,0.3,1.5
		c0.1,0.4,0.2,0.9,0.3,1.3c0.1,0.4,0.2,0.9,0.3,1.3c0.1,0.4,0.2,0.8,0.3,1.2c0.1,0.5,0.2,1,0.3,1.5c0.1,0.5,0.2,0.9,0.3,1.3
		c0.1,0.4,0.2,0.7,0.3,1.1c0.1,0.5,0.2,1,0.3,1.5c0.1,0.4,0.2,0.8,0.3,1.3c0.1,0.5,0.2,0.9,0.3,1.3c0.1,0.4,0.2,0.9,0.3,1.3
		c0.1,0.4,0.2,0.9,0.3,1.3c0.1,0.4,0.2,0.9,0.3,1.3c0.1,0.4,0.2,0.7,0.2,1.1c0.1,0.5,0.2,1,0.3,1.5c0.1,0.4,0.2,0.9,0.3,1.3
		c0.1,0.4,0.2,0.8,0.3,1.2c0.1,0.5,0.2,1,0.4,1.5c0.1,0.4,0.2,0.7,0.3,1.1c0.1,0.4,0.2,0.8,0.3,1.3c0.1,0.4,0.2,0.9,0.3,1.3
		c0.1,0.4,0.2,0.8,0.3,1.3c0.1,0.5,0.2,1,0.3,1.5c0.1,0.4,0.2,0.7,0.3,1.1c0.1,0.4,0.2,0.8,0.3,1.3c0.1,0.5,0.2,1,0.3,1.4
		c0.1,0.4,0.2,0.9,0.3,1.3c0.1,0.4,0.2,0.7,0.3,1.1c0.1,0.5,0.2,1,0.3,1.4c0.1,0.4,0.2,0.9,0.3,1.3c0.1,0.4,0.2,0.7,0.3,1
		c0.1,0.6,0.3,1.2,0.4,1.7c0.1,0.3,0.1,0.6,0.2,0.9c0.1,0.5,0.3,1.1,0.4,1.6c0.1,0.4,0.2,0.8,0.3,1.2c0.1,0.5,0.2,0.9,0.4,1.4
		c0.1,0.3,0.2,0.7,0.3,1c0.1,0.4,0.2,0.8,0.3,1.3c0.1,0.5,0.2,1,0.4,1.4c0.1,0.3,0.2,0.7,0.3,1c0.1,0.5,0.2,0.9,0.4,1.4
		c0.1,0.4,0.2,0.8,0.3,1.2c0.1,0.3,0.2,0.7,0.3,1c0.1,0.5,0.2,0.9,0.4,1.4c0.1,0.4,0.2,0.8,0.3,1.2c0.1,0.4,0.2,0.8,0.3,1.2
		c0.1,0.5,0.3,0.9,0.4,1.4c0.1,0.3,0.2,0.6,0.3,0.9c0.1,0.4,0.2,0.8,0.3,1.3c0.1,0.4,0.2,0.9,0.4,1.3c0.1,0.4,0.2,0.8,0.3,1.1
		c0.1,0.3,0.2,0.7,0.3,1c0.1,0.5,0.3,0.9,0.4,1.4c0.1,0.4,0.2,0.7,0.3,1.1c0.1,0.4,0.2,0.7,0.3,1.1c0.2,0.6,0.3,1.2,0.6,1.8
		c0,0.2,0.1,0.3,0.2,0.5c0.2,0.6,0.3,1.2,0.6,1.8c0.1,0.2,0.1,0.3,0.2,0.5c0.2,0.6,0.3,1.1,0.5,1.7c0.1,0.4,0.2,0.8,0.4,1.2
		c0.1,0.4,0.2,0.7,0.3,1.1c0.1,0.4,0.2,0.7,0.3,1.1c0.1,0.4,0.2,0.7,0.4,1.1c0.1,0.4,0.3,0.9,0.4,1.3c0.1,0.4,0.2,0.7,0.4,1.1
		c0.1,0.3,0.2,0.6,0.3,0.9c0.1,0.4,0.3,0.9,0.4,1.3c0.1,0.4,0.2,0.7,0.4,1.1c0.1,0.4,0.3,0.8,0.4,1.2c0.1,0.3,0.2,0.6,0.3,0.9
		c0.1,0.3,0.2,0.7,0.4,1c0.1,0.4,0.3,0.8,0.5,1.3c0.1,0.4,0.3,0.7,0.4,1.1c0.2,0.5,0.4,1,0.6,1.5c0.1,0.4,0.3,0.7,0.4,1
		c0.1,0.4,0.3,0.8,0.4,1.2c0.1,0.3,0.2,0.6,0.3,0.8c0.1,0.4,0.3,0.8,0.4,1.1c0.1,0.4,0.3,0.7,0.4,1.1c0.1,0.3,0.2,0.6,0.4,0.9
		c0.1,0.3,0.3,0.7,0.4,1c0.2,0.4,0.3,0.8,0.5,1.2c0.1,0.3,0.2,0.5,0.3,0.7c0.2,0.4,0.3,0.8,0.5,1.2c0.1,0.3,0.2,0.6,0.4,0.9
		c0.2,0.5,0.4,1,0.6,1.5c0.2,0.4,0.3,0.8,0.5,1.1c0.1,0.2,0.2,0.5,0.3,0.7c0.2,0.4,0.4,0.8,0.5,1.2c0.1,0.3,0.3,0.6,0.4,0.9
		c0.1,0.3,0.3,0.6,0.4,0.9c0.1,0.3,0.3,0.6,0.4,0.9c0.2,0.4,0.4,0.7,0.5,1.1c0.2,0.5,0.5,1,0.7,1.5c0.2,0.3,0.3,0.6,0.5,0.9
		c0.1,0.3,0.3,0.6,0.5,0.9c0.2,0.3,0.3,0.6,0.5,1c0.1,0.2,0.2,0.5,0.4,0.7c0.2,0.4,0.4,0.7,0.6,1.1c0.1,0.3,0.3,0.5,0.4,0.8
		c0.1,0.3,0.3,0.6,0.5,0.8c0.3,0.6,0.6,1.1,1,1.7c0.1,0.3,0.3,0.5,0.4,0.7c0.1,0.3,0.3,0.5,0.5,0.8c0.2,0.3,0.3,0.5,0.5,0.8
		c0.2,0.3,0.4,0.6,0.6,1c0.1,0.2,0.3,0.4,0.4,0.6c0.3,0.5,0.6,1,1,1.6c0.2,0.3,0.3,0.5,0.5,0.8c0.2,0.3,0.4,0.6,0.6,0.9
		c0.2,0.3,0.3,0.5,0.5,0.8c0.2,0.3,0.4,0.5,0.5,0.7c0.3,0.5,0.6,0.9,1,1.4c0.2,0.2,0.3,0.5,0.5,0.7c0.2,0.3,0.4,0.6,0.6,0.9
		c0.2,0.2,0.4,0.5,0.5,0.7c0.4,0.5,0.8,1,1.1,1.4c0.2,0.2,0.4,0.5,0.6,0.7c0.2,0.2,0.3,0.4,0.5,0.5c0.2,0.3,0.5,0.6,0.8,0.9
		c0.4,0.4,0.7,0.9,1.1,1.3c0.2,0.2,0.4,0.4,0.6,0.6c0.2,0.3,0.5,0.5,0.7,0.8c0.2,0.2,0.4,0.4,0.6,0.6c0.4,0.4,0.8,0.8,1.2,1.2
		c0.2,0.2,0.5,0.5,0.7,0.7c0.2,0.2,0.4,0.4,0.6,0.6c0.5,0.4,0.9,0.9,1.4,1.3c0.2,0.2,0.4,0.4,0.6,0.6c0.2,0.2,0.5,0.4,0.8,0.7
		c0.4,0.4,0.9,0.8,1.3,1.1c0.2,0.2,0.4,0.4,0.6,0.5c0.2,0.2,0.5,0.4,0.8,0.6c0.5,0.4,1,0.8,1.5,1.2c0.2,0.2,0.4,0.3,0.7,0.5
		c0.2,0.2,0.4,0.3,0.7,0.5c0.5,0.4,1.1,0.8,1.6,1.1c0.2,0.2,0.5,0.3,0.8,0.5c0.5,0.3,0.9,0.6,1.4,0.9c0.3,0.2,0.6,0.4,1,0.6
		c0.5,0.3,1,0.6,1.6,0.9c0.3,0.2,0.6,0.3,0.9,0.5c0.2,0.1,0.4,0.2,0.7,0.4c0.6,0.3,1.2,0.6,1.8,0.9c0.6,0.3,1.2,0.6,1.8,0.8
		c0.3,0.1,0.6,0.3,0.8,0.4c0.2,0.1,0.4,0.2,0.7,0.3c0.7,0.3,1.3,0.6,2,0.8c0.6,0.2,1.2,0.5,1.9,0.7c0.2,0.1,0.4,0.2,0.7,0.2
		c0.3,0.1,0.7,0.2,1.1,0.3c0.7,0.2,1.3,0.4,2,0.6c0.2,0.1,0.4,0.1,0.7,0.2c0.7,0.2,1.4,0.4,2.1,0.5c0.7,0.2,1.4,0.3,2.1,0.4
		c0.2,0,0.4,0.1,0.6,0.1c0.4,0.1,0.7,0.1,1,0.2c0.7,0.1,1.4,0.2,2.2,0.3c0.3,0,0.6,0.1,0.8,0.1c0.7,0.1,1.3,0.2,2,0.2
		c0.7,0.1,1.5,0.1,2.2,0.2c0.3,0,0.6,0,0.9,0.1c0.3,0,0.6,0,0.9,0c0.6,0,1.3,0.1,1.9,0.1c0.1,0,0.2,0,0.3,0c0.1,0,0.2,0,0.3,0
		c0.2,0,0.4,0,0.5,0c0,0,0.1,0,0.1,0c0.7,0,1.4,0,2.1-0.1c0.3,0,0.6,0,0.9-0.1c0.7,0,1.4-0.1,2.1-0.2c0.3,0,0.5-0.1,0.8-0.1
		c0.7-0.1,1.3-0.1,2-0.2c0.2,0,0.4,0,0.6-0.1c0.3,0,0.6-0.1,0.8-0.1c0.3,0,0.5-0.1,0.8-0.1c0.7-0.1,1.3-0.2,1.9-0.3
		c0.3-0.1,0.5-0.1,0.8-0.1c0.7-0.1,1.3-0.3,1.9-0.4c0.2,0,0.4-0.1,0.6-0.1c0.3-0.1,0.5-0.1,0.8-0.2c0.3-0.1,0.5-0.1,0.8-0.2
		c0.7-0.2,1.3-0.3,1.9-0.5c0.2-0.1,0.4-0.1,0.6-0.2c0.7-0.2,1.4-0.4,2-0.6c0.2-0.1,0.4-0.1,0.6-0.2c0.2-0.1,0.5-0.2,0.7-0.2
		c0.2-0.1,0.4-0.1,0.5-0.2c0.7-0.2,1.3-0.5,2-0.7c0.2-0.1,0.4-0.2,0.6-0.2c0.2-0.1,0.5-0.2,0.7-0.3c0.6-0.2,1.2-0.5,1.7-0.7
		c0.2-0.1,0.5-0.2,0.7-0.3c0.2-0.1,0.4-0.2,0.6-0.3c0.6-0.2,1.1-0.5,1.7-0.8c0.2-0.1,0.5-0.2,0.7-0.3c0.6-0.3,1.2-0.6,1.7-0.9
		c0.2-0.1,0.3-0.2,0.5-0.3c0.3-0.2,0.6-0.3,0.8-0.5c0.1-0.1,0.2-0.1,0.3-0.2c0.6-0.3,1.2-0.7,1.9-1.1c0.2-0.1,0.4-0.3,0.7-0.4
		c0.2-0.1,0.3-0.2,0.5-0.3c0.2-0.1,0.4-0.3,0.7-0.4c0.5-0.3,1.1-0.7,1.6-1c0.2-0.1,0.3-0.2,0.5-0.3c0.2-0.1,0.4-0.3,0.6-0.4
		c0.5-0.4,1.1-0.7,1.6-1.1c0.2-0.1,0.3-0.2,0.5-0.4c0.2-0.1,0.4-0.3,0.6-0.4c0.2-0.2,0.4-0.3,0.6-0.5c0.5-0.4,1-0.8,1.5-1.2
		c0.2-0.2,0.4-0.3,0.6-0.5c0.2-0.1,0.3-0.3,0.5-0.4c0.2-0.2,0.4-0.3,0.6-0.5c0.5-0.4,0.9-0.8,1.3-1.1c0.2-0.2,0.4-0.3,0.6-0.5
		c0.2-0.2,0.4-0.3,0.6-0.5c0.5-0.4,0.9-0.9,1.4-1.3c0.1-0.1,0.2-0.2,0.3-0.3c0.3-0.3,0.5-0.5,0.8-0.8c0.2-0.1,0.3-0.3,0.4-0.4
		c0.2-0.1,0.3-0.3,0.4-0.4c0.4-0.4,0.9-0.9,1.3-1.4c0.2-0.2,0.3-0.4,0.5-0.6s0.3-0.4,0.5-0.6c0.2-0.2,0.3-0.3,0.4-0.5
		c0.2-0.2,0.4-0.4,0.5-0.6c0.4-0.5,0.8-0.9,1.2-1.4c0.2-0.2,0.3-0.4,0.5-0.6c0.1-0.2,0.3-0.3,0.4-0.5c0.2-0.2,0.3-0.4,0.5-0.6
		c0.4-0.5,0.8-0.9,1.1-1.4c0.1-0.2,0.3-0.3,0.4-0.5c0.1-0.2,0.3-0.3,0.4-0.5c0.2-0.2,0.4-0.5,0.5-0.7c0.2-0.2,0.3-0.5,0.5-0.7
		c0.1-0.2,0.3-0.4,0.4-0.5c0.4-0.5,0.7-1,1-1.5c0.1-0.2,0.3-0.4,0.4-0.6c0.2-0.2,0.3-0.5,0.5-0.7c0.2-0.3,0.3-0.5,0.5-0.8
		c0.1-0.2,0.3-0.4,0.4-0.6c0.1-0.2,0.3-0.4,0.4-0.6c0.4-0.5,0.7-1,1-1.6c0.1-0.2,0.3-0.5,0.4-0.7c0.1-0.2,0.2-0.4,0.4-0.6
		c0.1-0.2,0.3-0.5,0.4-0.7c0.2-0.3,0.3-0.6,0.5-0.9c0.1-0.2,0.2-0.3,0.3-0.5c0.3-0.5,0.6-1,0.9-1.6c0.2-0.3,0.3-0.6,0.5-0.9
		c0.1-0.2,0.2-0.3,0.3-0.5c0.2-0.3,0.3-0.6,0.5-0.9c0.1-0.2,0.2-0.3,0.3-0.5c0.2-0.4,0.4-0.7,0.6-1.1c0.1-0.2,0.2-0.3,0.2-0.5
		c0.1-0.3,0.3-0.5,0.4-0.7c0.3-0.5,0.6-1.1,0.8-1.6c0.1-0.3,0.3-0.5,0.4-0.8c0.1-0.2,0.2-0.4,0.3-0.6c0.2-0.3,0.3-0.7,0.5-1
		c0.1-0.2,0.2-0.5,0.3-0.7c0.1-0.2,0.2-0.4,0.3-0.6c0.1-0.3,0.3-0.6,0.4-0.9c0.2-0.5,0.5-1,0.7-1.6c0.2-0.5,0.5-1.1,0.7-1.6
		c0.1-0.2,0.2-0.5,0.3-0.7c0.1-0.3,0.2-0.6,0.4-0.9c0.1-0.3,0.2-0.6,0.4-0.9c0.1-0.2,0.2-0.4,0.3-0.6c0.1-0.3,0.3-0.7,0.4-1
		c0.1-0.3,0.2-0.5,0.3-0.8c0.1-0.3,0.2-0.6,0.3-0.8c0.2-0.5,0.4-1.1,0.6-1.7c0.2-0.5,0.4-1.1,0.6-1.6c0.1-0.3,0.2-0.6,0.3-0.8
		c0.1-0.3,0.3-0.7,0.4-1.1c0.1-0.2,0.2-0.4,0.2-0.6c0.1-0.3,0.2-0.7,0.3-1c0.1-0.3,0.2-0.6,0.3-0.9c0.1-0.3,0.2-0.5,0.3-0.8
		c0.1-0.3,0.2-0.6,0.3-0.9s0.2-0.6,0.3-1c0.1-0.2,0.2-0.5,0.2-0.7c0.1-0.4,0.2-0.7,0.4-1.1c0.2-0.5,0.3-1,0.5-1.5
		c0.1-0.3,0.2-0.7,0.3-1c0.1-0.3,0.2-0.5,0.2-0.8c0.1-0.3,0.2-0.7,0.3-1c0.1-0.3,0.2-0.6,0.3-1c0.1-0.3,0.2-0.5,0.2-0.8
		c0.1-0.3,0.2-0.6,0.3-1c0.1-0.4,0.2-0.7,0.3-1.1c0.1-0.2,0.1-0.5,0.2-0.7c0.1-0.4,0.2-0.8,0.3-1.1c0.1-0.3,0.2-0.6,0.2-0.9
		c0.1-0.4,0.2-0.7,0.3-1.1c0.1-0.3,0.1-0.5,0.2-0.8c0.1-0.4,0.2-0.7,0.3-1.1c0.1-0.5,0.3-1.1,0.4-1.6c0.1-0.3,0.2-0.6,0.2-0.9
		c0.1-0.3,0.2-0.6,0.2-1c0.1-0.3,0.2-0.6,0.2-1c0.1-0.4,0.2-0.7,0.3-1.1c0.1-0.3,0.2-0.6,0.2-0.9c0.1-0.3,0.2-0.7,0.2-1
		c0.1-0.3,0.1-0.7,0.2-1c0.1-0.3,0.2-0.6,0.2-0.9c0.1-0.4,0.2-0.8,0.3-1.2c0-0.2,0.1-0.5,0.2-0.7c0.1-0.4,0.2-0.8,0.3-1.2
		c0.1-0.3,0.1-0.6,0.2-0.9c0.1-0.4,0.2-0.8,0.3-1.2c0.1-0.3,0.1-0.6,0.2-0.8c0.1-0.4,0.2-0.8,0.2-1.2c0.1-0.3,0.1-0.5,0.2-0.8
		c0.1-0.4,0.2-0.8,0.3-1.2c0.1-0.6,0.2-1.2,0.3-1.7c0-0.1,0-0.2,0.1-0.3c0.1-0.3,0.1-0.7,0.2-1c0.1-0.6,0.2-1.2,0.3-1.7
		c0.1-0.3,0.1-0.7,0.2-1.1c0.1-0.3,0.1-0.7,0.2-1c0.1-0.4,0.1-0.7,0.2-1c0.1-0.3,0.1-0.7,0.2-1c0.1-0.4,0.2-0.8,0.2-1.3
		c0.1-0.3,0.1-0.7,0.2-1c0.1-0.4,0.1-0.7,0.2-1.1c0.1-0.3,0.1-0.7,0.2-1c0.1-0.4,0.1-0.7,0.2-1.1c0.1-0.4,0.1-0.7,0.2-1.1
		c0.1-0.4,0.1-0.8,0.2-1.3c0.1-0.3,0.1-0.6,0.2-0.9c0.1-0.4,0.1-0.9,0.2-1.3c0.1-0.4,0.1-0.7,0.2-1.1c0.1-0.4,0.1-0.8,0.2-1.3
		c0.1-0.3,0.1-0.6,0.1-0.9c0.1-0.4,0.1-0.8,0.2-1.3c0.1-0.3,0.1-0.6,0.1-0.9c0.1-0.4,0.2-0.9,0.2-1.3c0.1-0.4,0.1-0.7,0.2-1.1
		c0.1-0.4,0.1-0.7,0.2-1.1c0.1-0.6,0.2-1.2,0.2-1.8c0-0.2,0-0.3,0.1-0.4c0.1-0.6,0.2-1.2,0.2-1.8c0.1-0.4,0.1-0.7,0.2-1.1
		c0.1-0.4,0.1-0.7,0.1-1.1c0.1-0.4,0.1-0.8,0.2-1.1c0.1-0.4,0.1-0.7,0.2-1.1c0-0.4,0.1-0.7,0.1-1.1c0.1-0.4,0.1-0.9,0.2-1.3
		c0.1-0.4,0.1-0.7,0.1-1.1c0.1-0.4,0.1-0.7,0.1-1.1c0.1-0.4,0.1-0.7,0.1-1.1c0.1-0.4,0.1-0.8,0.1-1.2c0.1-0.4,0.1-0.8,0.1-1.2
		c0-0.4,0.1-0.9,0.1-1.3c0-0.3,0.1-0.6,0.1-1c0-0.4,0.1-0.9,0.1-1.4c0-0.4,0.1-0.8,0.1-1.2c0-0.4,0.1-0.8,0.1-1.2
		c0-0.4,0.1-0.8,0.1-1.2c0.1-0.5,0.1-0.9,0.1-1.4c0-0.3,0.1-0.7,0.1-1c0.1-0.5,0.1-0.9,0.1-1.4c0-0.3,0.1-0.6,0.1-1
		c0-0.5,0.1-0.9,0.1-1.4c0-0.4,0.1-0.8,0.1-1.2c0-0.5,0.1-0.9,0.1-1.4c0-0.3,0.1-0.7,0.1-1c0-0.4,0.1-0.8,0.1-1.2
		c0.1-0.5,0.1-0.9,0.1-1.4c0-0.5,0.1-1.1,0.1-1.6c0-0.3,0-0.5,0.1-0.8c0.1-0.5,0.1-1.1,0.1-1.6c0-0.4,0.1-0.8,0.1-1.2
		c0-0.4,0.1-0.8,0.1-1.2c0-0.5,0.1-0.9,0.1-1.4c0-0.3,0.1-0.7,0.1-1c0-0.5,0.1-0.9,0.1-1.4c0-0.4,0.1-0.8,0.1-1.2
		c0-0.4,0.1-0.8,0.1-1.2c0-0.4,0.1-0.8,0.1-1.2c0-0.4,0.1-0.8,0.1-1.2c0-0.4,0.1-0.8,0.1-1.2c0-0.5,0.1-0.9,0.1-1.4
		c0-0.3,0.1-0.7,0.1-1c0.1-0.5,0.1-1,0.1-1.4c0-0.4,0.1-0.8,0.1-1.2c0-0.4,0.1-0.8,0.1-1.2c0-0.4,0.1-0.8,0.1-1.2
		c0-0.4,0.1-0.8,0.1-1.2c0-0.4,0.1-0.8,0.1-1.2c0-0.5,0.1-1,0.1-1.4c0-0.4,0-0.7,0.1-1.1c0.1-0.5,0.1-1,0.1-1.5
		c0-0.4,0.1-0.8,0.1-1.3c0-0.4,0.1-0.8,0.1-1.3c0-0.4,0.1-0.8,0.1-1.3c0-0.4,0-0.8,0.1-1.3c0-0.4,0.1-0.8,0.1-1.3
		c0-0.5,0.1-1,0.1-1.5c0-0.4,0-0.7,0-1.1c0-0.5,0.1-1,0.1-1.5c0-0.4,0.1-0.8,0.1-1.3c0-0.4,0-0.7,0-1.1c0-0.5,0.1-1,0.1-1.5
		c0-0.4,0-0.8,0.1-1.3c0-0.5,0.1-1,0.1-1.5c0-0.4,0-0.7,0-1.1c0-0.4,0.1-0.8,0.1-1.3c0-0.5,0-1,0.1-1.5c0-0.4,0-0.7,0-1.1
		c0-0.5,0.1-1,0.1-1.5c0-0.4,0-0.9,0-1.3c0-0.4,0-0.9,0-1.3c0-0.4,0-0.8,0-1.3c0-0.4,0-0.9,0-1.3c0-0.4,0-0.9,0.1-1.3
		c0-0.6,0.1-1.2,0.1-1.8c0,0,0,0,0,0c0-0.3,0-0.5,0-0.8c0-0.6,0.1-1.2,0.1-1.8c0,0,0,0,0-0.1c0-0.3,0-0.5,0-0.8
		c0-0.6,0.1-1.2,0.1-1.8c0,0,0,0,0-0.1c0-0.4,0-0.8,0-1.3c0,0,0,0,0-0.1c0-0.4,0-0.8,0-1.2c0,0,0,0,0,0c0-0.4,0-0.8,0-1.3
		c0,0,0,0,0,0c0-0.4,0-0.8,0-1.3c0,0,0,0,0-0.1c0-0.4,0-0.8,0-1.3c0,0,0,0,0,0c0-0.4,0-0.8,0-1.3c0,0,0,0,0-0.1c0-0.4,0-0.8,0-1.3
		c0-0.1,0-0.2,0-0.3c0-0.4,0-0.7,0-1.1c0,0,0,0,0-0.1c0-0.4,0-0.8,0-1.3c0-0.1,0-0.2,0-0.3c0-0.4,0-0.7,0-1.1c0-0.1,0-0.2,0-0.3
		c0-0.4,0-0.7,0-1.1c0,0,0,0,0-0.1c0-0.4,0-0.8,0-1.3c0-0.1,0-0.2,0-0.3c0-0.4,0-0.7,0-1.1c0-0.1,0-0.2,0-0.3c0-0.4,0-0.7,0-1.1
		c0-0.1,0-0.2,0-0.3c0-0.4,0-0.7,0-1.1c0-0.1,0-0.2,0-0.3c0-0.4,0-0.7,0-1.1c0-0.2,0-0.3,0-0.5c0-0.3,0-0.6,0-0.9c0-0.1,0-0.2,0-0.3
		c0-0.4,0-0.7,0-1.1c0-0.1,0-0.2,0-0.3c0-0.4,0-0.7,0-1.1c0-0.2,0-0.3,0-0.5c0-0.3,0-0.6,0-0.9c0-0.1,0-0.2,0-0.3c0-0.4,0-0.7,0-1.1
		c0-0.2,0-0.3,0-0.5c0-0.3,0-0.6,0-0.9c0-0.2,0-0.3,0-0.5c0-0.3,0-0.6,0-0.9c0-0.1,0-0.2,0-0.3c0-0.4,0-0.7,0-1.1c0-0.2,0-0.3,0-0.5
		c0-0.3,0-0.6,0-0.9c0-0.2,0-0.3,0-0.5c0-0.3,0-0.6,0-0.9c0-0.2,0-0.3,0-0.5c0-0.3,0-0.6,0-0.9c0-0.2,0-0.3,0-0.5c0-0.3,0-0.6,0-0.9
		c0-0.2,0-0.4,0-0.7c0-0.2,0-0.4,0-0.7c0-0.2,0-0.3,0-0.5c0-0.3,0-0.6,0-0.9c0-0.2,0-0.3,0-0.5c0-0.3,0-0.6,0-0.9c0-0.2,0-0.4,0-0.7
		c0-0.2,0-0.4,0-0.7c0-0.2,0-0.3,0-0.5c0-0.3,0-0.6,0-0.9c0-0.2,0-0.4,0-0.7c0-0.2,0-0.4,0-0.7c0-0.2,0-0.3,0-0.5c0-0.3,0-0.6,0-0.9
		c0-0.2,0-0.4,0-0.7c0-0.2,0-0.4,0-0.7c0-0.2,0-0.4,0-0.7c0-0.2,0-0.4,0-0.7c0-0.2,0-0.4,0-0.7c0-0.2,0-0.4,0-0.7c0-0.2,0-0.4,0-0.7
		c0-0.2,0-0.4,0-0.7c0-0.2,0-0.4,0-0.7c0-0.2,0-0.4,0-0.7c0-0.2,0-0.4,0-0.7c0-0.2,0-0.4,0-0.7c0-0.2,0-0.4,0-0.7c0-0.2,0-0.4,0-0.7
		c0-0.2,0-0.4,0-0.7L518.2,395.6z"/>
</g>
<path class="st2" d="M591.2,272.3c-3.8,2.3-7.6,4.6-11.5,6.8c-4.2,2.4-8.4,4.8-12.5,7.2c-1.9,1.1-3.5,1.2-5.4,0.1
	c-7.8-4.6-15.8-9.1-23.8-13.9c0.4-1.6,0.9-3,1.4-4.4c7-19.2,14-38.4,21-57.6c7.7-21,15.3-42,23-63c6.3-17.4,12.7-34.7,19-52.1
	c1.5-4.2-0.4-6.6,1.1-10.8c0.8-2.3-5.9,2.5-8,2.5c-9.3,0-9.2-1.6-18.5-1.6c-2.9,0-4.1-2.6-5.1,0c-11.1,30.4-22.9,58-34,88.4
	c-11,30.1-21.9,60.2-32.9,90.3c-1.1,3.1-2.3,6.2-3.5,9.4c-1-0.5-1.9-0.9-2.8-1.5c-2.6-1.5-5.1-2.9-7.6-4.3c-0.3-0.2-0.5-0.2-0.8-0.4
	c-0.2-0.4-0.3-0.7-0.4-1.1c0.6-1.5,1.1-2.8,1.6-4.2c6.3-17.3,12.5-34.5,18.8-51.8c7.7-21.1,15.4-42.2,23.1-63.3
	c6.3-17.4,12.7-34.7,19-52.1c1.5-4.1,0.7-6.2,2.1-10.4c0.8-2.2-4.9,0.9-7.1,0.9c-9.2,0-11.2,1.8-20.5,1.8c-3.2,0-4-6.1-5.1-3.1
	c-5.4,14.8-11.7,28.3-17.1,43.1c-11.9,32.5-23.7,65.1-35.6,97.6c-0.8,2.3-1.9,4.5-2.8,6.8c-4.4-2.6-8.8-5.3-13.3-7.9
	c-5.5-3.2-5.5-3.1-5.5-9.4c0-41.6,0-83.3,0-124.9c0-2.7,0.9-4.5,3.3-5.8c19.2-11,38.3-22.1,57.5-33.2c17.6-10.2,35.3-20.4,52.9-30.6
	c2-1.2,3.6-1.1,5.5,0c28.3,16.4,56.7,32.8,85.1,49.1c8.7,5,17.4,10.1,26.2,15.1c1.9,1.1,2.7,2.5,2.7,4.7c0,42.8,0,85.7,0,128.5
	c0,2.2-0.8,3.8-2.8,4.8c-5.4,3-10.8,6.2-16.3,9.1c-5.3-14.3-10.5-28.4-15.6-42.6c-7-19.1-14-38.1-20.9-57.2
	c-2.8-7.8-5.6-15.5-8.5-23.3c-0.3-0.8-1.4-1.7-2.2-1.7c-0.8-0.1-1.7,0.8-2.5,1.4c-0.3,0.3-0.4,0.8-0.6,1.3
	c-4.7,12.8-9.3,25.6-14,38.4c-0.7,2-0.7,3.8,0,5.8c2.1,5.6,4.1,11.2,6.1,16.8c7.9,21.6,15.8,43.3,23.7,64.9c1.6,4.5,3.4,8.9,5,13.3
	c-3.9,2.3-7.8,4.5-11.8,6.7c-3.9-10.4-7.6-20.6-11.4-30.9c-5.7-15.6-11.4-31.3-17.1-46.9c-0.5-1.3-1.1-2.6-2.8-2.6
	c-1.7,0.1-2.1,1.3-2.6,2.6c-4.8,13.1-9.6,26.1-14.3,39.3c-0.5,1.4-0.4,3.4,0.2,4.9c3.5,10.1,7.3,20.2,10.9,30.3
	C586.2,258.6,588.7,265.4,591.2,272.3z"/>
<path class="st3" d="M561.9,0c1.6,0,3.2,0,5.1,0.1c4.1,0.5,7.6,2,11,4c4.8,2.8,9.6,5.5,14.5,8.3c0.6,0.4,1.1,0.7,1.6,1
	c4.2,2.4,8.5,4.8,12.8,7.3c0.9,0.5,1.7,0.9,2.5,1.4c1.6,0.9,3.1,1.7,4.7,2.6c2.5,1.5,4.8,2.8,7.3,4.3c0.1,0.2,0.2,0.2,0.4,0.3
	c2.2,1.3,4.3,2.4,6.5,3.7c5,2.9,9.9,5.7,14.9,8.6c1.4,0.8,2.6,1.4,4,2.2c1.1,0.7,2.1,1.2,3.2,1.9c2.4,1.5,4.8,2.8,7.3,4.3
	c0.6,0.4,1.2,0.7,1.8,1c1.7,1,3.3,1.9,5,3c2.3,1.4,4.6,2.8,6.9,4.1c2.6,1.4,5.2,2.8,7.9,4.3c0.3,0.2,0.4,0.4,0.6,0.5
	c4.6,2.9,9.2,5.9,13.8,8.9c0.2,0.3,0.5,0.4,0.7,0.7c1.5,2.5,2.9,4.8,4.3,7.3c0.5,2.4,1,4.8,1.5,7.2c0,2.5,0,4.8,0,7.2
	c0,24,0,47.9,0,71.8c0,17.1,0,34.1,0,51.3c-0.3,2.5-0.5,4.8-0.9,7.1c-1.2,2.4-2.3,4.8-3.6,7.2c-0.8,0.9-1.4,1.7-2.2,2.5
	c-2,1.5-3.8,2.9-5.8,4.3c-0.5,0.3-1,0.7-1.5,1c-2.4,1.4-4.8,2.7-7.2,4c-1.4,0.7-2.6,1.5-4,2.2c-1.2,0.7-2.4,1.4-3.6,2.1
	c-4.7,2.8-9.3,5.6-14.1,8.4c-2.2,1.3-4.3,2.6-6.5,3.9c-0.3,0.1-0.4,0.2-0.8,0.4c-2.6,1.5-5,2.9-7.6,4.4c-1.7,0.9-3.3,1.7-5.1,2.5
	c-0.8,0.5-1.4,0.9-2.2,1.4c-4.7,2.8-9.3,5.6-14.1,8.4c-4.9,2.8-9.6,5.5-14.5,8.3c-2.2,1.2-4.3,2.4-6.5,3.7c-0.4,0.2-0.7,0.4-1.1,0.7
	c-2.3,1.2-4.5,2.4-6.9,3.7c-1.8,1.1-3.4,2.1-5.1,3.2c-0.7,0.4-1.4,0.7-2.1,1.1c-1.8,1-3.6,2-5.3,3c-5.3,3.3-10.8,5.6-17.2,4.9
	c-2.1-0.2-4.2-0.7-6.4-1.2c-0.8-0.4-1.4-0.7-2.2-1c-1.7-1-3.3-1.9-5.1-2.9c-2.2-1.3-4.3-2.4-6.5-3.7c-0.4-0.3-0.7-0.4-1.1-0.7
	c-2.3-1.4-4.6-2.6-6.9-4c-1-0.8-2-1.4-2.9-2.2c2.2-5.9,4.3-11.8,6.6-17.5c8,4.6,15.9,9.1,23.8,13.7c1.9,1.1,3.5,1.1,5.4-0.1
	c4.1-2.5,8.4-4.8,12.5-7.2c3.9-2.2,7.7-4.5,11.6-6.8c6.7-3.8,13.2-7.5,19.7-11.2c3.2-1.9,6.4-3.8,9.7-5.8c4-2.3,7.9-4.6,11.9-6.9
	c0.5-0.2,0.9-0.4,1.3-0.6c6.4-3.7,12.8-7.4,19.2-11.1c2.9-1.7,5.9-3.5,8.9-5.3c5.5-3.1,10.9-6.2,16.3-9.3c1.9-1.1,2.8-2.6,2.8-4.8
	c0-42.8,0-85.7,0-128.5c0-2.2-0.8-3.6-2.7-4.7c-8.8-5-17.4-10.1-26.2-15.1c-28.4-16.4-56.7-32.7-85.1-49.1c-1.9-1.1-3.6-1.2-5.5,0
	c-17.6,10.3-35.3,20.4-52.9,30.6c-19.2,11.1-38.3,22.2-57.5,33.2c-2.4,1.4-3.3,3.1-3.3,5.8c0.1,41.6,0,83.3,0,124.9
	c0,6.3,0,6.2,5.5,9.4c4.5,2.6,8.9,5.3,13.3,8.1c0,0.4,0,0.8-0.1,1c-2,5.5-4,11.1-6.2,16.6c-2-1-3.8-1.9-5.7-3
	c-0.4-0.2-0.7-0.2-1-0.4c-2.1-1.3-4.2-2.6-6.3-3.8c-0.7-0.4-1.2-0.8-1.8-1.1c-4.4-2.5-9-4.9-12.2-9.1c-0.2-0.3-0.4-0.5-0.7-0.8
	c-1.1-2.3-2.2-4.5-3.2-6.9c-0.3-2.5-0.5-4.8-0.8-7.2c0-2.5,0-4.8,0-7.2c0-2.5,0-4.8,0-7.3c0-2.5,0-4.8,0-7.2c0-2.5,0-4.8,0-7.3
	c0-2.5,0-4.8,0-7.2c0-2.5,0-4.8,0-7.3c0-2.5,0-4.8,0-7.2c0-2.5,0-4.8,0-7.3c0-2.5,0-4.8,0-7.2c0-2.5,0-4.8,0-7.3c0-2.5,0-4.8,0-7.2
	c0-2.5,0-4.8,0-7.3c0-2.5,0-4.8,0-7.2c0-2.5,0-4.8,0-7.3c0-2.5,0-4.8,0-7.2c0-2.5,0-4.8,0-7.3c0-2.5,0-4.8,0-7.2c0-2.5,0-4.8,0-7.2
	c0.5-2.5,1-4.8,1.6-7.2c2.2-5.1,5.7-9.1,10.5-11.9c1.4-0.7,2.6-1.5,3.9-2.2c1-0.6,1.9-1.2,2.9-1.8c4.9-2.8,9.6-5.6,14.5-8.4
	c5-2.9,9.9-5.7,14.9-8.6c1.8-1,3.5-2,5.3-3c0.5-0.3,1-0.7,1.5-1c2.5-1.4,4.8-2.9,7.3-4.3c1.2-0.6,2.3-1.3,3.6-1.9
	c1.2-0.7,2.4-1.4,3.6-2.1c4.9-2.8,9.6-5.5,14.5-8.3c4.9-2.8,9.6-5.6,14.5-8.3c1.7-1,3.3-2,5-2.9c0.8-0.5,1.4-0.9,2.2-1.4
	c1.5-0.8,3-1.5,4.4-2.3c3.3-2,6.6-4,10.1-6c2.4-1.2,4.8-2.5,7.2-3.7C558.2,0.9,560.1,0.5,561.9,0z"/>
<path class="st4" d="M531.3,290.5c1.8-4.8,3.6-9.5,5.3-14.3c0.5-1.6,1-3,1.5-4.4c3.1-8.6,6.3-17.2,9.4-25.9l0.1-0.2
	c3.8-10.5,7.7-21,11.5-31.6c2.8-7.7,5.6-15.4,8.4-23.1c4.8-13.3,9.7-26.6,14.6-39.9c3.9-10.8,7.9-21.5,11.8-32.3
	c2.4-6.6,4.8-13.2,7.2-19.8c0.4-1,0.7-2,1.1-3v0c1.2-3.2,2.4-6.5,3.5-9.8c0.8-2.3-0.2-3.8-2.3-3.8l-0.7,0c-9.1,0-18.1,0-27.2,0
	c-2.9,0-4.6,1.2-5.5,3.8c-3.2,8.8-6.4,17.6-9.6,26.4c-7.9,21.6-15.8,43.2-23.7,64.8c-6.8,18.7-13.6,37.4-20.4,56.1l0,0.1
	c-4.2,11.4-8.3,22.8-12.5,34.2c-0.7,1.8-1.4,3.7-2,5.6C511.6,279.1,521.5,284.8,531.3,290.5z M490.1,266.7c0.1-0.3,0.2-0.6,0.3-0.8
	c2.2-6,4.3-11.9,6.5-17.9v0c4.1-11.3,8.2-22.6,12.3-33.9c5.4-14.8,10.8-29.6,16.2-44.4l0,0c2.3-6.3,4.6-12.6,6.9-18.8l6-16.5l0,0
	c4.3-11.8,8.7-23.7,13-35.5c0.4-1,0.8-2.1,1.2-3.1v0l0,0c1.1-3.1,2.3-6.2,3.3-9.3c0.8-2.2-0.2-3.7-2.4-3.7c-4.7,0-9.3,0-14,0
	c-4.6,0-9.1,0-13.7,0c-3.2,0-4.7,1.1-5.8,4.1c-2.1,5.8-4.2,11.6-6.4,17.4c-3.3,9-6.5,17.9-9.8,26.9c-3.7,10.1-7.4,20.2-11.1,30.4v0
	c-8.2,22.4-16.3,44.8-24.5,67.2c-0.5,1.3-1,2.5-1.5,3.8l0,0v0c-0.4,1-0.8,2-1.3,3.1c0,0.1,0,0.2,0,0.3c0,0.3,0,0.5-0.1,0.7
	c-1.6,4.3-3.2,8.7-4.8,13c1.3,0.8,2.6,1.5,3.9,2.3c2.7,1.6,5.4,3.1,8.1,4.7C478.4,259.9,484.2,263.3,490.1,266.7z"/>
<path class="st5" d="M632.7,248.4c-1.8-4.4-3.5-8.8-5.2-13.3c-7.9-21.6-15.8-43.3-23.7-64.9c-2.1-5.6-4.1-11.2-6.1-16.8
	c-0.8-2-0.7-3.8,0-5.8c4.7-12.8,9.3-25.6,14-38.4c0.2-0.5,0.3-1,0.6-1.3c0.8-0.6,1.7-1.4,2.5-1.4c0.8,0.1,1.9,0.9,2.2,1.7
	c2.9,7.7,5.7,15.5,8.5,23.3c7,19.1,14,38.1,20.9,57.2c5.2,14.1,10.3,28.3,15.5,42.6c-2.9,1.9-5.8,3.7-8.8,5.4
	c-6.4,3.7-12.8,7.4-19.2,11.1C633.6,248,633.2,248.2,632.7,248.4z"/>
<path class="st5" d="M591.4,272.3c-2.7-6.8-5.2-13.6-7.7-20.5c-3.7-10.1-7.4-20.1-10.9-30.3c-0.5-1.5-0.7-3.4-0.2-4.9
	c4.7-13.1,9.5-26.2,14.3-39.3c0.5-1.3,1-2.5,2.6-2.6c1.8-0.1,2.3,1.2,2.8,2.6c5.7,15.6,11.4,31.3,17.1,46.9
	c3.7,10.3,7.5,20.5,11.2,30.9c-3.2,2.1-6.3,4-9.5,5.9C604.6,264.8,598,268.5,591.4,272.3z"/>
</svg>
