<svg
  width="32"
  height="32"
  viewBox="0 0 32 32"
  xmlns="http://www.w3.org/2000/svg"
>
  <!-- Background -->
  <rect
    width="32"
    height="32"
    rx="8"
    fill="currentColor"
  />

  <!-- Icon (centered) -->
  <g
    transform="translate(8 8)"
    fill="#ffffff"
  >
    <path d="M14.5 7.125H8.375V5.375H9C9.23206 5.375 9.45462 5.28281 9.61872 5.11872C9.78281 4.95462 9.875 4.73206 9.875 4.5V2.5C9.875 2.26794 9.78281 2.04538 9.61872 1.88128C9.45462 1.71719 9.23206 1.625 9 1.625H7C6.76794 1.625 6.54538 1.71719 6.38128 1.88128C6.21719 2.04538 6.125 2.26794 6.125 2.5V4.5C6.125 4.73206 6.21719 4.95462 6.38128 5.11872C6.54538 5.28281 6.76794 5.375 7 5.375H7.625V7.125H1.5C1.40054 7.125 1.30516 7.16451 1.23483 7.23484C1.16451 7.30516 1.125 7.40054 1.125 7.5C1.125 7.59946 1.16451 7.69484 1.23483 7.76516C1.30516 7.83549 1.40054 7.875 1.5 7.875H3.625V10.125H3C2.76794 10.125 2.54538 10.2172 2.38128 10.3813C2.21719 10.5454 2.125 10.7679 2.125 11V13C2.125 13.2321 2.21719 13.4546 2.38128 13.6187C2.54538 13.7828 2.76794 13.875 3 13.875H5C5.23206 13.875 5.45462 13.7828 5.61872 13.6187C5.78281 13.4546 5.875 13.2321 5.875 13V11C5.875 10.7679 5.78281 10.5454 5.61872 10.3813C5.45462 10.2172 5.23206 10.125 5 10.125H4.375V7.875H11.625V10.125H11C10.7679 10.125 10.5454 10.2172 10.3813 10.3813C10.2172 10.5454 10.125 10.7679 10.125 11V13C10.125 13.2321 10.2172 13.4546 10.3813 13.6187C10.5454 13.7828 10.7679 13.875 11 13.875H13C13.2321 13.875 13.4546 13.7828 13.6187 13.6187C13.7828 13.4546 13.875 13.2321 13.875 13V11C13.875 10.7679 13.7828 10.5454 13.6187 10.3813C13.4546 10.2172 13.2321 10.125 13 10.125H12.375V7.875H14.5C14.5995 7.875 14.6948 7.83549 14.7652 7.76516C14.8355 7.69484 14.875 7.59946 14.875 7.5C14.875 7.40054 14.8355 7.30516 14.7652 7.23484C14.6948 7.16451 14.5995 7.125 14.5 7.125Z"/>
  </g>
</svg>
