<?xml version="1.0" encoding="UTF-8"?>
<svg xmlns="http://www.w3.org/2000/svg" xmlns:xlink="http://www.w3.org/1999/xlink" width="29px" height="30px" viewBox="0 0 29 30" version="1.1">
<g id="surface1">
<path style=" stroke:none;fill-rule:nonzero;fill:currentColor;fill-opacity:1;" d="M 13.886719 9.238281 L 13.886719 12.421875 C 13.304688 12.203125 12.859375 11.957031 12.554688 11.6875 C 12.246094 11.414062 12.089844 11.082031 12.089844 10.6875 C 12.089844 10.246094 12.25 9.90625 12.566406 9.652344 C 12.882812 9.40625 13.324219 9.269531 13.886719 9.238281 Z M 13.886719 9.238281 "/>
<path style=" stroke:none;fill-rule:nonzero;fill:currentColor;fill-opacity:1;" d="M 16.910156 17.847656 C 16.910156 18.300781 16.734375 18.671875 16.382812 18.957031 C 16.035156 19.242188 15.5625 19.390625 14.960938 19.410156 L 14.960938 16.113281 C 15.59375 16.316406 16.078125 16.554688 16.410156 16.828125 C 16.742188 17.09375 16.910156 17.4375 16.910156 17.847656 Z M 16.910156 17.847656 "/>
<path style=" stroke:none;fill-rule:nonzero;fill:currentColor;fill-opacity:1;" d="M 27.804688 5.433594 C 25.34375 5.199219 23.332031 4.078125 21.308594 2.980469 C 19.199219 1.835938 17.074219 0.726562 14.726562 0 L 14.269531 0 C 11.4375 0.839844 8.996094 2.328125 6.449219 3.644531 C 4.828125 4.480469 3.1875 5.25 1.257812 5.398438 C 0.550781 5.453125 -0.0390625 6.09375 0 6.714844 C 0.386719 12.378906 1.539062 17.855469 5.105469 22.734375 C 7.222656 25.636719 10.035156 27.90625 13.378906 29.691406 C 14.167969 30.113281 14.847656 30.09375 15.632812 29.683594 C 21.160156 26.785156 24.8125 22.582031 26.878906 17.257812 C 28.191406 13.878906 28.757812 10.386719 28.996094 6.839844 C 29.042969 6.128906 28.585938 5.507812 27.804688 5.433594 Z M 20.726562 20.023438 C 20.226562 20.710938 19.488281 21.257812 18.503906 21.667969 C 17.523438 22.078125 16.34375 22.28125 14.960938 22.28125 L 14.960938 24.039062 L 13.886719 24.039062 L 13.886719 22.242188 C 12.074219 22.105469 10.597656 21.625 9.457031 20.789062 C 8.320312 19.957031 7.691406 18.84375 7.574219 17.449219 L 12.117188 17.449219 C 12.167969 17.917969 12.34375 18.316406 12.652344 18.636719 C 12.960938 18.960938 13.371094 19.179688 13.886719 19.296875 L 13.886719 15.804688 C 13.605469 15.730469 13.421875 15.679688 13.339844 15.652344 C 12.125 15.34375 11.128906 15.03125 10.355469 14.71875 C 9.582031 14.402344 8.917969 13.933594 8.359375 13.3125 C 7.800781 12.691406 7.523438 11.867188 7.523438 10.839844 C 7.523438 9.945312 7.800781 9.164062 8.359375 8.488281 C 8.917969 7.816406 9.679688 7.300781 10.644531 6.941406 C 11.609375 6.582031 12.691406 6.390625 13.886719 6.359375 L 13.886719 4.558594 L 14.960938 4.558594 L 14.960938 6.382812 C 16.792969 6.488281 18.246094 6.941406 19.328125 7.753906 C 20.410156 8.570312 21.019531 9.640625 21.152344 10.972656 L 16.535156 10.972656 C 16.46875 10.53125 16.300781 10.175781 16.035156 9.894531 C 15.769531 9.621094 15.410156 9.425781 14.960938 9.328125 L 14.960938 12.753906 L 15.734375 12.96875 C 16.949219 13.308594 17.933594 13.636719 18.691406 13.949219 C 19.449219 14.261719 20.101562 14.726562 20.652344 15.34375 C 21.199219 15.957031 21.476562 16.765625 21.476562 17.761719 C 21.476562 18.582031 21.226562 19.332031 20.726562 20.023438 Z M 20.726562 20.023438 "/>
</g>
</svg>
