<svg width="24" height="24" viewBox="0 0 24 24" fill="none" xmlns="http://www.w3.org/2000/svg">
<path d="M23.9997 3.7449C24.0029 4.4551 23.7218 5.04091 23.2262 5.53559C22.4492 6.31102 21.6747 7.08901 20.8974 7.86445C20.0363 8.72334 19.1719 9.57871 18.3118 10.4386C17.5495 11.2006 16.7916 11.967 16.03 12.7297C15.3732 13.3874 14.7126 14.0417 14.0555 14.6988C13.1505 15.6034 12.2475 16.51 11.3433 17.4149C10.3757 18.3831 9.40774 19.3511 8.43919 20.3184C8.0283 20.7286 7.61325 21.1347 7.2046 21.5472C7.04951 21.7039 6.8519 21.7784 6.65621 21.8558C5.65536 22.2514 4.65259 22.6421 3.6511 23.0361C2.96074 23.3079 2.26814 23.5749 1.58289 23.8588C1.30438 23.9743 1.0329 24.0472 0.733928 23.9647C0.155162 23.8045 -0.152767 23.1464 0.075862 22.5929C0.353414 21.9214 0.61082 21.2415 0.878459 20.5662C1.14194 19.9014 1.40862 19.2376 1.67242 18.5731C1.85789 18.1053 2.04303 17.6375 2.22497 17.1684C2.32857 16.9014 2.5377 16.7197 2.73211 16.5256C3.46756 15.7908 4.20397 15.0569 4.93973 14.3221C5.63329 13.6292 6.32749 12.9369 7.01945 12.2424C7.74563 11.5136 8.46797 10.781 9.19542 10.0536C9.98683 9.26246 10.7837 8.4768 11.5751 7.6857C12.3099 6.95087 13.0389 6.21062 13.7734 5.47547C14.4184 4.83019 15.0694 4.19097 15.7144 3.54601C16.4492 2.81118 17.1731 2.06581 17.9166 1.33994C18.2565 1.00802 18.5545 0.625903 18.9699 0.376486C19.7034 -0.0641519 20.4603 -0.119152 21.2539 0.217562C21.6542 0.387358 21.9481 0.681542 22.2455 0.975727C22.6078 1.33418 22.9605 1.70288 23.3183 2.06613C23.7774 2.53203 23.9971 3.0945 24 3.74554L23.9997 3.7449ZM2.81109 21.2016C2.94283 21.1251 3.04643 21.106 3.14236 21.0682C3.96063 20.7459 4.77953 20.4242 5.59332 20.0913C5.75065 20.0271 5.91756 19.9794 6.04866 19.8458C6.71057 19.1707 7.38174 18.5047 8.0494 17.8354C8.98374 16.8991 9.91648 15.9612 10.8524 15.0266C11.8597 14.0203 12.8711 13.0184 13.878 12.0118C14.6752 11.215 15.4662 10.4127 16.2631 9.61516C17.2655 8.61206 18.2705 7.61151 19.2746 6.61C20.1277 5.75847 20.9808 4.90693 21.8339 4.05507C22.0312 3.8581 22.0322 3.6301 21.8244 3.42609C21.4019 3.01168 20.9827 2.59438 20.5754 2.16526C20.4142 1.99546 20.1181 1.99706 19.957 2.1595C19.2058 2.91639 18.456 3.67423 17.703 4.4292C16.7744 5.36004 15.8439 6.28864 14.9134 7.21788C14.0766 8.05375 13.2391 8.88929 12.4017 9.72484C11.7442 10.3807 11.0855 11.0352 10.4287 11.6917C9.69649 12.4233 8.96615 13.1569 8.23454 13.8885C7.57744 14.546 6.91905 15.2018 6.2613 15.8589C5.61539 16.5042 4.96691 17.1472 4.32611 17.798C4.21388 17.9118 4.07638 18.0039 4.01243 18.167C3.622 19.164 3.22518 20.1585 2.81141 21.2022L2.81109 21.2016Z" fill="currentColor"/>
</svg>
