<?xml version="1.0" encoding="utf-8"?>
<!-- Generator: Adobe Illustrator 24.3.0, SVG Export Plug-In . SVG Version: 6.00 Build 0)  -->
<svg version="1.1" id="Layer_1" xmlns="http://www.w3.org/2000/svg" xmlns:xlink="http://www.w3.org/1999/xlink" x="0px" y="0px"
	 viewBox="0 0 454.2 608.2" style="enable-background:new 0 0 454.2 608.2;" xml:space="preserve">
<style type="text/css">
	.st0{fill-rule:evenodd;clip-rule:evenodd;fill:currentColor;}
	.st1{fill:currentColor;}
</style>
<g>
	<path class="st1" d="M454.5,0H-0.3v85.4h32.9c0,3,0,5.1,0,7.3c0.3,19-0.3,38,1,56.9c2.2,32.8,14.2,61.4,41.4,81.3
		c15.6,11.4,32.7,21,49.4,30.9c16.2,9.5,25.5,23.2,25.6,41.9c0.1,18.8-9.1,32.7-25.4,42c-8.7,4.9-17.2,10.1-26,14.8
		C54.4,384.3,32.4,421.1,33,471.4c0.2,16.7,0,33.4,0,51.4v0.8c-8.2,0-15.2,0-22.1,0c-9.2,0.1-11.1,1.8-11.1,10.9
		c-0.1,9.7-0.1,19.4-0.1,29v44.6h454.8v-85.4h-34.2c0-22.2,1-43.2-0.2-64.1c-1.9-33.4-14.3-62.4-42.1-82.5
		c-15.3-11.1-31.9-20.4-48.3-29.9c-16.4-9.6-26.1-23.4-26-42.5c0.1-18.7,9.3-32.6,25.7-41.8c11.3-6.3,22.5-12.8,33.7-19.5
		c31.7-18.9,52-46,55.7-83.1c2.2-21.8,1.7-43.8,2.3-65.8c0.1-2.5,0-5.1,0-8.1h33.4V0z M388.1,159.1c-2.7,26.4-19.3,44.8-41.8,57.9
		c-11.2,6.6-22.5,12.8-33.7,19.5c-25.6,15.3-39.3,37.8-39.1,67.9c0.2,29.7,14,51.8,39.3,67c13.7,8.2,27.6,16,41.1,24.6
		c22,14,33.7,34.8,35.5,60.2c1.5,21.7,0.3,43.7,0.3,66.4v0.4h-326c0-0.1,0-0.2,0-0.4c-0.2-2.3-0.5-4.3-0.5-6.4
		c0-16.2,0.1-32.4,0.2-48.7c0.2-33.7,14.1-59.6,43.6-76.6c11.2-6.5,22.5-12.9,33.7-19.5c25.7-15.2,39.5-37.6,39.5-67.6
		c0-30-13.9-52.4-39.6-67.6c-13.7-8.2-27.7-16-41.1-24.6c-20.6-13.2-32.9-32.6-34.7-56.7c-1.7-22.8-0.4-45.9-0.4-69.5v-0.6h324.8
		c0.2,0.2,0.4,0.4,0.6,0.6c0.2,0.2,0.3,0.3,0.3,0.5C389.6,110.4,390.6,134.9,388.1,159.1z"/>
	<path class="st1" d="M349.6,499.7c-82.1,0-163.5,0-247.2,0c1.6-17.8,2.5-35.2,5.1-52.2c1.6-10.8,9.8-18.4,18.5-24.5
		c26.1-18.3,55.2-31,85.1-41.3c9.5-3.2,21.9-3.2,31.4,0c28.3,9.5,55.5,22.2,80.9,38.2c17.4,10.9,25.7,26.6,26.1,46.7
		C349.8,477.5,349.6,488.4,349.6,499.7z"/>
	<path class="st1" d="M320.4,189.6c-13.2,12.8-29.1,20.4-45.8,26.2c-17.5,6.1-32.8,14-42.5,30.7c-3.8,6.4-11,6.3-14.5-0.3
		c-9-16.4-23.7-24.2-40-31.8c-18.4-8.6-35.3-20.2-52.8-30.6c-2.3-1.4-4.2-3.4-6.8-5.6c7.7-10.1,17.7-15.6,29-19.1
		c22.9-7.1,45.4-3.8,67.6,3.4c12.5,4.1,24.8,8.9,37.2,13.5C273.9,184.1,296.3,190.5,320.4,189.6z"/>
</g>
</svg>
