<svg width="775" height="628" viewBox="0 0 775 628" fill="none" xmlns="http://www.w3.org/2000/svg">
<path d="M33.9937 596.516H715.056L545.472 346.364L548.356 339.327C558.646 314.104 563.863 287.591 563.863 260.572C563.863 238.29 560.371 215.634 553.515 193.219C543.674 161.238 526.355 132.344 502.007 107.374C478.165 82.9093 448.223 63.6065 412.975 49.9708C379.931 37.2264 343.944 31.0272 303.03 31.0272H34.0082V596.502H33.9792L33.9937 596.516ZM774.985 627.073H0.688477V0.496521H303.001C348.408 0.496521 388.598 7.48065 425.845 21.8214C465.701 37.2131 499.659 59.1366 526.79 86.9933C554.559 115.475 574.327 148.427 585.531 184.931C593.212 210.047 597.111 235.483 597.111 260.572C597.111 288.722 592.125 316.366 582.299 342.879L774.971 627.1L775 627.073H774.985Z" fill="#1877F2"/>
<path d="M87.2441 547.599H619.128L484.661 349.25L489.009 341.521C492.371 335.574 495.386 329.402 497.98 323.136C506.299 303.101 510.516 282.029 510.516 260.518C510.516 242.718 507.705 224.52 502.168 206.441C494.56 181.697 481.124 159.308 462.211 139.925C443.674 120.915 420.137 105.803 392.252 95.0141C365.86 84.8505 336.657 79.8885 302.946 79.8885H87.2151V547.559L87.2441 547.599ZM679.072 578.156H53.9678V49.3578H303.004C341.208 49.3578 374.643 55.0915 405.209 66.878C437.703 79.4362 465.24 97.1692 487.081 119.585C509.386 142.466 525.256 168.926 534.271 198.193C540.648 218.986 543.851 239.965 543.851 260.558C543.851 285.807 538.894 310.524 529.14 334.058C527.213 338.647 525.126 343.223 522.85 347.707L679.086 578.17V578.143L679.072 578.156Z" fill="#1877F2"/>
<path d="M140.551 498.713H523.272L420.661 347.364L427.835 338.943C436.4 328.872 443.284 317.711 448.241 305.752C454.227 291.291 457.299 276.086 457.299 260.561C457.299 247.245 455.169 233.502 450.951 219.76C445.56 202.24 436.038 186.356 422.574 172.574C409.356 158.992 392.21 148.083 371.703 140.155C351.948 132.545 329.499 128.847 303.034 128.847H140.58V498.74L140.551 498.713ZM583.201 529.284H107.246V98.2897H303.005C333.977 98.2897 360.688 102.773 384.602 111.979C409.733 121.677 430.849 135.206 447.386 152.194C464.256 169.488 476.213 189.416 482.981 211.472C488.01 227.928 490.561 244.424 490.561 260.561C490.561 279.824 486.793 298.688 479.329 316.634C474.575 328.074 468.43 338.916 460.966 349.013L583.172 529.257V529.284H583.201Z" fill="#1877F2"/>
<path d="M294.413 372.266L343.168 449.836H427.344L349.719 335.323L363.632 327.195C370.806 323.018 377.183 318.056 382.546 312.455C389.416 305.311 394.764 297.183 398.43 288.337C402.126 279.463 403.996 270.111 403.996 260.56C403.996 251.713 402.532 242.454 399.648 233.036C396.488 222.752 390.822 213.374 382.836 205.179C374.894 197.037 364.198 190.319 351.023 185.238C337.922 180.196 322.225 177.735 302.95 177.735H193.773V449.823H262.746V372.426L294.399 372.266H294.428H294.413ZM487.288 480.394H323.95L296.08 436.041V480.394H160.525V147.204H303.008C326.776 147.204 346.704 150.437 363.966 157.088C381.72 163.953 396.43 173.291 407.677 184.825C419.083 196.519 427.17 209.955 431.721 224.774C435.431 236.894 437.316 248.933 437.316 260.586C437.316 273.889 434.707 286.9 429.576 299.258C424.475 311.537 417.054 322.792 407.532 332.702C403.633 336.747 399.416 340.525 394.865 344.05L487.302 480.407H487.273L487.288 480.394Z" fill="#1877F2"/>
<path d="M246.134 299.444H292.961C299.889 299.444 306.773 298.938 313.6 297.914C320.397 296.89 326.47 295.014 331.803 292.273C337.136 289.533 341.412 285.609 344.629 280.5C347.847 275.392 349.456 268.727 349.456 260.545C349.456 252.364 347.832 245.713 344.629 240.591C341.412 235.482 337.122 231.558 331.803 228.818C326.47 226.077 320.397 224.228 313.6 223.204C306.773 222.179 299.889 221.674 292.961 221.674H246.134V299.444ZM210.466 193.006H303.005C319.846 193.006 333.731 195.121 344.629 199.325C355.528 203.528 364.152 208.89 370.442 215.368C376.761 221.847 381.167 229.137 383.645 237.212C386.123 245.287 387.355 253.069 387.355 260.585C387.355 268.102 385.862 275.764 382.906 282.935C379.92 290.105 375.645 296.584 370.079 302.384C364.514 308.184 357.688 313.079 349.644 317.057C341.6 321.048 332.6 323.482 322.687 324.387L397.384 434.563H352.775L285.874 328.125H246.105V434.563H210.423V193.046L210.452 193.019L210.466 193.006Z" fill="#1877F2"/>
</svg>
