<svg width="26" height="26" viewBox="0 0 26 26" fill="none" xmlns="http://www.w3.org/2000/svg">
<g clip-path="url(#clip0_37_1712)">
<path d="M9.38926 15.8893C11.1952 15.8893 12.7294 15.258 13.9943 13.9943C15.2591 12.7306 15.8904 11.1963 15.8893 9.38927C15.8893 7.58333 15.258 6.04908 13.9943 4.78538C12.7306 3.52168 11.1963 2.88926 9.38926 2.88926C7.58333 2.88926 6.04908 3.52168 4.78538 4.78538C3.52168 6.04908 2.88926 7.58446 2.88926 9.38927C2.88926 11.1952 3.52168 12.7294 4.78538 13.9943C6.05021 15.2591 7.58446 15.8904 9.38926 15.8893ZM23.9776 26L14.8781 16.9004C14.1555 17.4776 13.3258 17.9353 12.3867 18.2724C11.4477 18.6094 10.4489 18.7774 9.38926 18.7774C6.76491 18.7774 4.54414 17.8688 2.72693 16.0505C0.909729 14.2321 0 12.0125 0 9.38927C0 6.76491 0.908602 4.54414 2.72693 2.72693C4.54527 0.909729 6.76604 0 9.38926 0C12.0136 0 14.2344 0.908602 16.0527 2.72693C17.8711 4.54527 18.7797 6.76604 18.7785 9.38927C18.7785 10.4489 18.6094 11.4477 18.2735 12.3867C17.9364 13.3258 17.4788 14.1566 16.9016 14.8781L26.0011 23.9776L23.9788 26H23.9776Z" fill="currentColor"/>
</g>
<defs>
<clipPath id="clip0_37_1712">
<rect width="26" height="26" fill="white"/>
</clipPath>
</defs>
</svg>
