<svg
  width="32"
  height="32"
  viewBox="0 0 48 48"
  xmlns="http://www.w3.org/2000/svg"
>
  <!-- Background -->
  <rect
    width="48"
    height="48"
    rx="12"
    fill="currentColor"
  />

  <!-- Shield -->
  <path
    d="M24 11
       C19 11 15 12.5 13 13.5
       V22.5
       C13 30 18.5 34.5 24 37
       C29.5 34.5 35 30 35 22.5
       V13.5
       C33 12.5 29 11 24 11Z"
    fill="none"
    stroke="#ffffff"
    stroke-width="2"
    stroke-linejoin="round"
  />

  <!-- Keyhole -->
  <path
    d="M24 21
       C22.9 21 22 21.9 22 23
       C22 24 22.6 24.8 23.4 25.1
       V28
       H24.6
       V25.1
       C25.4 24.8 26 24 26 23
       C26 21.9 25.1 21 24 21Z"
    fill="#ffffff"
  />
</svg>
