<svg width="29" height="30" viewBox="0 0 29 30" fill="none" xmlns="http://www.w3.org/2000/svg">
<g clip-path="url(#clip0_37_1911)">
<path d="M0 10.4984C0 10.4752 0 10.4512 0 10.4279C0.071339 10.2693 0.130788 10.1036 0.216815 9.95336C1.15891 8.30119 2.1038 6.65043 3.05149 5.00108C3.33405 4.50888 3.6306 4.41369 4.15934 4.62876C5.2651 5.07865 6.37015 5.52994 7.47591 5.98124C7.61649 6.03836 7.73469 6.08349 7.88855 5.9615C8.54809 5.43898 9.27757 5.02787 10.0434 4.68658C10.1903 4.621 10.2469 4.54626 10.2686 4.38337C10.4211 3.2248 10.5924 2.06835 10.7498 0.909785C10.8442 0.206748 11.0652 0.000843673 11.7674 0.000138521C13.616 0.000138521 15.4652 -0.00127178 17.3137 0.000138521C17.9411 0.000138521 18.1893 0.229313 18.2754 0.857604C18.4355 2.02745 18.6083 3.19518 18.758 4.36644C18.781 4.54837 18.8524 4.62594 19.0048 4.69363C19.7609 5.02999 20.4771 5.44039 21.1303 5.95162C21.2954 6.08067 21.4213 6.03554 21.5744 5.97278C22.6473 5.53417 23.7202 5.09557 24.7938 4.65908C25.4351 4.39817 25.6883 4.48209 26.0268 5.07371C26.9549 6.69344 27.8824 8.31459 28.8077 9.93573C29.1217 10.485 29.0587 10.7869 28.5664 11.174C27.6592 11.8862 26.7556 12.604 25.845 13.312C25.666 13.4509 25.5652 13.5856 25.6016 13.8345C25.7149 14.6151 25.7051 15.4 25.6037 16.182C25.5764 16.3914 25.6387 16.5212 25.8072 16.6523C26.7276 17.3666 27.6369 18.0958 28.5517 18.8171C29.0406 19.2028 29.1119 19.5188 28.8049 20.0561C27.8677 21.6977 26.927 23.3379 25.9856 24.9773C25.6897 25.4928 25.4051 25.588 24.856 25.3645C23.7608 24.9188 22.6648 24.476 21.5724 24.024C21.3821 23.945 21.245 23.9528 21.0716 24.0867C20.4344 24.5803 19.7378 24.9787 19.0007 25.3003C18.8433 25.3687 18.7768 25.4505 18.7538 25.6282C18.6034 26.7755 18.4313 27.9199 18.2782 29.0672C18.181 29.7928 17.9648 29.998 17.2438 29.998C15.4183 29.998 13.5929 29.998 11.7674 29.998C11.0652 29.998 10.8442 29.7921 10.7491 29.0898C10.5938 27.9432 10.4218 26.7987 10.2742 25.6508C10.2497 25.4597 10.1805 25.368 10.0133 25.2954C9.27547 24.9738 8.58446 24.5669 7.94311 24.0797C7.78364 23.9584 7.65775 23.9372 7.47311 24.0141C6.37085 24.4732 5.2637 24.9202 4.15864 25.3708C3.6292 25.5866 3.33755 25.4914 3.05219 24.9985C2.55002 24.1297 2.04295 23.2638 1.55547 22.3859C1.03511 21.4509 0.437826 20.5567 0 19.5738V19.5032C0.0692408 19.1753 0.28116 18.9631 0.537141 18.7642C1.43867 18.0661 2.32481 17.3483 3.22424 16.6467C3.37741 16.5268 3.44945 16.4126 3.42287 16.2095C3.31656 15.4056 3.31656 14.5989 3.42217 13.795C3.44805 13.5962 3.38511 13.4777 3.22844 13.3557C2.32831 12.6555 1.44287 11.9363 0.540638 11.2396C0.282558 11.04 0.078333 10.8214 0 10.4984ZM9.29505 15.003C9.29715 17.887 11.6422 20.2528 14.5063 20.2599C17.362 20.2662 19.7154 17.9018 19.7287 15.0135C19.742 12.1238 17.3661 9.72842 14.4993 9.7397C11.6339 9.75099 9.29295 12.1189 9.29505 15.003Z" fill="currentColor"/>
</g>
<defs>
<clipPath id="clip0_37_1911">
<rect width="29" height="30" fill="white"/>
</clipPath>
</defs>
</svg>
