<svg width="26" height="23" viewBox="0 0 26 23" fill="none" xmlns="http://www.w3.org/2000/svg">
<g clip-path="url(#clip0_562_249)">
<path d="M4.75544 10.9967C4.85508 10.8993 4.95497 10.8023 5.05409 10.7045C5.1639 10.5961 5.29009 10.5122 5.43294 10.4496C6.13801 10.1406 6.96878 10.5876 7.07299 11.3334C7.12802 11.7271 7.00017 12.0607 6.71511 12.3388C5.98411 13.0518 5.2512 13.763 4.51957 14.4754C4.39985 14.592 4.28535 14.7142 4.13373 14.7938C3.69871 15.0222 3.27399 15.0042 2.86325 14.7374C2.68749 14.6233 2.55519 14.4618 2.40701 14.3183C1.73777 13.6703 1.07273 13.0183 0.402852 12.3712C0.138766 12.116 -0.0156443 11.8183 0.00125826 11.4515C0.0297257 10.8349 0.536928 10.3558 1.17147 10.3505C1.5066 10.3476 1.79356 10.4729 2.03121 10.7033C2.12411 10.7935 2.2165 10.8842 2.30979 10.974C2.3258 10.9895 2.33838 11.0099 2.37041 11.0183C2.37562 10.9417 2.38121 10.8672 2.38566 10.7926C2.4262 10.121 2.5271 9.45802 2.68952 8.80408C2.89858 7.96245 3.20092 7.15346 3.59666 6.37785C4.07019 5.45017 4.66343 4.60137 5.37486 3.8307C6.14805 2.99315 7.02381 2.27455 8.01051 1.68601C8.86453 1.17648 9.77383 0.784414 10.7307 0.496823C11.3181 0.320262 11.9169 0.1939 12.5259 0.110937C13.1351 0.0279728 13.7471 -0.00788342 14.3619 0.000771521C15.4388 0.0159795 16.4944 0.167688 17.5276 0.466778C18.6947 0.804568 19.7855 1.29963 20.7947 1.96235C21.5593 2.46458 22.2513 3.04978 22.8772 3.70941C23.7137 4.5911 24.3927 5.57517 24.9093 6.66483C25.3594 7.61415 25.6753 8.60378 25.8469 9.63644C25.9886 10.4896 26.0321 11.3473 25.9769 12.2099C25.8437 14.2877 25.1798 16.1922 23.9901 17.9203C23.2196 19.0397 22.2672 19.9928 21.151 20.7907C20.078 21.5577 18.9013 22.1237 17.6294 22.5016C16.8072 22.7459 15.9664 22.8986 15.1083 22.9633C14.2905 23.025 13.475 23.0078 12.6621 22.9064C11.7157 22.7885 10.798 22.5583 9.90766 22.2231C8.8259 21.8159 7.82839 21.2655 6.91502 20.5705C6.51775 20.2682 6.13344 19.9499 5.7898 19.5907C5.22312 18.9984 5.46318 18.0289 6.24299 17.7478C6.67889 17.5907 7.08252 17.6661 7.43557 17.9585C7.65619 18.1413 7.85673 18.3461 8.07812 18.5289C8.94421 19.244 9.9116 19.7882 10.9809 20.1611C11.6993 20.4116 12.4369 20.5776 13.1967 20.6531C13.8242 20.7153 14.4516 20.719 15.0794 20.6617C16.2864 20.5515 17.429 20.2246 18.5067 19.6868C19.5952 19.1436 20.5371 18.4166 21.3369 17.5169C22.4355 16.2812 23.1441 14.8592 23.4682 13.2572C23.6359 12.4281 23.6807 11.5907 23.6096 10.7485C23.4916 9.34897 23.067 8.04245 22.337 6.83125C21.7046 5.78227 20.8823 4.89576 19.8907 4.15811C19.1214 3.58589 18.2768 3.14734 17.3652 2.82995C16.7575 2.61827 16.1338 2.47126 15.4948 2.38323C14.8553 2.29507 14.213 2.27306 13.5691 2.31387C12.2439 2.39782 10.9915 2.7387 9.81196 3.33329C8.81433 3.83627 7.94252 4.49862 7.18597 5.3039C6.38926 6.15208 5.77899 7.11414 5.35491 8.18772C5.08485 8.87122 4.90083 9.57536 4.80195 10.3008C4.77272 10.515 4.75125 10.7304 4.74159 10.9465C4.74095 10.9605 4.74159 10.9746 4.74159 10.9887C4.74629 10.9913 4.75086 10.9938 4.75557 10.9964L4.75544 10.9967Z" fill="currentColor"/>
<path d="M15.9499 13.7974C14.9783 13.7974 14.0066 13.7965 13.035 13.7977C12.6644 13.7982 12.3528 13.671 12.1082 13.3991C11.9291 13.2001 11.8364 12.9653 11.8232 12.701C11.8216 12.6682 11.8212 12.6351 11.8212 12.6023C11.8212 10.7139 11.8218 8.82536 11.8206 6.93698C11.8203 6.57669 11.9432 6.26746 12.2261 6.0339C12.5601 5.75818 12.9472 5.67274 13.3658 5.80974C13.8102 5.95514 14.076 6.26239 14.1624 6.71294C14.1788 6.79838 14.1803 6.88493 14.1803 6.97135C14.1804 8.44999 14.1803 9.92862 14.1806 11.4073C14.1806 11.5112 14.1676 11.5018 14.2804 11.5018C15.8066 11.502 17.3329 11.5025 18.8591 11.5015C19.1409 11.5012 19.3967 11.5712 19.6251 11.7366C20.2348 12.1782 20.2423 13.102 19.6393 13.5521C19.4119 13.7217 19.1561 13.7985 18.8709 13.798C17.8972 13.7964 16.9235 13.7974 15.9497 13.7974H15.9499Z" fill="currentColor"/>
</g>
<defs>
<clipPath id="clip0_562_249">
<rect width="26" height="23" fill="white"/>
</clipPath>
</defs>
</svg>
