<svg width="27" height="27" viewBox="0 0 27 27" fill="none" xmlns="http://www.w3.org/2000/svg">
<g clip-path="url(#clip0_692_322)">
<path d="M27.0001 7.37713C26.8158 7.95608 26.3904 8.35735 25.9711 8.76935C24.4121 10.2993 22.8574 11.834 21.3057 13.3723C20.7262 13.9465 20.0664 14.1987 19.2585 13.9214C18.9576 13.8183 18.7171 13.6233 18.496 13.4051C16.8053 11.738 15.114 10.0721 13.427 8.40207C12.5774 7.56077 12.572 6.47562 13.4179 5.63672C15.111 3.95831 16.8126 2.28825 18.5056 0.609843C18.8271 0.290856 19.2193 0.119736 19.6452 0.000488281H20.067C20.7015 0.111985 21.1552 0.497154 21.5927 0.934196C23.0248 2.36576 24.4695 3.7854 25.9155 5.20325C26.356 5.63552 26.8061 6.05528 27.0001 6.66344V7.37713Z" fill="currentColor"/>
<path d="M5.27878 26.9993C4.14341 26.9993 3.00864 26.9999 1.87327 26.9993C0.754207 26.9981 0.0248855 26.3292 0.0152176 25.219C-0.00472244 22.9294 -0.0041182 20.6393 0.0152176 18.3497C0.0242812 17.2598 0.738497 16.5783 1.84668 16.5729C4.13676 16.5616 6.42745 16.561 8.71753 16.5729C9.88251 16.5789 10.5889 17.2991 10.5901 18.4427C10.5925 20.6733 10.5925 22.9032 10.5901 25.1337C10.5889 26.2874 9.85955 26.9987 8.68429 26.9993C7.54892 26.9999 6.41415 26.9993 5.27878 26.9993Z" fill="currentColor"/>
<path d="M24.6785 21.7816C24.6785 22.8918 24.6809 24.0014 24.6785 25.1116C24.6754 26.3267 23.9866 26.9993 22.7491 26.9993C20.5092 26.9993 18.2699 26.9993 16.0299 26.9993C14.8347 26.9993 14.1066 26.2951 14.1042 25.12C14.0994 22.9002 14.0994 20.6798 14.1042 18.46C14.1066 17.2961 14.816 16.5777 15.9919 16.5723C18.2717 16.5616 20.5515 16.5628 22.8319 16.5723C23.9842 16.5771 24.6742 17.2794 24.6785 18.4224C24.6827 19.5422 24.6791 20.6625 24.6797 21.7822L24.6785 21.7816Z" fill="currentColor"/>
<path d="M5.2818 2.66765C6.42745 2.66765 7.57249 2.66527 8.71813 2.66825C9.85713 2.67063 10.5883 3.38492 10.5901 4.50466C10.5937 6.74532 10.5937 8.98597 10.5901 11.2266C10.5883 12.3547 9.83961 13.0881 8.70182 13.0887C6.44134 13.0893 4.18087 13.0887 1.9204 13.0887C0.769917 13.0887 0.0273024 12.4161 0.016426 11.2845C-0.00532674 9.00446 -0.00411825 6.72385 0.0158218 4.44384C0.0254897 3.33603 0.752394 2.66944 1.87629 2.66825C3.01166 2.66705 4.14703 2.66825 5.28241 2.66825L5.2818 2.66765Z" fill="currentColor"/>
</g>
<defs>
<clipPath id="clip0_692_322">
<rect width="27" height="27" fill="white"/>
</clipPath>
</defs>
</svg>
