<?xml version="1.0" encoding="UTF-8"?>
<svg xmlns="http://www.w3.org/2000/svg" xmlns:xlink="http://www.w3.org/1999/xlink" width="33px" height="30px" viewBox="0 0 33 30" version="1.1">
<g id="surface1">
<path style=" stroke:none;fill-rule:nonzero;fill:currentColor;fill-opacity:1;" d="M 15.308594 6.546875 C 19.011719 6.550781 22.710938 6.546875 26.414062 6.550781 C 29.09375 6.554688 30.613281 8.140625 30.628906 10.933594 C 30.632812 11.960938 30.5625 12.988281 30.644531 14.007812 C 30.726562 15 30.339844 15.226562 29.460938 15.183594 C 28.035156 15.113281 26.601562 15.148438 25.171875 15.167969 C 23.957031 15.1875 23.535156 15.632812 23.511719 16.898438 C 23.492188 17.84375 23.488281 18.796875 23.515625 19.742188 C 23.546875 20.835938 24.023438 21.34375 25.074219 21.363281 C 26.613281 21.390625 28.15625 21.398438 29.691406 21.355469 C 30.375 21.335938 30.683594 21.5 30.644531 22.285156 C 30.585938 23.535156 30.648438 24.789062 30.613281 26.039062 C 30.546875 28.269531 29.007812 29.957031 26.851562 29.96875 C 19.15625 30.011719 11.460938 30.007812 3.765625 29.96875 C 1.65625 29.957031 0.0390625 28.210938 0.0273438 26.003906 C -0.0078125 20.84375 -0.0117188 15.679688 0.0273438 10.519531 C 0.0429688 8.203125 1.710938 6.566406 3.988281 6.550781 C 7.761719 6.53125 11.535156 6.546875 15.308594 6.546875 Z M 15.308594 6.546875 "/>
<path style=" stroke:none;fill-rule:nonzero;fill:currentColor;fill-opacity:1;" d="M 0.09375 8.203125 C 0.167969 5.96875 1.597656 4.292969 3.808594 3.855469 C 10.453125 2.550781 17.105469 1.285156 23.757812 0.046875 C 25.492188 -0.277344 27.335938 1.175781 27.894531 3.210938 C 28.03125 3.714844 28.089844 4.25 28.109375 4.777344 C 28.160156 6.109375 27.652344 6.453125 26.40625 6.003906 C 26.097656 5.890625 26.03125 5.683594 26.023438 5.402344 C 26.015625 5.101562 26.035156 4.796875 26.015625 4.496094 C 25.902344 2.777344 24.933594 1.964844 23.308594 2.277344 C 17.589844 3.363281 11.878906 4.464844 6.164062 5.5625 C 5.625 5.664062 5.085938 5.78125 4.542969 5.859375 C 2.855469 6.105469 1.214844 6.445312 0.09375 8.203125 Z M 0.09375 8.203125 "/>
<path style=" stroke:none;fill-rule:nonzero;fill:currentColor;fill-opacity:1;" d="M 28.472656 15.679688 C 29.570312 15.679688 30.664062 15.703125 31.761719 15.671875 C 32.664062 15.644531 33.019531 16.09375 33 16.984375 C 32.980469 17.851562 32.984375 18.722656 32.996094 19.59375 C 33.003906 20.433594 32.640625 20.855469 31.808594 20.851562 C 29.617188 20.84375 27.425781 20.847656 25.230469 20.859375 C 24.355469 20.863281 23.96875 20.425781 23.988281 19.53125 C 24.011719 18.660156 24 17.789062 23.992188 16.921875 C 23.988281 16.085938 24.34375 15.65625 25.183594 15.671875 C 26.28125 15.6875 27.375 15.675781 28.472656 15.675781 Z M 30.175781 19.078125 C 30.628906 19.039062 30.878906 18.71875 30.898438 18.265625 C 30.921875 17.785156 30.636719 17.480469 30.160156 17.472656 C 29.632812 17.460938 29.3125 17.785156 29.347656 18.3125 C 29.378906 18.753906 29.652344 19.074219 30.175781 19.078125 Z M 30.175781 19.078125 "/>
</g>
</svg>
