<svg width="149" height="180" viewBox="0 0 149 180" fill="none" xmlns="http://www.w3.org/2000/svg">
<g clip-path="url(#clip0_592_52)">
<path d="M107.223 180C105.335 179.485 103.446 178.973 101.557 178.458C83.1671 173.426 71.1034 155.354 73.8963 137.01C76.8378 117.688 92.9436 103.691 111.813 104.063C130.637 104.436 146.873 118.873 148.762 136.918C150.859 156.956 138.819 174.373 119.784 178.869C118.543 179.16 117.089 178.806 116.122 179.997H107.22L107.223 180ZM96.8727 137.919C94.9334 138.097 93.5533 138.97 92.7979 140.559C91.9115 142.42 92.5034 144.123 93.8746 145.529C96.7507 148.473 99.6982 151.346 102.568 154.297C105.141 156.941 107.678 156.947 110.257 154.365C116.307 148.309 122.344 142.239 128.406 136.192C130.53 134.072 131.487 131.702 129.206 129.275C126.702 126.611 124.233 127.641 121.973 129.927C117.809 134.143 113.436 138.172 109.478 142.575C107.128 145.189 105.617 145.195 103.357 142.56C101.608 140.518 99.9629 137.954 96.8697 137.922L96.8727 137.919Z" fill="currentColor"/>
<path d="M0.0713325 89.8229C0.0713325 74.8053 0.160561 59.7847 -5.04881e-05 44.7671C-0.035742 41.3432 0.951722 40.1314 4.44354 40.2982C10.0293 40.5631 15.6447 40.2178 21.2364 40.4262C24.4099 40.5423 25.793 39.8575 26.0785 36.2371C27.6579 16.3456 43.1153 1.5364 63.4148 0.0894172C81.9595 -1.23251 99.5346 12.2458 103.922 31.0446C104.621 34.0398 103.297 38.3391 105.846 39.7831C108.374 41.2122 112.241 40.313 115.521 40.3547C119.474 40.4053 123.43 40.4708 127.377 40.3339C129.849 40.2475 130.892 40.98 130.878 43.6655C130.785 60.663 130.747 77.6636 130.895 94.6611C130.931 98.8026 128.894 97.2305 126.963 96.5993C94.7578 86.0477 62.7277 109.991 63.733 143.879C63.8669 148.363 64.7354 152.737 66.2255 156.947C67.1356 159.516 66.2433 160.097 63.8282 160.082C50.9823 160.001 38.1214 160.403 25.2963 159.894C10.7669 159.32 0.231944 147.955 0.101075 133.393C-0.0268191 118.87 0.0713325 104.346 0.0713325 89.8229ZM65.241 40.2535C72.4834 40.2535 79.7288 40.1731 86.9682 40.2952C89.4933 40.3369 90.4362 39.7086 90.1596 36.9546C88.9282 24.7 78.2684 14.7468 65.8805 14.5056C53.1654 14.2555 42.22 23.8097 40.5782 36.3056C40.1737 39.3782 40.7834 40.4143 44.0046 40.319C51.0774 40.1106 58.1592 40.2535 65.238 40.2535H65.241Z" fill="currentColor"/>
</g>
<defs>
<clipPath id="clip0_592_52">
<rect width="149" height="180" fill="white"/>
</clipPath>
</defs>
</svg>
