<svg width="173" height="170" viewBox="0 0 173 170" fill="none" xmlns="http://www.w3.org/2000/svg">
<g clip-path="url(#clip0_592_2)">
<path d="M120.29 113.012C111.703 109.045 103.357 103.385 94.0232 95.1974C77.6534 80.8371 66.4395 67.2996 58.7303 52.5937C56.344 48.0403 53.9065 42.7846 54.1025 36.8286C53.9956 37.0984 53.8864 37.3772 53.7639 37.6514C52.3245 40.8334 50.8919 44.0868 49.5082 47.2331C48.7106 49.0482 47.9107 50.8633 47.1063 52.6762L39.3303 70.2007C26.9132 98.1832 14.0727 127.116 1.39486 155.551C0.249621 158.115 0.394447 160.28 1.86276 162.568C3.24195 164.718 4.97763 166.589 7.02078 168.129C9.84155 170.254 12.4128 170.549 15.6212 169.113C41.3623 157.598 67.5647 145.953 92.9047 134.693C106.218 128.777 119.53 122.861 132.839 116.936C133.137 116.805 133.443 116.689 133.739 116.58C133.815 116.551 133.886 116.524 133.959 116.497C128.969 116.769 124.49 114.952 120.29 113.012ZM35.7631 118.484C35.7119 118.486 35.6606 118.486 35.6094 118.486C33.5261 118.486 31.4718 117.628 29.95 116.116C28.3904 114.564 27.5125 112.448 27.5415 110.307C27.6016 105.872 31.151 102.393 35.6205 102.391H35.625C40.0856 102.391 43.6016 105.881 43.6327 110.338C43.6617 114.742 40.1324 118.397 35.7631 118.484Z" fill="currentColor"/>
<path d="M84.1014 24.2165C84.1883 24.939 84.8054 25.5834 85.3536 25.9491C86.7951 26.9035 88.4551 27.1956 89.8877 27.3561C92.8444 27.6839 95.2686 28.4711 97.3028 29.7555C101.556 32.4447 103.328 35.8185 102.715 40.0663C102.115 44.2339 99.473 47.0079 94.6402 48.5487C92.8177 49.1285 90.7634 49.3336 88.357 49.1753C87.0291 49.0883 85.7212 49.0817 84.4757 49.1552H84.4267C83.3706 49.2177 81.4076 49.3336 81.2717 51.2981C81.1514 53.0397 82.7779 53.5704 83.7493 53.887C83.8407 53.916 83.9298 53.945 84.0167 53.974C84.6361 54.1836 85.2667 54.2995 85.8772 54.4132C86.2181 54.4757 86.5389 54.5337 86.8553 54.6072C89.3062 55.1781 90.574 56.9218 90.2509 59.2721C89.9456 61.473 88.2835 62.7574 85.9128 62.6236C81.9669 62.4028 78.6604 61.056 76.0802 58.6255C73.1347 55.8493 72.1142 52.6361 73.0434 49.0727C74.0883 45.0724 76.8757 42.5415 81.5636 41.3329C82.9472 40.9761 84.4044 40.7977 85.973 40.7977C86.8798 40.7977 87.8223 40.8579 88.8071 40.9761C90.3155 41.1567 93.8448 41.5804 94.2303 38.7998C94.5756 36.3046 91.5209 35.8497 89.881 35.6066L89.6671 35.5754C86.3763 35.0781 82.9227 34.407 80.0195 32.1882C76.9425 29.8357 75.3584 26.346 75.7839 22.8563C76.2162 19.322 78.5267 16.3986 82.1251 14.8355C84.2172 13.9279 86.4877 13.4842 88.8895 13.5109C89.324 13.5176 89.7585 13.5533 90.2219 13.5912C90.8235 13.6425 91.4452 13.6938 92.0802 13.6715C92.3654 13.6626 92.6907 13.6715 93.036 13.6826C94.5689 13.7317 96.8817 13.8031 97.1914 11.6289C97.5523 9.08021 94.6581 8.62532 93.1028 8.38227C92.9736 8.3622 92.8466 8.34213 92.7263 8.32206C89.9278 7.85602 88.6266 6.79015 88.2367 4.63833C87.956 3.08635 88.5174 1.82425 89.9546 0.778447C90.2041 0.595599 90.5339 0.370383 90.8569 0.2522C93.8782 -0.860499 100.741 1.86216 103.517 5.27384C106.253 8.63424 106.563 12.9089 104.321 16.4298C102.32 19.5717 99.1967 21.2954 94.4909 21.8506C93.7846 21.9354 93.0405 21.9153 92.1782 21.8908C91.7348 21.8796 91.2758 21.8662 90.7678 21.8662C89.4065 21.7213 87.6262 21.6254 85.8682 22.136C84.1727 22.6288 84.0323 23.6523 84.1014 24.2165Z" fill="currentColor"/>
<path d="M156.537 159.687C157.031 161.612 159.063 161.406 160.278 161.284C160.407 161.27 160.534 161.257 160.656 161.248C161.167 161.204 161.668 161.121 162.154 161.043C162.813 160.936 163.432 160.833 164.045 160.827C166.106 160.809 167.434 161.819 167.909 163.757C168.163 164.8 168.472 167.34 165.821 168.352C160.342 170.442 155.547 169.94 151.566 166.856C149.329 165.124 148.054 162.66 147.983 159.917C147.898 156.773 149.396 153.635 152.087 151.312C154.404 149.309 157.234 148.241 159.943 147.383C161.605 146.859 164.696 145.882 164.014 143.501C163.602 142.074 162.515 141.674 161.338 141.674C160.427 141.674 159.462 141.913 158.718 142.096L158.381 142.178C155.077 142.977 151.521 143.556 147.887 142.415C144.369 141.311 141.836 138.847 140.935 135.652C140.033 132.45 140.911 129.016 143.342 126.228C145.679 123.546 148.807 122.206 151.838 121.155C152.103 121.064 152.399 120.975 152.711 120.881C154.464 120.355 157.114 119.559 156.523 116.941C156.035 114.765 153.544 115.248 151.898 115.567C151.519 115.641 151.16 115.71 150.85 115.75C147.508 116.18 145.71 115.181 145.193 112.606C144.712 110.198 146.261 108.421 149.442 107.734C150.481 107.509 151.563 107.373 152.281 107.281C152.506 107.254 152.698 107.23 152.849 107.208C158.831 107.259 163.517 110.077 164.794 114.399C166.151 118.997 163.916 123.907 159.099 126.911C157.807 127.716 156.396 128.211 154.903 128.737C153.814 129.12 152.686 129.517 151.61 130.044L151.405 130.144C150.418 130.621 148.584 131.506 149.128 133.382C149.683 135.295 151.8 135.041 152.938 134.902L153.003 134.893C154.086 134.764 155.155 134.539 156.189 134.323C157.929 133.957 159.573 133.611 161.3 133.674C166.792 133.865 171.104 136.762 172.28 141.055C173.501 145.51 171.202 150.436 166.558 153.314C165.273 154.11 163.871 154.61 162.39 155.136C161.394 155.493 160.364 155.859 159.375 156.325C159.25 156.383 159.119 156.441 158.985 156.501C157.887 156.989 156.051 157.805 156.537 159.687Z" fill="currentColor"/>
<path d="M38.6396 27.657C38.2207 40.3315 35.908 53.5189 31.3604 69.1569C30.8279 70.9876 29.9367 72.2787 28.7825 72.8897C27.9403 73.3356 27.0001 73.3936 25.9863 73.0658C23.4262 72.2319 22.6419 70.167 23.5866 66.7553C27.0758 54.1499 30.6118 39.1675 30.3734 23.6298C30.3221 20.2494 29.8676 17.5066 28.9452 14.9958C28.1587 12.8552 26.833 10.4246 23.5376 10.4246C23.4396 10.4246 23.3415 10.4246 23.2413 10.4291C19.8145 10.5762 19.0502 13.2432 18.4353 15.3861L18.4197 15.4351C18.0075 16.8756 17.9874 18.3161 17.9696 19.7075C17.9629 20.1178 17.9585 20.5437 17.9429 20.9562C17.8292 23.7971 16.2005 25.6323 13.7875 25.6323H13.7786C11.5193 25.6278 9.90393 23.8238 9.75688 21.1391C9.56526 17.5802 10.0488 14.2421 11.1985 11.2162C13.46 5.26026 17.4906 2.20313 23.1789 2.134C28.9051 2.06264 33.5774 5.21121 35.9949 10.7702C38.3433 16.171 38.5861 21.8393 38.6396 27.657Z" fill="currentColor"/>
<path d="M172.942 75.3651C172.534 77.7488 170.42 79.1268 167.679 78.7946C158.139 77.6373 148.81 78.1502 139.951 80.3176C131.205 82.456 122.676 86.2669 114.6 91.643C114.45 91.7434 114.301 91.846 114.154 91.9485C113.951 92.089 113.762 92.2206 113.568 92.3455C111.093 93.9197 108.786 93.6544 107.398 91.6341C106.015 89.6206 106.627 87.2569 108.956 85.6113C123.429 75.3851 139.855 70.223 159.177 69.8306C159.874 69.8952 160.67 69.9577 161.512 70.0223C163.731 70.1963 166.494 70.4126 169.179 70.7983C170.529 70.9901 171.641 71.6055 172.314 72.5287C172.895 73.3292 173.118 74.3371 172.942 75.3651Z" fill="currentColor"/>
<path d="M17.9227 83.8005C17.9161 86.1976 16.8845 88.4118 15.2513 90.0285C13.6158 91.6429 11.3788 92.6597 8.95469 92.6642H8.93686C4.12865 92.6642 0.0378729 88.6147 -4.60957e-06 83.8138C-0.035654 78.9349 3.91252 74.91 8.80318 74.8387C8.84774 74.8364 8.8923 74.8364 8.93686 74.8364C11.312 74.8364 13.5557 75.7641 15.2624 77.4543C16.9869 79.1579 17.9294 81.4123 17.9227 83.8005Z" fill="currentColor"/>
<path d="M143.89 15.7832C143.906 18.1469 143.003 20.3723 141.346 22.0469C139.683 23.726 137.464 24.6536 135.094 24.6603H135.062C130.098 24.6603 126.13 20.8651 126.023 16.004C125.972 13.6158 126.874 11.3548 128.563 9.64222C130.274 7.90516 132.56 6.95524 134.998 6.982C140.033 7.02436 143.857 10.8084 143.89 15.7832Z" fill="currentColor"/>
<path d="M129.349 42.3387C129.441 45.7972 126.518 48.9212 123.095 49.026C121.339 49.0796 119.671 48.4307 118.396 47.1976C117.115 45.96 116.406 44.3032 116.398 42.5327C116.382 38.9248 119.118 36.162 122.763 36.104H122.877C126.482 36.104 129.256 38.7665 129.349 42.3387Z" fill="currentColor"/>
<path d="M119.702 149.225C119.675 151.015 118.949 152.618 117.779 153.778C116.611 154.935 114.998 155.653 113.205 155.669C109.577 155.707 106.797 152.973 106.736 149.323C106.679 145.71 109.419 142.798 112.975 142.696C113.031 142.693 113.087 142.693 113.142 142.693C114.791 142.693 116.453 143.402 117.725 144.658C119.007 145.922 119.726 147.586 119.702 149.225Z" fill="currentColor"/>
<path d="M148.705 56.982C148.696 58.8105 147.981 60.5118 146.691 61.7695C145.447 62.9825 143.825 63.6314 142.103 63.5957C138.616 63.5244 135.809 60.61 135.809 57.0779V56.9909C135.855 53.3651 138.627 50.6224 142.257 50.6157H142.27C144.008 50.6157 145.639 51.2914 146.862 52.52C148.059 53.7219 148.714 55.3051 148.705 56.982Z" fill="currentColor"/>
<path d="M163.299 90.9607V91.0053C163.299 94.4928 160.433 97.3716 156.893 97.4295C156.851 97.4318 156.808 97.4318 156.766 97.4318C153.154 97.4318 150.474 94.8161 150.371 91.1703C150.269 87.6048 153.034 84.6056 156.53 84.4807C156.601 84.4785 156.672 84.4785 156.742 84.4785C158.381 84.4785 160.015 85.1475 161.253 86.336C162.541 87.5713 163.288 89.2571 163.299 90.9607Z" fill="currentColor"/>
<path d="M163.281 37.678C163.268 41.2056 160.367 44.1044 156.813 44.1401H156.75C153.257 44.1401 150.36 41.2926 150.28 37.7627C150.202 34.2819 153.092 31.2604 156.59 31.1668C156.65 31.1668 156.708 31.1646 156.766 31.1646C158.466 31.1646 160.075 31.8268 161.316 33.0376C162.588 34.2841 163.288 35.932 163.281 37.678Z" fill="currentColor"/>
</g>
<defs>
<clipPath id="clip0_592_2">
<rect width="173" height="170" fill="white"/>
</clipPath>
</defs>
</svg>
