<?xml version="1.0" encoding="utf-8"?>
<!-- Generator: Adobe Illustrator 24.3.0, SVG Export Plug-In . SVG Version: 6.00 Build 0)  -->
<svg version="1.1" id="Layer_1" xmlns="http://www.w3.org/2000/svg" xmlns:xlink="http://www.w3.org/1999/xlink" x="0px" y="0px"
	 viewBox="0 0 732.5 500" style="enable-background:new 0 0 732.5 500;" xml:space="preserve">
<style type="text/css">
	.st0{fill:#1877F2;}
</style>
<g>
	<g>
		<path class="st0" d="M0.3,253.8C0.7,126.2,90.8,21.9,213.4,4c50.5-7.4,99,0.4,144.9,22.9c5.9,2.9,10.3,2.7,16-0.1
			c152.4-73.9,330.9,21.1,355.4,189c20.2,138.6-82.5,268.7-221.9,281.6c-46.8,4.3-91.2-3.5-133.3-24c-6.2-3-10.9-2.7-16.9,0.2
			c-109.9,53.3-241.2,19.5-311.6-80.1C15.6,350.6,0.8,302.6,0.3,253.8z M703,250.8c0.8-119.3-97.5-219.1-216.8-220.3
			C364.3,29.4,265,126.8,263.7,248.8c-1.3,119.1,97.4,219.8,216.2,220.8C602.5,470.7,702.2,372.9,703,250.8z M332.9,48.3
			c-70.1-34.1-182.3-22.6-253.1,61.9c-67,80-66.8,200.7,0.9,280.8c70.5,83.4,182.1,95.1,255.1,59.4c-43.4-32.9-73.4-75-90.7-128
			c-18.7,19.2-36.4,37.3-53.7,55c-34.5-34.5-67.7-67.8-99.8-100c7-7.8,14.7-16.2,23.7-26.1c25.4,25.4,50.3,50.3,75.8,75.8
			c13.4-13.6,27.1-26.9,39.9-40.9c3-3.2,4.9-9,4.5-13.4c-5.2-61,9.3-116.9,45.2-166.1C296.1,85.8,315.3,67.8,332.9,48.3z"/>
	</g>
	<path class="st0" d="M324.9,276c7.3-7.4,15-15.2,22.5-22.8c25,25.1,50,50,74.7,74.8c65.2-65.3,128.7-128.8,192.6-192.9
		c9,10.2,16.6,18.7,23.5,26.6c-70.4,70.5-142.4,142.5-213.9,214.1C391.5,342.9,358.3,309.6,324.9,276z"/>
</g>
</svg>
