<svg width="44" height="43" viewBox="0 0 44 43" fill="none" xmlns="http://www.w3.org/2000/svg">
<g clip-path="url(#clip0_575_1990)">
<path d="M21.9753 43C15.5973 43 9.21929 43 2.84505 43C1.40924 43 0.32483 42.1398 0.0414466 40.7701C0.00366211 40.5892 0.00366211 40.4009 0.00366211 40.2126C0.00366211 36.6388 0.00366211 33.0687 0.00366211 29.4949C0.00366211 28.1363 1.16364 26.9549 2.55411 26.881C3.99748 26.8035 5.26704 27.8003 5.45974 29.1553C5.48996 29.3583 5.5013 29.5614 5.5013 29.7681C5.5013 32.2676 5.50508 34.767 5.49374 37.2665C5.49374 37.5507 5.55798 37.632 5.86025 37.632C13.9764 37.6246 22.0887 37.6246 30.2048 37.6246C32.8572 37.6246 35.5135 37.6246 38.166 37.6283C38.4153 37.6283 38.5022 37.584 38.5022 37.3145C38.4909 34.7412 38.4985 32.1642 38.4947 29.5909C38.4947 28.1769 39.4998 27.0693 40.9469 26.8847C42.2731 26.7186 43.5616 27.6047 43.9054 28.919C43.9659 29.1553 43.9961 29.3953 43.9961 29.6389C43.9961 33.1463 43.9961 36.6536 43.9961 40.1609C43.9961 41.8482 42.8097 42.9964 41.0754 42.9964C34.7087 42.9964 28.342 42.9964 21.9715 42.9964L21.9753 43Z" fill="currentColor"/>
<path d="M24.8169 23.0194C25.4592 22.3844 26.1015 21.7494 26.7476 21.118C28.1721 19.7262 29.5853 18.3269 31.0211 16.9462C32.5891 15.4398 35.1358 16.1155 35.661 18.1793C35.9142 19.1724 35.627 20.0437 34.8902 20.7636C31.5047 24.0753 28.1154 27.3833 24.7262 30.6949C24.4768 30.9386 24.2312 31.186 23.978 31.4296C22.837 32.5335 21.1442 32.5335 20.0069 31.4222C16.3607 27.8632 12.7145 24.3005 9.07585 20.7341C7.54936 19.2388 8.22193 16.7579 10.3001 16.2225C11.324 15.9567 12.2271 16.2225 12.9752 16.9535C14.9362 18.8623 16.8897 20.7784 18.8469 22.6908C18.9603 22.8016 19.0547 22.9345 19.1908 23.0969C19.2777 22.8828 19.2512 22.7462 19.2512 22.6133C19.2512 17.4261 19.2512 12.2426 19.2512 7.05545C19.2512 5.60821 19.2512 4.16467 19.2512 2.71743C19.2512 1.30711 20.2638 0.195833 21.711 0.0186203C23.0334 -0.143825 24.3257 0.745932 24.6657 2.06026C24.73 2.30393 24.7526 2.55498 24.7526 2.80973C24.7526 9.42199 24.7526 16.0379 24.7526 22.6502V22.9825C24.7753 22.9935 24.798 23.0083 24.8169 23.0194Z" fill="currentColor"/>
</g>
<defs>
<clipPath id="clip0_575_1990">
<rect width="44" height="43" fill="white"/>
</clipPath>
</defs>
</svg>
