<?xml version="1.0" encoding="utf-8"?>
<!-- Generator: Adobe Illustrator 24.3.0, SVG Export Plug-In . SVG Version: 6.00 Build 0)  -->
<svg version="1.1" id="Layer_1" xmlns="http://www.w3.org/2000/svg" xmlns:xlink="http://www.w3.org/1999/xlink" x="0px" y="0px"
	 viewBox="0 0 500 500" style="enable-background:new 0 0 500 500;" xml:space="preserve">
<style type="text/css">
	.st0{fill:#1877F2;}
</style>
<g>
	<g>
		<g>
			<path class="st0" d="M305.5,471.2c-43.5-44.8-85.7-88.3-129.1-133.1C123.3,391.8,71.9,443.8,20.6,495.8
				c-5.6-5.7-10.6-10.7-15.8-16c51.6-51,103.6-102.3,155.5-153.6c-44.8-44.7-87.9-87.6-132.1-131.7c12-10.5,22.3-20.6,33.7-29.2
				c9.1-6.9,20-9.4,31.9-8.2c17.1,1.9,34.2,3.7,51.3,4c12.6,0.2,22.2,4.4,29.8,14.1c2.7,3.4,5.8,6.5,9.7,10.9c-5.8,0-10,0.3-14.3,0
				c-24.8-2-49.6-4-74.3-6.3c-14.7-1.3-24.3,2.5-33.9,14.2c81.1,81,162.1,162.1,243.8,243.7c8.4-9.2,15.2-18.6,13.7-33
				c-3.1-29.4-4.8-58.9-6-88.9c10.4,10.8,24.9,17.7,24.8,36.5c-0.1,20.4,3.1,40.7,3.4,61.1c0.1,7.5-2.1,16.3-6.3,22.4
				C327.1,447.9,316.6,458.4,305.5,471.2z"/>
			<path class="st0" d="M309.9,87.7c-25.7,26-62.2,62.8-89,89.8c-6.2-5.9-11.2-10.7-17-16.2c2.3-2.5,14.7-15.2,16.9-17.4
				c24.1-24.1,48-48.3,72.3-72.2c4.7-4.6,6.6-9.1,6.3-15.5c-0.8-13.6,2-26.5,9.9-38C321,1.4,339.5-0.5,354,14
				c43.8,43.7,87.6,87.5,131.2,131.4c15.9,16,12.7,37.8-8,47.1c-10.5,4.7-22.6,6.4-34.2,7.4c-7.4,0.6-12.6,2.6-17.6,7.8
				c-23.2,23.7-46.7,47.1-70.1,70.6c-2.1,2.1-14.6,14.3-17.3,16.8c-4.9-5.1-9.5-10-14.9-15.7c26.7-26.2,63.7-62.8,90-88.6
				C378.1,155.8,344,121.8,309.9,87.7z M436.7,179.4c9.7-1.8,19.1-2.3,27.6-5.3c9.7-3.4,10-7,2.8-14.4
				c-21.9-22.4-43.8-44.9-66.1-67.1c-20.5-20.5-41.6-40.4-62.2-60.9c-5.9-5.9-10.4-4.3-12.6,2.3c-2.7,8.3-4.1,17.1-5.1,25.8
				c-0.3,2.9,1.2,7,3.4,9.2c35,35.4,70.2,70.5,105.4,105.6C431.9,176.6,434.5,177.8,436.7,179.4z"/>
		</g>
		<path class="st0" d="M113.6,159l90.3,2.2l17,16.2c0,0-24.2,16.2-90.2,5L113.6,159z"/>
		<path class="st0" d="M323.1,279.4c0,0-12.9,25.8-8.4,59.8c4.5,34,24.1,34,24.1,34l-0.8-78.2l6.2-23.5L323.1,279.4z"/>
	</g>
</g>
</svg>
