<?xml version="1.0" encoding="utf-8"?>
<!-- Generator: Adobe Illustrator 24.3.0, SVG Export Plug-In . SVG Version: 6.00 Build 0)  -->
<svg version="1.1" id="Layer_1" xmlns="http://www.w3.org/2000/svg" xmlns:xlink="http://www.w3.org/1999/xlink" x="0px" y="0px"
	 viewBox="0 0 732.5 500" style="enable-background:new 0 0 732.5 500;" xml:space="preserve">
<style type="text/css">
	.st0{fill:#1877F2;}
</style>
<g>
	<path class="st0" d="M732.1,249.9c-1.8,134.4-108.8,240.5-241.5,239.4c-131.1-1.1-238.8-110.5-237.1-240.8
		c1.7-131.9,106.8-237.6,239-237.7C626.7,10.7,731.4,118.6,732.1,249.9z M326.4,275.6c35.3,35,70.5,69.8,104.8,103.7
		c74-74,149.1-149,223.6-223.5c-7.7-8.1-16-16.7-25.1-26.2C563.3,196.2,497.2,262.4,430,329.9c-26.7-26.9-52.7-53.1-78.5-79
		C342.4,259.8,333.9,268.2,326.4,275.6z"/>
	<path class="st0" d="M108,249.2c-10,10.3-18.1,18.7-25.6,26.4c34.9,34.8,69.9,69.8,105.8,105.5c20.3-20.8,41.6-42.6,64.5-66.1
		c10,32.9,23.8,61.3,43.5,86.7c19.8,25.6,43.9,46.2,73.1,64.1c-27.8,16.8-56.9,25.9-87.5,29.8c-67.5,8.6-129.1-7.2-183.2-48.5
		c-107.8-82.3-130-235.3-50.6-342.9C130.8-8.2,275.3-21.6,368.6,33.9c-8.7,6.1-17.4,11.5-25.5,17.9
		c-66.9,52.5-99.9,121.4-98.5,206.5c0.1,8.7-1.7,15-8.2,21.1c-16.8,15.9-32.9,32.6-49.6,49.3C160.7,302.3,134.7,276.2,108,249.2z"/>
</g>
</svg>
