<?xml version="1.0" encoding="utf-8"?>
<!-- Generator: Adobe Illustrator 24.3.0, SVG Export Plug-In . SVG Version: 6.00 Build 0)  -->
<svg version="1.1" id="Layer_1" xmlns="http://www.w3.org/2000/svg" xmlns:xlink="http://www.w3.org/1999/xlink" x="0px" y="0px"
	 viewBox="0 0 500 500" style="enable-background:new 0 0 500 500;" xml:space="preserve">
<style type="text/css">
	.st0{fill:#1877F2;}
</style>
<g>
	<path class="st0" d="M499.3,250.1c0,137.6-112,249.4-249.7,249.3c-136.6-0.1-249.1-112.1-249-248C0.7,112.2,111.9,0.7,250.8,0.6
		C387.4,0.6,499.3,112.9,499.3,250.1z M29.7,250.3c0.2,120.9,99.4,219.9,220.3,219.8c121-0.1,219.9-98.9,220.2-220
		c0.3-121.1-99.2-220.4-220.8-220.3C128.7,30,29.6,129.4,29.7,250.3z"/>
	<path class="st0" d="M382,135.4c9.5,9.6,17.5,17.6,25.1,25.4c-71.8,71.8-143.9,143.8-215.1,215c-33.1-33.2-66.5-66.7-100.1-100.4
		c6.5-6.3,14.5-14.2,22.8-22.3c24.7,24.8,49.7,49.9,74.8,75C254.5,263,318.1,199.3,382,135.4z"/>
</g>
</svg>
