<svg width="244" height="244" viewBox="0 0 244 244" fill="none" xmlns="http://www.w3.org/2000/svg">
<circle opacity="0.17" cx="122" cy="122" r="122" fill="currentColor"/>
<g clip-path="url(#clip0_37_1344)">
<path d="M122 199L119.197 197.265C106.903 189.656 89.3332 175.465 75.4568 151.046C62.2905 127.888 57.7813 104.828 56.3176 89.556L56 86.2583L122 47L188 86.2583L187.682 89.556C186.219 104.828 181.703 127.888 168.543 151.053C154.667 175.471 137.097 189.662 124.803 197.271L122 199.006V199ZM67.2107 91.8348C68.8923 105.995 73.333 125.93 84.6808 145.896C96.4333 166.572 110.989 179.244 122 186.562C133.011 179.244 147.567 166.578 159.319 145.896C170.667 125.93 175.108 105.995 176.789 91.8348L122 59.24L67.2107 91.8348Z" fill="currentColor"/>
<path d="M114.682 146.291L87.9194 119.749L95.4057 112.325L114.682 131.445L151.266 95.1697L158.752 102.593L114.682 146.291Z" fill="currentColor"/>
</g>
<defs>
<clipPath id="clip0_37_1344">
<rect width="132" height="152" fill="white" transform="translate(56 47)"/>
</clipPath>
</defs>
</svg>
